%FSLAX45Y45*%
G04 Gerber Fmt 4.5, Leading zero omitted, Abs format (unit mm)*
G04 Created by KiCad (PCBNEW (5.0.0)) date 11/22/18 23:54:33*
%MOMM*%
%LPD*%
G01*
G04 APERTURE LIST*
%ADD10C,0.100000*%
%ADD11C,0.200000*%
%ADD12C,0.300000*%
G04 APERTURE END LIST*
D10*
X43000000Y-4700000D02*
X37000000Y-4700000D01*
X43000000Y-18700000D02*
X43000000Y-4700000D01*
X37000000Y-18700000D02*
X43000000Y-18700000D01*
X5000000Y-4700000D02*
X5000000Y-18700000D01*
X5000000Y-4700000D02*
X37000000Y-4700000D01*
X6000000Y-18700000D02*
X37000000Y-18700000D01*
X6000000Y-18700000D02*
X5000000Y-18700000D01*
D11*
X19548000Y-6186600D02*
X19648000Y-6286600D01*
X19648000Y-6186600D02*
X19548000Y-6286600D01*
X19498000Y-6276600D02*
X19698000Y-6276600D01*
X19498000Y-6196600D02*
X19698000Y-6196600D01*
X19698000Y-6276600D02*
G75*
G03X19698000Y-6196600I0J40000D01*
G01*
X19498000Y-6196600D02*
G75*
G03X19498000Y-6276600I0J-40000D01*
G01*
X25150000Y-5200000D02*
G75*
G03X25150000Y-5200000I-150000J0D01*
G01*
X5650000Y-18200000D02*
G75*
G03X5650000Y-18200000I-150000J0D01*
G01*
X5650000Y-5200000D02*
G75*
G03X5650000Y-5200000I-150000J0D01*
G01*
X42650000Y-18200000D02*
G75*
G03X42650000Y-18200000I-150000J0D01*
G01*
X33150000Y-12500000D02*
G75*
G03X33150000Y-12500000I-150000J0D01*
G01*
X23150000Y-18200000D02*
G75*
G03X23150000Y-18200000I-150000J0D01*
G01*
X42650000Y-5200000D02*
G75*
G03X42650000Y-5200000I-150000J0D01*
G01*
X15150000Y-12500000D02*
G75*
G03X15150000Y-12500000I-150000J0D01*
G01*
X31238075Y-13983600D02*
X31238075Y-14288400D01*
X31085675Y-14136000D02*
X31390475Y-14136000D01*
X33625675Y-13983600D02*
X33625675Y-14288400D01*
X33473275Y-14136000D02*
X33778075Y-14136000D01*
X6949325Y-15888600D02*
X6949325Y-16193400D01*
X6796925Y-16041000D02*
X7101725Y-16041000D01*
X9336925Y-15888600D02*
X9336925Y-16193400D01*
X9184525Y-16041000D02*
X9489325Y-16041000D01*
X31476200Y-10173600D02*
X31476200Y-10478400D01*
X31323800Y-10326000D02*
X31628600Y-10326000D01*
X33863800Y-10173600D02*
X33863800Y-10478400D01*
X33711400Y-10326000D02*
X34016200Y-10326000D01*
X14331200Y-16396600D02*
X14331200Y-16701400D01*
X14178800Y-16549000D02*
X14483600Y-16549000D01*
X24338800Y-16396600D02*
X24338800Y-16701400D01*
X24186400Y-16549000D02*
X24491200Y-16549000D01*
X18523491Y-9768491D02*
X18523491Y-9486509D01*
X18241509Y-9486509D01*
X18241509Y-9768491D01*
X18523491Y-9768491D01*
X7807866Y-13578491D02*
X7807866Y-13296509D01*
X7525884Y-13296509D01*
X7525884Y-13578491D01*
X7807866Y-13578491D01*
X10427241Y-13578491D02*
X10427241Y-13296509D01*
X10145259Y-13296509D01*
X10145259Y-13578491D01*
X10427241Y-13578491D01*
X9712866Y-17388491D02*
X9712866Y-17106509D01*
X9430884Y-17106509D01*
X9430884Y-17388491D01*
X9712866Y-17388491D01*
X35668491Y-17388491D02*
X35668491Y-17106509D01*
X35386509Y-17106509D01*
X35386509Y-17388491D01*
X35668491Y-17388491D01*
X17094741Y-15483491D02*
X17094741Y-15201509D01*
X16812759Y-15201509D01*
X16812759Y-15483491D01*
X17094741Y-15483491D01*
X13760991Y-11673491D02*
X13760991Y-11391509D01*
X13479009Y-11391509D01*
X13479009Y-11673491D01*
X13760991Y-11673491D01*
X15665991Y-11673491D02*
X15665991Y-11391509D01*
X15384009Y-11391509D01*
X15384009Y-11673491D01*
X15665991Y-11673491D01*
X11855991Y-11673491D02*
X11855991Y-11391509D01*
X11574009Y-11391509D01*
X11574009Y-11673491D01*
X11855991Y-11673491D01*
X29477241Y-13578491D02*
X29477241Y-13296509D01*
X29195259Y-13296509D01*
X29195259Y-13578491D01*
X29477241Y-13578491D01*
X35668491Y-7863491D02*
X35668491Y-7581509D01*
X35386509Y-7581509D01*
X35386509Y-7863491D01*
X35668491Y-7863491D01*
X14713491Y-7863491D02*
X14713491Y-7581509D01*
X14431509Y-7581509D01*
X14431509Y-7863491D01*
X14713491Y-7863491D01*
X33763491Y-7863491D02*
X33763491Y-7581509D01*
X33481509Y-7581509D01*
X33481509Y-7863491D01*
X33763491Y-7863491D01*
X18047241Y-13578491D02*
X18047241Y-13296509D01*
X17765259Y-13296509D01*
X17765259Y-13578491D01*
X18047241Y-13578491D01*
X37573491Y-11673491D02*
X37573491Y-11391509D01*
X37291509Y-11391509D01*
X37291509Y-11673491D01*
X37573491Y-11673491D01*
X16618491Y-7863491D02*
X16618491Y-7581509D01*
X16336509Y-7581509D01*
X16336509Y-7863491D01*
X16618491Y-7863491D01*
X35668491Y-13578491D02*
X35668491Y-13296509D01*
X35386509Y-13296509D01*
X35386509Y-13578491D01*
X35668491Y-13578491D01*
X28524741Y-15483491D02*
X28524741Y-15201509D01*
X28242759Y-15201509D01*
X28242759Y-15483491D01*
X28524741Y-15483491D01*
X29239116Y-17388491D02*
X29239116Y-17106509D01*
X28957134Y-17106509D01*
X28957134Y-17388491D01*
X29239116Y-17388491D01*
X31144116Y-15483491D02*
X31144116Y-15201509D01*
X30862134Y-15201509D01*
X30862134Y-15483491D01*
X31144116Y-15483491D01*
X33763491Y-15483491D02*
X33763491Y-15201509D01*
X33481509Y-15201509D01*
X33481509Y-15483491D01*
X33763491Y-15483491D01*
X26143491Y-9768491D02*
X26143491Y-9486509D01*
X25861509Y-9486509D01*
X25861509Y-9768491D01*
X26143491Y-9768491D01*
X22333491Y-9768491D02*
X22333491Y-9486509D01*
X22051509Y-9486509D01*
X22051509Y-9768491D01*
X22333491Y-9768491D01*
X22809741Y-15483491D02*
X22809741Y-15201509D01*
X22527759Y-15201509D01*
X22527759Y-15483491D01*
X22809741Y-15483491D01*
X17570991Y-11673491D02*
X17570991Y-11391509D01*
X17289009Y-11391509D01*
X17289009Y-11673491D01*
X17570991Y-11673491D01*
X27095991Y-11673491D02*
X27095991Y-11391509D01*
X26814009Y-11391509D01*
X26814009Y-11673491D01*
X27095991Y-11673491D01*
X19475991Y-11673491D02*
X19475991Y-11391509D01*
X19194009Y-11391509D01*
X19194009Y-11673491D01*
X19475991Y-11673491D01*
X27572241Y-13578491D02*
X27572241Y-13296509D01*
X27290259Y-13296509D01*
X27290259Y-13578491D01*
X27572241Y-13578491D01*
X30905991Y-11673491D02*
X30905991Y-11391509D01*
X30624009Y-11391509D01*
X30624009Y-11673491D01*
X30905991Y-11673491D01*
X41383491Y-9768491D02*
X41383491Y-9486509D01*
X41101509Y-9486509D01*
X41101509Y-9768491D01*
X41383491Y-9768491D01*
X29953491Y-7863491D02*
X29953491Y-7581509D01*
X29671509Y-7581509D01*
X29671509Y-7863491D01*
X29953491Y-7863491D01*
X39478491Y-13578491D02*
X39478491Y-13296509D01*
X39196509Y-13296509D01*
X39196509Y-13578491D01*
X39478491Y-13578491D01*
X12332241Y-13578491D02*
X12332241Y-13296509D01*
X12050259Y-13296509D01*
X12050259Y-13578491D01*
X12332241Y-13578491D01*
X41383491Y-16435991D02*
X41383491Y-16154009D01*
X41101509Y-16154009D01*
X41101509Y-16435991D01*
X41383491Y-16435991D01*
X31379066Y-12752991D02*
X31379066Y-12471009D01*
X31097084Y-12471009D01*
X31097084Y-12752991D01*
X31379066Y-12752991D01*
X32572866Y-13578491D02*
X32572866Y-13296509D01*
X32290884Y-13296509D01*
X32290884Y-13578491D01*
X32572866Y-13578491D01*
X33766666Y-12752991D02*
X33766666Y-12471009D01*
X33484684Y-12471009D01*
X33484684Y-12752991D01*
X33766666Y-12752991D01*
X7569741Y-11673491D02*
X7569741Y-11391509D01*
X7287759Y-11391509D01*
X7287759Y-11673491D01*
X7569741Y-11673491D01*
X29953491Y-9768491D02*
X29953491Y-9486509D01*
X29671509Y-9486509D01*
X29671509Y-9768491D01*
X29953491Y-9768491D01*
X13284741Y-15483491D02*
X13284741Y-15201509D01*
X13002759Y-15201509D01*
X13002759Y-15483491D01*
X13284741Y-15483491D01*
X23285991Y-11673491D02*
X23285991Y-11391509D01*
X23004009Y-11391509D01*
X23004009Y-11673491D01*
X23285991Y-11673491D01*
X35668491Y-9768491D02*
X35668491Y-9486509D01*
X35386509Y-9486509D01*
X35386509Y-9768491D01*
X35668491Y-9768491D01*
X21857241Y-13578491D02*
X21857241Y-13296509D01*
X21575259Y-13296509D01*
X21575259Y-13578491D01*
X21857241Y-13578491D01*
X41383491Y-7863491D02*
X41383491Y-7581509D01*
X41101509Y-7581509D01*
X41101509Y-7863491D01*
X41383491Y-7863491D01*
X9950991Y-11673491D02*
X9950991Y-11391509D01*
X9669009Y-11391509D01*
X9669009Y-11673491D01*
X9950991Y-11673491D01*
X28048491Y-9768491D02*
X28048491Y-9486509D01*
X27766509Y-9486509D01*
X27766509Y-9768491D01*
X28048491Y-9768491D01*
X31858491Y-17388491D02*
X31858491Y-17106509D01*
X31576509Y-17106509D01*
X31576509Y-17388491D01*
X31858491Y-17388491D01*
X12808491Y-7863491D02*
X12808491Y-7581509D01*
X12526509Y-7581509D01*
X12526509Y-7863491D01*
X12808491Y-7863491D01*
X39478491Y-11673491D02*
X39478491Y-11391509D01*
X39196509Y-11391509D01*
X39196509Y-11673491D01*
X39478491Y-11673491D01*
X12808491Y-9768491D02*
X12808491Y-9486509D01*
X12526509Y-9486509D01*
X12526509Y-9768491D01*
X12808491Y-9768491D01*
X41383491Y-12625991D02*
X41383491Y-12344009D01*
X41101509Y-12344009D01*
X41101509Y-12625991D01*
X41383491Y-12625991D01*
X7090316Y-14657991D02*
X7090316Y-14376009D01*
X6808334Y-14376009D01*
X6808334Y-14657991D01*
X7090316Y-14657991D01*
X8284116Y-15483491D02*
X8284116Y-15201509D01*
X8002134Y-15201509D01*
X8002134Y-15483491D01*
X8284116Y-15483491D01*
X9477916Y-14657991D02*
X9477916Y-14376009D01*
X9195934Y-14376009D01*
X9195934Y-14657991D01*
X9477916Y-14657991D01*
X18999741Y-15483491D02*
X18999741Y-15201509D01*
X18717759Y-15201509D01*
X18717759Y-15483491D01*
X18999741Y-15483491D01*
X20428491Y-7863491D02*
X20428491Y-7581509D01*
X20146509Y-7581509D01*
X20146509Y-7863491D01*
X20428491Y-7863491D01*
X39478491Y-9768491D02*
X39478491Y-9486509D01*
X39196509Y-9486509D01*
X39196509Y-9768491D01*
X39478491Y-9768491D01*
X20904741Y-15483491D02*
X20904741Y-15201509D01*
X20622759Y-15201509D01*
X20622759Y-15483491D01*
X20904741Y-15483491D01*
X10903491Y-9768491D02*
X10903491Y-9486509D01*
X10621509Y-9486509D01*
X10621509Y-9768491D01*
X10903491Y-9768491D01*
X24238491Y-9768491D02*
X24238491Y-9486509D01*
X23956509Y-9486509D01*
X23956509Y-9768491D01*
X24238491Y-9768491D01*
X33763491Y-17388491D02*
X33763491Y-17106509D01*
X33481509Y-17106509D01*
X33481509Y-17388491D01*
X33763491Y-17388491D01*
X18523491Y-7863491D02*
X18523491Y-7581509D01*
X18241509Y-7581509D01*
X18241509Y-7863491D01*
X18523491Y-7863491D01*
X25667241Y-13578491D02*
X25667241Y-13296509D01*
X25385259Y-13296509D01*
X25385259Y-13578491D01*
X25667241Y-13578491D01*
X39478491Y-15483491D02*
X39478491Y-15201509D01*
X39196509Y-15201509D01*
X39196509Y-15483491D01*
X39478491Y-15483491D01*
X8998491Y-7863491D02*
X8998491Y-7581509D01*
X8716509Y-7581509D01*
X8716509Y-7863491D01*
X8998491Y-7863491D01*
X39478491Y-17388491D02*
X39478491Y-17106509D01*
X39196509Y-17106509D01*
X39196509Y-17388491D01*
X39478491Y-17388491D01*
X12094116Y-17388491D02*
X12094116Y-17106509D01*
X11812134Y-17106509D01*
X11812134Y-17388491D01*
X12094116Y-17388491D01*
X31617191Y-8942991D02*
X31617191Y-8661009D01*
X31335209Y-8661009D01*
X31335209Y-8942991D01*
X31617191Y-8942991D01*
X32810991Y-9768491D02*
X32810991Y-9486509D01*
X32529009Y-9486509D01*
X32529009Y-9768491D01*
X32810991Y-9768491D01*
X34004791Y-8942991D02*
X34004791Y-8661009D01*
X33722809Y-8661009D01*
X33722809Y-8942991D01*
X34004791Y-8942991D01*
X24714741Y-15483491D02*
X24714741Y-15201509D01*
X24432759Y-15201509D01*
X24432759Y-15483491D01*
X24714741Y-15483491D01*
X26143491Y-7863491D02*
X26143491Y-7581509D01*
X25861509Y-7581509D01*
X25861509Y-7863491D01*
X26143491Y-7863491D01*
X23762241Y-13578491D02*
X23762241Y-13296509D01*
X23480259Y-13296509D01*
X23480259Y-13578491D01*
X23762241Y-13578491D01*
X37573491Y-9768491D02*
X37573491Y-9486509D01*
X37291509Y-9486509D01*
X37291509Y-9768491D01*
X37573491Y-9768491D01*
X29000991Y-11673491D02*
X29000991Y-11391509D01*
X28719009Y-11391509D01*
X28719009Y-11673491D01*
X29000991Y-11673491D01*
X37573491Y-15483491D02*
X37573491Y-15201509D01*
X37291509Y-15201509D01*
X37291509Y-15483491D01*
X37573491Y-15483491D01*
X24238491Y-7863491D02*
X24238491Y-7581509D01*
X23956509Y-7581509D01*
X23956509Y-7863491D01*
X24238491Y-7863491D01*
X37573491Y-7863491D02*
X37573491Y-7581509D01*
X37291509Y-7581509D01*
X37291509Y-7863491D01*
X37573491Y-7863491D01*
X15189741Y-15483491D02*
X15189741Y-15201509D01*
X14907759Y-15201509D01*
X14907759Y-15483491D01*
X15189741Y-15483491D01*
X22333491Y-7863491D02*
X22333491Y-7581509D01*
X22051509Y-7581509D01*
X22051509Y-7863491D01*
X22333491Y-7863491D01*
X35668491Y-15483491D02*
X35668491Y-15201509D01*
X35386509Y-15201509D01*
X35386509Y-15483491D01*
X35668491Y-15483491D01*
X7331616Y-17388491D02*
X7331616Y-17106509D01*
X7049634Y-17106509D01*
X7049634Y-17388491D01*
X7331616Y-17388491D01*
X14472191Y-18213991D02*
X14472191Y-17932009D01*
X14190209Y-17932009D01*
X14190209Y-18213991D01*
X14472191Y-18213991D01*
X19475991Y-17388491D02*
X19475991Y-17106509D01*
X19194009Y-17106509D01*
X19194009Y-17388491D01*
X19475991Y-17388491D01*
X24479791Y-18213991D02*
X24479791Y-17932009D01*
X24197809Y-17932009D01*
X24197809Y-18213991D01*
X24479791Y-18213991D01*
X14237241Y-13578491D02*
X14237241Y-13296509D01*
X13955259Y-13296509D01*
X13955259Y-13578491D01*
X14237241Y-13578491D01*
X7093491Y-9768491D02*
X7093491Y-9486509D01*
X6811509Y-9486509D01*
X6811509Y-9768491D01*
X7093491Y-9768491D01*
X8998491Y-9768491D02*
X8998491Y-9486509D01*
X8716509Y-9486509D01*
X8716509Y-9768491D01*
X8998491Y-9768491D01*
X21380991Y-11673491D02*
X21380991Y-11391509D01*
X21099009Y-11391509D01*
X21099009Y-11673491D01*
X21380991Y-11673491D01*
X7093491Y-7863491D02*
X7093491Y-7581509D01*
X6811509Y-7581509D01*
X6811509Y-7863491D01*
X7093491Y-7863491D01*
X37573491Y-13578491D02*
X37573491Y-13296509D01*
X37291509Y-13296509D01*
X37291509Y-13578491D01*
X37573491Y-13578491D01*
X16142241Y-13578491D02*
X16142241Y-13296509D01*
X15860259Y-13296509D01*
X15860259Y-13578491D01*
X16142241Y-13578491D01*
X37573491Y-17388491D02*
X37573491Y-17106509D01*
X37291509Y-17106509D01*
X37291509Y-17388491D01*
X37573491Y-17388491D01*
X14713491Y-9768491D02*
X14713491Y-9486509D01*
X14431509Y-9486509D01*
X14431509Y-9768491D01*
X14713491Y-9768491D01*
X28048491Y-7863491D02*
X28048491Y-7581509D01*
X27766509Y-7581509D01*
X27766509Y-7863491D01*
X28048491Y-7863491D01*
X31858491Y-7863491D02*
X31858491Y-7581509D01*
X31576509Y-7581509D01*
X31576509Y-7863491D01*
X31858491Y-7863491D01*
X33287241Y-11673491D02*
X33287241Y-11391509D01*
X33005259Y-11391509D01*
X33005259Y-11673491D01*
X33287241Y-11673491D01*
X26857866Y-17388491D02*
X26857866Y-17106509D01*
X26575884Y-17106509D01*
X26575884Y-17388491D01*
X26857866Y-17388491D01*
X26619741Y-15483491D02*
X26619741Y-15201509D01*
X26337759Y-15201509D01*
X26337759Y-15483491D01*
X26619741Y-15483491D01*
X19952241Y-13578491D02*
X19952241Y-13296509D01*
X19670259Y-13296509D01*
X19670259Y-13578491D01*
X19952241Y-13578491D01*
X25190991Y-11673491D02*
X25190991Y-11391509D01*
X24909009Y-11391509D01*
X24909009Y-11673491D01*
X25190991Y-11673491D01*
X11379741Y-15483491D02*
X11379741Y-15201509D01*
X11097759Y-15201509D01*
X11097759Y-15483491D01*
X11379741Y-15483491D01*
X10903491Y-7863491D02*
X10903491Y-7581509D01*
X10621509Y-7581509D01*
X10621509Y-7863491D01*
X10903491Y-7863491D01*
X35668491Y-11673491D02*
X35668491Y-11391509D01*
X35386509Y-11391509D01*
X35386509Y-11673491D01*
X35668491Y-11673491D01*
X16618491Y-9768491D02*
X16618491Y-9486509D01*
X16336509Y-9486509D01*
X16336509Y-9768491D01*
X16618491Y-9768491D01*
X39478491Y-7863491D02*
X39478491Y-7581509D01*
X39196509Y-7581509D01*
X39196509Y-7863491D01*
X39478491Y-7863491D01*
X20428491Y-9768491D02*
X20428491Y-9486509D01*
X20146509Y-9486509D01*
X20146509Y-9768491D01*
X20428491Y-9768491D01*
D12*
X5281428Y-19170714D02*
X5281428Y-18870714D01*
X5352857Y-18870714D01*
X5395714Y-18885000D01*
X5424286Y-18913572D01*
X5438571Y-18942143D01*
X5452857Y-18999286D01*
X5452857Y-19042143D01*
X5438571Y-19099286D01*
X5424286Y-19127857D01*
X5395714Y-19156429D01*
X5352857Y-19170714D01*
X5281428Y-19170714D01*
X5581428Y-19170714D02*
X5581428Y-18970714D01*
X5581428Y-19027857D02*
X5595714Y-18999286D01*
X5610000Y-18985000D01*
X5638571Y-18970714D01*
X5667143Y-18970714D01*
X5767143Y-19170714D02*
X5767143Y-18970714D01*
X5767143Y-18870714D02*
X5752857Y-18885000D01*
X5767143Y-18899286D01*
X5781428Y-18885000D01*
X5767143Y-18870714D01*
X5767143Y-18899286D01*
X5952857Y-19170714D02*
X5924286Y-19156429D01*
X5910000Y-19127857D01*
X5910000Y-18870714D01*
X6110000Y-19170714D02*
X6081428Y-19156429D01*
X6067143Y-19127857D01*
X6067143Y-18870714D01*
X6452857Y-19170714D02*
X6452857Y-18870714D01*
X6552857Y-19085000D01*
X6652857Y-18870714D01*
X6652857Y-19170714D01*
X6924286Y-19170714D02*
X6924286Y-19013572D01*
X6910000Y-18985000D01*
X6881428Y-18970714D01*
X6824286Y-18970714D01*
X6795714Y-18985000D01*
X6924286Y-19156429D02*
X6895714Y-19170714D01*
X6824286Y-19170714D01*
X6795714Y-19156429D01*
X6781428Y-19127857D01*
X6781428Y-19099286D01*
X6795714Y-19070714D01*
X6824286Y-19056429D01*
X6895714Y-19056429D01*
X6924286Y-19042143D01*
X7067143Y-18970714D02*
X7067143Y-19270714D01*
X7067143Y-18985000D02*
X7095714Y-18970714D01*
X7152857Y-18970714D01*
X7181428Y-18985000D01*
X7195714Y-18999286D01*
X7210000Y-19027857D01*
X7210000Y-19113572D01*
X7195714Y-19142143D01*
X7181428Y-19156429D01*
X7152857Y-19170714D01*
X7095714Y-19170714D01*
X7067143Y-19156429D01*
X7338571Y-19142143D02*
X7352857Y-19156429D01*
X7338571Y-19170714D01*
X7324286Y-19156429D01*
X7338571Y-19142143D01*
X7338571Y-19170714D01*
X7338571Y-18985000D02*
X7352857Y-18999286D01*
X7338571Y-19013572D01*
X7324286Y-18999286D01*
X7338571Y-18985000D01*
X7338571Y-19013572D01*
X4895000Y-19615000D02*
X4995000Y-19715000D01*
X4995000Y-19615000D02*
X4895000Y-19715000D01*
X5438571Y-19800714D02*
X5267143Y-19800714D01*
X5352857Y-19800714D02*
X5352857Y-19500714D01*
X5324286Y-19543572D01*
X5295714Y-19572143D01*
X5267143Y-19586429D01*
X5567143Y-19772143D02*
X5581428Y-19786429D01*
X5567143Y-19800714D01*
X5552857Y-19786429D01*
X5567143Y-19772143D01*
X5567143Y-19800714D01*
X5767143Y-19500714D02*
X5795714Y-19500714D01*
X5824286Y-19515000D01*
X5838571Y-19529286D01*
X5852857Y-19557857D01*
X5867143Y-19615000D01*
X5867143Y-19686429D01*
X5852857Y-19743572D01*
X5838571Y-19772143D01*
X5824286Y-19786429D01*
X5795714Y-19800714D01*
X5767143Y-19800714D01*
X5738571Y-19786429D01*
X5724286Y-19772143D01*
X5710000Y-19743572D01*
X5695714Y-19686429D01*
X5695714Y-19615000D01*
X5710000Y-19557857D01*
X5724286Y-19529286D01*
X5738571Y-19515000D01*
X5767143Y-19500714D01*
X6052857Y-19500714D02*
X6081428Y-19500714D01*
X6110000Y-19515000D01*
X6124286Y-19529286D01*
X6138571Y-19557857D01*
X6152857Y-19615000D01*
X6152857Y-19686429D01*
X6138571Y-19743572D01*
X6124286Y-19772143D01*
X6110000Y-19786429D01*
X6081428Y-19800714D01*
X6052857Y-19800714D01*
X6024286Y-19786429D01*
X6010000Y-19772143D01*
X5995714Y-19743572D01*
X5981428Y-19686429D01*
X5981428Y-19615000D01*
X5995714Y-19557857D01*
X6010000Y-19529286D01*
X6024286Y-19515000D01*
X6052857Y-19500714D01*
X6281428Y-19800714D02*
X6281428Y-19600714D01*
X6281428Y-19629286D02*
X6295714Y-19615000D01*
X6324286Y-19600714D01*
X6367143Y-19600714D01*
X6395714Y-19615000D01*
X6410000Y-19643572D01*
X6410000Y-19800714D01*
X6410000Y-19643572D02*
X6424286Y-19615000D01*
X6452857Y-19600714D01*
X6495714Y-19600714D01*
X6524286Y-19615000D01*
X6538571Y-19643572D01*
X6538571Y-19800714D01*
X6681428Y-19800714D02*
X6681428Y-19600714D01*
X6681428Y-19629286D02*
X6695714Y-19615000D01*
X6724286Y-19600714D01*
X6767143Y-19600714D01*
X6795714Y-19615000D01*
X6810000Y-19643572D01*
X6810000Y-19800714D01*
X6810000Y-19643572D02*
X6824286Y-19615000D01*
X6852857Y-19600714D01*
X6895714Y-19600714D01*
X6924286Y-19615000D01*
X6938571Y-19643572D01*
X6938571Y-19800714D01*
X7524286Y-19486429D02*
X7267143Y-19872143D01*
X7910000Y-19500714D02*
X7938571Y-19500714D01*
X7967143Y-19515000D01*
X7981428Y-19529286D01*
X7995714Y-19557857D01*
X8010000Y-19615000D01*
X8010000Y-19686429D01*
X7995714Y-19743572D01*
X7981428Y-19772143D01*
X7967143Y-19786429D01*
X7938571Y-19800714D01*
X7910000Y-19800714D01*
X7881428Y-19786429D01*
X7867143Y-19772143D01*
X7852857Y-19743572D01*
X7838571Y-19686429D01*
X7838571Y-19615000D01*
X7852857Y-19557857D01*
X7867143Y-19529286D01*
X7881428Y-19515000D01*
X7910000Y-19500714D01*
X8138571Y-19772143D02*
X8152857Y-19786429D01*
X8138571Y-19800714D01*
X8124286Y-19786429D01*
X8138571Y-19772143D01*
X8138571Y-19800714D01*
X8338571Y-19500714D02*
X8367143Y-19500714D01*
X8395714Y-19515000D01*
X8410000Y-19529286D01*
X8424286Y-19557857D01*
X8438571Y-19615000D01*
X8438571Y-19686429D01*
X8424286Y-19743572D01*
X8410000Y-19772143D01*
X8395714Y-19786429D01*
X8367143Y-19800714D01*
X8338571Y-19800714D01*
X8310000Y-19786429D01*
X8295714Y-19772143D01*
X8281428Y-19743572D01*
X8267143Y-19686429D01*
X8267143Y-19615000D01*
X8281428Y-19557857D01*
X8295714Y-19529286D01*
X8310000Y-19515000D01*
X8338571Y-19500714D01*
X8538571Y-19500714D02*
X8724286Y-19500714D01*
X8624286Y-19615000D01*
X8667143Y-19615000D01*
X8695714Y-19629286D01*
X8710000Y-19643572D01*
X8724286Y-19672143D01*
X8724286Y-19743572D01*
X8710000Y-19772143D01*
X8695714Y-19786429D01*
X8667143Y-19800714D01*
X8581428Y-19800714D01*
X8552857Y-19786429D01*
X8538571Y-19772143D01*
X8867143Y-19800714D02*
X8924286Y-19800714D01*
X8952857Y-19786429D01*
X8967143Y-19772143D01*
X8995714Y-19729286D01*
X9010000Y-19672143D01*
X9010000Y-19557857D01*
X8995714Y-19529286D01*
X8981428Y-19515000D01*
X8952857Y-19500714D01*
X8895714Y-19500714D01*
X8867143Y-19515000D01*
X8852857Y-19529286D01*
X8838571Y-19557857D01*
X8838571Y-19629286D01*
X8852857Y-19657857D01*
X8867143Y-19672143D01*
X8895714Y-19686429D01*
X8952857Y-19686429D01*
X8981428Y-19672143D01*
X8995714Y-19657857D01*
X9010000Y-19629286D01*
X9124286Y-19500714D02*
X9124286Y-19557857D01*
X9238571Y-19500714D02*
X9238571Y-19557857D01*
X9681428Y-19915000D02*
X9667143Y-19900714D01*
X9638571Y-19857857D01*
X9624286Y-19829286D01*
X9610000Y-19786429D01*
X9595714Y-19715000D01*
X9595714Y-19657857D01*
X9610000Y-19586429D01*
X9624286Y-19543572D01*
X9638571Y-19515000D01*
X9667143Y-19472143D01*
X9681428Y-19457857D01*
X9952857Y-19800714D02*
X9781428Y-19800714D01*
X9867143Y-19800714D02*
X9867143Y-19500714D01*
X9838571Y-19543572D01*
X9810000Y-19572143D01*
X9781428Y-19586429D01*
X10295714Y-19786429D02*
X10324286Y-19800714D01*
X10381428Y-19800714D01*
X10410000Y-19786429D01*
X10424286Y-19757857D01*
X10424286Y-19743572D01*
X10410000Y-19715000D01*
X10381428Y-19700714D01*
X10338571Y-19700714D01*
X10310000Y-19686429D01*
X10295714Y-19657857D01*
X10295714Y-19643572D01*
X10310000Y-19615000D01*
X10338571Y-19600714D01*
X10381428Y-19600714D01*
X10410000Y-19615000D01*
X10595714Y-19800714D02*
X10567143Y-19786429D01*
X10552857Y-19757857D01*
X10552857Y-19500714D01*
X10752857Y-19800714D02*
X10724286Y-19786429D01*
X10710000Y-19772143D01*
X10695714Y-19743572D01*
X10695714Y-19657857D01*
X10710000Y-19629286D01*
X10724286Y-19615000D01*
X10752857Y-19600714D01*
X10795714Y-19600714D01*
X10824286Y-19615000D01*
X10838571Y-19629286D01*
X10852857Y-19657857D01*
X10852857Y-19743572D01*
X10838571Y-19772143D01*
X10824286Y-19786429D01*
X10795714Y-19800714D01*
X10752857Y-19800714D01*
X10938571Y-19600714D02*
X11052857Y-19600714D01*
X10981428Y-19500714D02*
X10981428Y-19757857D01*
X10995714Y-19786429D01*
X11024286Y-19800714D01*
X11052857Y-19800714D01*
X11124286Y-19915000D02*
X11138571Y-19900714D01*
X11167143Y-19857857D01*
X11181428Y-19829286D01*
X11195714Y-19786429D01*
X11210000Y-19715000D01*
X11210000Y-19657857D01*
X11195714Y-19586429D01*
X11181428Y-19543572D01*
X11167143Y-19515000D01*
X11138571Y-19472143D01*
X11124286Y-19457857D01*
X11667143Y-19915000D02*
X11652857Y-19900714D01*
X11624286Y-19857857D01*
X11610000Y-19829286D01*
X11595714Y-19786429D01*
X11581428Y-19715000D01*
X11581428Y-19657857D01*
X11595714Y-19586429D01*
X11610000Y-19543572D01*
X11624286Y-19515000D01*
X11652857Y-19472143D01*
X11667143Y-19457857D01*
X11781428Y-19600714D02*
X11781428Y-19800714D01*
X11781428Y-19629286D02*
X11795714Y-19615000D01*
X11824286Y-19600714D01*
X11867143Y-19600714D01*
X11895714Y-19615000D01*
X11910000Y-19643572D01*
X11910000Y-19800714D01*
X12095714Y-19800714D02*
X12067143Y-19786429D01*
X12052857Y-19772143D01*
X12038571Y-19743572D01*
X12038571Y-19657857D01*
X12052857Y-19629286D01*
X12067143Y-19615000D01*
X12095714Y-19600714D01*
X12138571Y-19600714D01*
X12167143Y-19615000D01*
X12181428Y-19629286D01*
X12195714Y-19657857D01*
X12195714Y-19743572D01*
X12181428Y-19772143D01*
X12167143Y-19786429D01*
X12138571Y-19800714D01*
X12095714Y-19800714D01*
X12281428Y-19600714D02*
X12395714Y-19600714D01*
X12324286Y-19500714D02*
X12324286Y-19757857D01*
X12338571Y-19786429D01*
X12367143Y-19800714D01*
X12395714Y-19800714D01*
X12724286Y-19600714D02*
X12724286Y-19900714D01*
X12724286Y-19615000D02*
X12752857Y-19600714D01*
X12810000Y-19600714D01*
X12838571Y-19615000D01*
X12852857Y-19629286D01*
X12867143Y-19657857D01*
X12867143Y-19743572D01*
X12852857Y-19772143D01*
X12838571Y-19786429D01*
X12810000Y-19800714D01*
X12752857Y-19800714D01*
X12724286Y-19786429D01*
X13038571Y-19800714D02*
X13010000Y-19786429D01*
X12995714Y-19757857D01*
X12995714Y-19500714D01*
X13281428Y-19800714D02*
X13281428Y-19643572D01*
X13267143Y-19615000D01*
X13238571Y-19600714D01*
X13181428Y-19600714D01*
X13152857Y-19615000D01*
X13281428Y-19786429D02*
X13252857Y-19800714D01*
X13181428Y-19800714D01*
X13152857Y-19786429D01*
X13138571Y-19757857D01*
X13138571Y-19729286D01*
X13152857Y-19700714D01*
X13181428Y-19686429D01*
X13252857Y-19686429D01*
X13281428Y-19672143D01*
X13381428Y-19600714D02*
X13495714Y-19600714D01*
X13424286Y-19500714D02*
X13424286Y-19757857D01*
X13438571Y-19786429D01*
X13467143Y-19800714D01*
X13495714Y-19800714D01*
X13710000Y-19786429D02*
X13681428Y-19800714D01*
X13624286Y-19800714D01*
X13595714Y-19786429D01*
X13581428Y-19757857D01*
X13581428Y-19643572D01*
X13595714Y-19615000D01*
X13624286Y-19600714D01*
X13681428Y-19600714D01*
X13710000Y-19615000D01*
X13724286Y-19643572D01*
X13724286Y-19672143D01*
X13581428Y-19700714D01*
X13981428Y-19800714D02*
X13981428Y-19500714D01*
X13981428Y-19786429D02*
X13952857Y-19800714D01*
X13895714Y-19800714D01*
X13867143Y-19786429D01*
X13852857Y-19772143D01*
X13838571Y-19743572D01*
X13838571Y-19657857D01*
X13852857Y-19629286D01*
X13867143Y-19615000D01*
X13895714Y-19600714D01*
X13952857Y-19600714D01*
X13981428Y-19615000D01*
X14095714Y-19915000D02*
X14110000Y-19900714D01*
X14138571Y-19857857D01*
X14152857Y-19829286D01*
X14167143Y-19786429D01*
X14181428Y-19715000D01*
X14181428Y-19657857D01*
X14167143Y-19586429D01*
X14152857Y-19543572D01*
X14138571Y-19515000D01*
X14110000Y-19472143D01*
X14095714Y-19457857D01*
X4995000Y-20061000D02*
G75*
G03X4995000Y-20061000I-150000J0D01*
G01*
X5252857Y-19896714D02*
X5438571Y-19896714D01*
X5338571Y-20011000D01*
X5381428Y-20011000D01*
X5410000Y-20025286D01*
X5424286Y-20039572D01*
X5438571Y-20068143D01*
X5438571Y-20139572D01*
X5424286Y-20168143D01*
X5410000Y-20182429D01*
X5381428Y-20196714D01*
X5295714Y-20196714D01*
X5267143Y-20182429D01*
X5252857Y-20168143D01*
X5567143Y-20168143D02*
X5581428Y-20182429D01*
X5567143Y-20196714D01*
X5552857Y-20182429D01*
X5567143Y-20168143D01*
X5567143Y-20196714D01*
X5767143Y-19896714D02*
X5795714Y-19896714D01*
X5824286Y-19911000D01*
X5838571Y-19925286D01*
X5852857Y-19953857D01*
X5867143Y-20011000D01*
X5867143Y-20082429D01*
X5852857Y-20139572D01*
X5838571Y-20168143D01*
X5824286Y-20182429D01*
X5795714Y-20196714D01*
X5767143Y-20196714D01*
X5738571Y-20182429D01*
X5724286Y-20168143D01*
X5710000Y-20139572D01*
X5695714Y-20082429D01*
X5695714Y-20011000D01*
X5710000Y-19953857D01*
X5724286Y-19925286D01*
X5738571Y-19911000D01*
X5767143Y-19896714D01*
X6052857Y-19896714D02*
X6081428Y-19896714D01*
X6110000Y-19911000D01*
X6124286Y-19925286D01*
X6138571Y-19953857D01*
X6152857Y-20011000D01*
X6152857Y-20082429D01*
X6138571Y-20139572D01*
X6124286Y-20168143D01*
X6110000Y-20182429D01*
X6081428Y-20196714D01*
X6052857Y-20196714D01*
X6024286Y-20182429D01*
X6010000Y-20168143D01*
X5995714Y-20139572D01*
X5981428Y-20082429D01*
X5981428Y-20011000D01*
X5995714Y-19953857D01*
X6010000Y-19925286D01*
X6024286Y-19911000D01*
X6052857Y-19896714D01*
X6281428Y-20196714D02*
X6281428Y-19996714D01*
X6281428Y-20025286D02*
X6295714Y-20011000D01*
X6324286Y-19996714D01*
X6367143Y-19996714D01*
X6395714Y-20011000D01*
X6410000Y-20039572D01*
X6410000Y-20196714D01*
X6410000Y-20039572D02*
X6424286Y-20011000D01*
X6452857Y-19996714D01*
X6495714Y-19996714D01*
X6524286Y-20011000D01*
X6538571Y-20039572D01*
X6538571Y-20196714D01*
X6681428Y-20196714D02*
X6681428Y-19996714D01*
X6681428Y-20025286D02*
X6695714Y-20011000D01*
X6724286Y-19996714D01*
X6767143Y-19996714D01*
X6795714Y-20011000D01*
X6810000Y-20039572D01*
X6810000Y-20196714D01*
X6810000Y-20039572D02*
X6824286Y-20011000D01*
X6852857Y-19996714D01*
X6895714Y-19996714D01*
X6924286Y-20011000D01*
X6938571Y-20039572D01*
X6938571Y-20196714D01*
X7524286Y-19882429D02*
X7267143Y-20268143D01*
X7910000Y-19896714D02*
X7938571Y-19896714D01*
X7967143Y-19911000D01*
X7981428Y-19925286D01*
X7995714Y-19953857D01*
X8010000Y-20011000D01*
X8010000Y-20082429D01*
X7995714Y-20139572D01*
X7981428Y-20168143D01*
X7967143Y-20182429D01*
X7938571Y-20196714D01*
X7910000Y-20196714D01*
X7881428Y-20182429D01*
X7867143Y-20168143D01*
X7852857Y-20139572D01*
X7838571Y-20082429D01*
X7838571Y-20011000D01*
X7852857Y-19953857D01*
X7867143Y-19925286D01*
X7881428Y-19911000D01*
X7910000Y-19896714D01*
X8138571Y-20168143D02*
X8152857Y-20182429D01*
X8138571Y-20196714D01*
X8124286Y-20182429D01*
X8138571Y-20168143D01*
X8138571Y-20196714D01*
X8438571Y-20196714D02*
X8267143Y-20196714D01*
X8352857Y-20196714D02*
X8352857Y-19896714D01*
X8324286Y-19939572D01*
X8295714Y-19968143D01*
X8267143Y-19982429D01*
X8724286Y-20196714D02*
X8552857Y-20196714D01*
X8638571Y-20196714D02*
X8638571Y-19896714D01*
X8610000Y-19939572D01*
X8581428Y-19968143D01*
X8552857Y-19982429D01*
X8895714Y-20025286D02*
X8867143Y-20011000D01*
X8852857Y-19996714D01*
X8838571Y-19968143D01*
X8838571Y-19953857D01*
X8852857Y-19925286D01*
X8867143Y-19911000D01*
X8895714Y-19896714D01*
X8952857Y-19896714D01*
X8981428Y-19911000D01*
X8995714Y-19925286D01*
X9010000Y-19953857D01*
X9010000Y-19968143D01*
X8995714Y-19996714D01*
X8981428Y-20011000D01*
X8952857Y-20025286D01*
X8895714Y-20025286D01*
X8867143Y-20039572D01*
X8852857Y-20053857D01*
X8838571Y-20082429D01*
X8838571Y-20139572D01*
X8852857Y-20168143D01*
X8867143Y-20182429D01*
X8895714Y-20196714D01*
X8952857Y-20196714D01*
X8981428Y-20182429D01*
X8995714Y-20168143D01*
X9010000Y-20139572D01*
X9010000Y-20082429D01*
X8995714Y-20053857D01*
X8981428Y-20039572D01*
X8952857Y-20025286D01*
X9124286Y-19896714D02*
X9124286Y-19953857D01*
X9238571Y-19896714D02*
X9238571Y-19953857D01*
X9681428Y-20311000D02*
X9667143Y-20296714D01*
X9638571Y-20253857D01*
X9624286Y-20225286D01*
X9610000Y-20182429D01*
X9595714Y-20111000D01*
X9595714Y-20053857D01*
X9610000Y-19982429D01*
X9624286Y-19939572D01*
X9638571Y-19911000D01*
X9667143Y-19868143D01*
X9681428Y-19853857D01*
X9838571Y-20025286D02*
X9810000Y-20011000D01*
X9795714Y-19996714D01*
X9781428Y-19968143D01*
X9781428Y-19953857D01*
X9795714Y-19925286D01*
X9810000Y-19911000D01*
X9838571Y-19896714D01*
X9895714Y-19896714D01*
X9924286Y-19911000D01*
X9938571Y-19925286D01*
X9952857Y-19953857D01*
X9952857Y-19968143D01*
X9938571Y-19996714D01*
X9924286Y-20011000D01*
X9895714Y-20025286D01*
X9838571Y-20025286D01*
X9810000Y-20039572D01*
X9795714Y-20053857D01*
X9781428Y-20082429D01*
X9781428Y-20139572D01*
X9795714Y-20168143D01*
X9810000Y-20182429D01*
X9838571Y-20196714D01*
X9895714Y-20196714D01*
X9924286Y-20182429D01*
X9938571Y-20168143D01*
X9952857Y-20139572D01*
X9952857Y-20082429D01*
X9938571Y-20053857D01*
X9924286Y-20039572D01*
X9895714Y-20025286D01*
X10310000Y-20196714D02*
X10310000Y-19896714D01*
X10438571Y-20196714D02*
X10438571Y-20039572D01*
X10424286Y-20011000D01*
X10395714Y-19996714D01*
X10352857Y-19996714D01*
X10324286Y-20011000D01*
X10310000Y-20025286D01*
X10624286Y-20196714D02*
X10595714Y-20182429D01*
X10581428Y-20168143D01*
X10567143Y-20139572D01*
X10567143Y-20053857D01*
X10581428Y-20025286D01*
X10595714Y-20011000D01*
X10624286Y-19996714D01*
X10667143Y-19996714D01*
X10695714Y-20011000D01*
X10710000Y-20025286D01*
X10724286Y-20053857D01*
X10724286Y-20139572D01*
X10710000Y-20168143D01*
X10695714Y-20182429D01*
X10667143Y-20196714D01*
X10624286Y-20196714D01*
X10895714Y-20196714D02*
X10867143Y-20182429D01*
X10852857Y-20153857D01*
X10852857Y-19896714D01*
X11124286Y-20182429D02*
X11095714Y-20196714D01*
X11038571Y-20196714D01*
X11010000Y-20182429D01*
X10995714Y-20153857D01*
X10995714Y-20039572D01*
X11010000Y-20011000D01*
X11038571Y-19996714D01*
X11095714Y-19996714D01*
X11124286Y-20011000D01*
X11138571Y-20039572D01*
X11138571Y-20068143D01*
X10995714Y-20096714D01*
X11252857Y-20182429D02*
X11281428Y-20196714D01*
X11338571Y-20196714D01*
X11367143Y-20182429D01*
X11381428Y-20153857D01*
X11381428Y-20139572D01*
X11367143Y-20111000D01*
X11338571Y-20096714D01*
X11295714Y-20096714D01*
X11267143Y-20082429D01*
X11252857Y-20053857D01*
X11252857Y-20039572D01*
X11267143Y-20011000D01*
X11295714Y-19996714D01*
X11338571Y-19996714D01*
X11367143Y-20011000D01*
X11481428Y-20311000D02*
X11495714Y-20296714D01*
X11524286Y-20253857D01*
X11538571Y-20225286D01*
X11552857Y-20182429D01*
X11567143Y-20111000D01*
X11567143Y-20053857D01*
X11552857Y-19982429D01*
X11538571Y-19939572D01*
X11524286Y-19911000D01*
X11495714Y-19868143D01*
X11481428Y-19853857D01*
X12024286Y-20311000D02*
X12010000Y-20296714D01*
X11981428Y-20253857D01*
X11967143Y-20225286D01*
X11952857Y-20182429D01*
X11938571Y-20111000D01*
X11938571Y-20053857D01*
X11952857Y-19982429D01*
X11967143Y-19939572D01*
X11981428Y-19911000D01*
X12010000Y-19868143D01*
X12024286Y-19853857D01*
X12138571Y-19996714D02*
X12138571Y-20196714D01*
X12138571Y-20025286D02*
X12152857Y-20011000D01*
X12181428Y-19996714D01*
X12224286Y-19996714D01*
X12252857Y-20011000D01*
X12267143Y-20039572D01*
X12267143Y-20196714D01*
X12452857Y-20196714D02*
X12424286Y-20182429D01*
X12410000Y-20168143D01*
X12395714Y-20139572D01*
X12395714Y-20053857D01*
X12410000Y-20025286D01*
X12424286Y-20011000D01*
X12452857Y-19996714D01*
X12495714Y-19996714D01*
X12524286Y-20011000D01*
X12538571Y-20025286D01*
X12552857Y-20053857D01*
X12552857Y-20139572D01*
X12538571Y-20168143D01*
X12524286Y-20182429D01*
X12495714Y-20196714D01*
X12452857Y-20196714D01*
X12638571Y-19996714D02*
X12752857Y-19996714D01*
X12681428Y-19896714D02*
X12681428Y-20153857D01*
X12695714Y-20182429D01*
X12724286Y-20196714D01*
X12752857Y-20196714D01*
X13081428Y-19996714D02*
X13081428Y-20296714D01*
X13081428Y-20011000D02*
X13110000Y-19996714D01*
X13167143Y-19996714D01*
X13195714Y-20011000D01*
X13210000Y-20025286D01*
X13224286Y-20053857D01*
X13224286Y-20139572D01*
X13210000Y-20168143D01*
X13195714Y-20182429D01*
X13167143Y-20196714D01*
X13110000Y-20196714D01*
X13081428Y-20182429D01*
X13395714Y-20196714D02*
X13367143Y-20182429D01*
X13352857Y-20153857D01*
X13352857Y-19896714D01*
X13638571Y-20196714D02*
X13638571Y-20039572D01*
X13624286Y-20011000D01*
X13595714Y-19996714D01*
X13538571Y-19996714D01*
X13510000Y-20011000D01*
X13638571Y-20182429D02*
X13610000Y-20196714D01*
X13538571Y-20196714D01*
X13510000Y-20182429D01*
X13495714Y-20153857D01*
X13495714Y-20125286D01*
X13510000Y-20096714D01*
X13538571Y-20082429D01*
X13610000Y-20082429D01*
X13638571Y-20068143D01*
X13738571Y-19996714D02*
X13852857Y-19996714D01*
X13781428Y-19896714D02*
X13781428Y-20153857D01*
X13795714Y-20182429D01*
X13824286Y-20196714D01*
X13852857Y-20196714D01*
X14067143Y-20182429D02*
X14038571Y-20196714D01*
X13981428Y-20196714D01*
X13952857Y-20182429D01*
X13938571Y-20153857D01*
X13938571Y-20039572D01*
X13952857Y-20011000D01*
X13981428Y-19996714D01*
X14038571Y-19996714D01*
X14067143Y-20011000D01*
X14081428Y-20039572D01*
X14081428Y-20068143D01*
X13938571Y-20096714D01*
X14338571Y-20196714D02*
X14338571Y-19896714D01*
X14338571Y-20182429D02*
X14310000Y-20196714D01*
X14252857Y-20196714D01*
X14224286Y-20182429D01*
X14210000Y-20168143D01*
X14195714Y-20139572D01*
X14195714Y-20053857D01*
X14210000Y-20025286D01*
X14224286Y-20011000D01*
X14252857Y-19996714D01*
X14310000Y-19996714D01*
X14338571Y-20011000D01*
X14452857Y-20311000D02*
X14467143Y-20296714D01*
X14495714Y-20253857D01*
X14510000Y-20225286D01*
X14524286Y-20182429D01*
X14538571Y-20111000D01*
X14538571Y-20053857D01*
X14524286Y-19982429D01*
X14510000Y-19939572D01*
X14495714Y-19911000D01*
X14467143Y-19868143D01*
X14452857Y-19853857D01*
X4842600Y-20338600D02*
X4842600Y-20643400D01*
X4690200Y-20491000D02*
X4995000Y-20491000D01*
X5252857Y-20326714D02*
X5438571Y-20326714D01*
X5338571Y-20441000D01*
X5381428Y-20441000D01*
X5410000Y-20455286D01*
X5424286Y-20469572D01*
X5438571Y-20498143D01*
X5438571Y-20569572D01*
X5424286Y-20598143D01*
X5410000Y-20612429D01*
X5381428Y-20626714D01*
X5295714Y-20626714D01*
X5267143Y-20612429D01*
X5252857Y-20598143D01*
X5567143Y-20598143D02*
X5581428Y-20612429D01*
X5567143Y-20626714D01*
X5552857Y-20612429D01*
X5567143Y-20598143D01*
X5567143Y-20626714D01*
X5767143Y-20326714D02*
X5795714Y-20326714D01*
X5824286Y-20341000D01*
X5838571Y-20355286D01*
X5852857Y-20383857D01*
X5867143Y-20441000D01*
X5867143Y-20512429D01*
X5852857Y-20569572D01*
X5838571Y-20598143D01*
X5824286Y-20612429D01*
X5795714Y-20626714D01*
X5767143Y-20626714D01*
X5738571Y-20612429D01*
X5724286Y-20598143D01*
X5710000Y-20569572D01*
X5695714Y-20512429D01*
X5695714Y-20441000D01*
X5710000Y-20383857D01*
X5724286Y-20355286D01*
X5738571Y-20341000D01*
X5767143Y-20326714D01*
X6138571Y-20326714D02*
X5995714Y-20326714D01*
X5981428Y-20469572D01*
X5995714Y-20455286D01*
X6024286Y-20441000D01*
X6095714Y-20441000D01*
X6124286Y-20455286D01*
X6138571Y-20469572D01*
X6152857Y-20498143D01*
X6152857Y-20569572D01*
X6138571Y-20598143D01*
X6124286Y-20612429D01*
X6095714Y-20626714D01*
X6024286Y-20626714D01*
X5995714Y-20612429D01*
X5981428Y-20598143D01*
X6281428Y-20626714D02*
X6281428Y-20426714D01*
X6281428Y-20455286D02*
X6295714Y-20441000D01*
X6324286Y-20426714D01*
X6367143Y-20426714D01*
X6395714Y-20441000D01*
X6410000Y-20469572D01*
X6410000Y-20626714D01*
X6410000Y-20469572D02*
X6424286Y-20441000D01*
X6452857Y-20426714D01*
X6495714Y-20426714D01*
X6524286Y-20441000D01*
X6538571Y-20469572D01*
X6538571Y-20626714D01*
X6681428Y-20626714D02*
X6681428Y-20426714D01*
X6681428Y-20455286D02*
X6695714Y-20441000D01*
X6724286Y-20426714D01*
X6767143Y-20426714D01*
X6795714Y-20441000D01*
X6810000Y-20469572D01*
X6810000Y-20626714D01*
X6810000Y-20469572D02*
X6824286Y-20441000D01*
X6852857Y-20426714D01*
X6895714Y-20426714D01*
X6924286Y-20441000D01*
X6938571Y-20469572D01*
X6938571Y-20626714D01*
X7524286Y-20312429D02*
X7267143Y-20698143D01*
X7910000Y-20326714D02*
X7938571Y-20326714D01*
X7967143Y-20341000D01*
X7981428Y-20355286D01*
X7995714Y-20383857D01*
X8010000Y-20441000D01*
X8010000Y-20512429D01*
X7995714Y-20569572D01*
X7981428Y-20598143D01*
X7967143Y-20612429D01*
X7938571Y-20626714D01*
X7910000Y-20626714D01*
X7881428Y-20612429D01*
X7867143Y-20598143D01*
X7852857Y-20569572D01*
X7838571Y-20512429D01*
X7838571Y-20441000D01*
X7852857Y-20383857D01*
X7867143Y-20355286D01*
X7881428Y-20341000D01*
X7910000Y-20326714D01*
X8138571Y-20598143D02*
X8152857Y-20612429D01*
X8138571Y-20626714D01*
X8124286Y-20612429D01*
X8138571Y-20598143D01*
X8138571Y-20626714D01*
X8438571Y-20626714D02*
X8267143Y-20626714D01*
X8352857Y-20626714D02*
X8352857Y-20326714D01*
X8324286Y-20369572D01*
X8295714Y-20398143D01*
X8267143Y-20412429D01*
X8552857Y-20355286D02*
X8567143Y-20341000D01*
X8595714Y-20326714D01*
X8667143Y-20326714D01*
X8695714Y-20341000D01*
X8710000Y-20355286D01*
X8724286Y-20383857D01*
X8724286Y-20412429D01*
X8710000Y-20455286D01*
X8538571Y-20626714D01*
X8724286Y-20626714D01*
X8910000Y-20326714D02*
X8938571Y-20326714D01*
X8967143Y-20341000D01*
X8981428Y-20355286D01*
X8995714Y-20383857D01*
X9010000Y-20441000D01*
X9010000Y-20512429D01*
X8995714Y-20569572D01*
X8981428Y-20598143D01*
X8967143Y-20612429D01*
X8938571Y-20626714D01*
X8910000Y-20626714D01*
X8881428Y-20612429D01*
X8867143Y-20598143D01*
X8852857Y-20569572D01*
X8838571Y-20512429D01*
X8838571Y-20441000D01*
X8852857Y-20383857D01*
X8867143Y-20355286D01*
X8881428Y-20341000D01*
X8910000Y-20326714D01*
X9124286Y-20326714D02*
X9124286Y-20383857D01*
X9238571Y-20326714D02*
X9238571Y-20383857D01*
X9681428Y-20741000D02*
X9667143Y-20726714D01*
X9638571Y-20683857D01*
X9624286Y-20655286D01*
X9610000Y-20612429D01*
X9595714Y-20541000D01*
X9595714Y-20483857D01*
X9610000Y-20412429D01*
X9624286Y-20369572D01*
X9638571Y-20341000D01*
X9667143Y-20298143D01*
X9681428Y-20283857D01*
X9838571Y-20455286D02*
X9810000Y-20441000D01*
X9795714Y-20426714D01*
X9781428Y-20398143D01*
X9781428Y-20383857D01*
X9795714Y-20355286D01*
X9810000Y-20341000D01*
X9838571Y-20326714D01*
X9895714Y-20326714D01*
X9924286Y-20341000D01*
X9938571Y-20355286D01*
X9952857Y-20383857D01*
X9952857Y-20398143D01*
X9938571Y-20426714D01*
X9924286Y-20441000D01*
X9895714Y-20455286D01*
X9838571Y-20455286D01*
X9810000Y-20469572D01*
X9795714Y-20483857D01*
X9781428Y-20512429D01*
X9781428Y-20569572D01*
X9795714Y-20598143D01*
X9810000Y-20612429D01*
X9838571Y-20626714D01*
X9895714Y-20626714D01*
X9924286Y-20612429D01*
X9938571Y-20598143D01*
X9952857Y-20569572D01*
X9952857Y-20512429D01*
X9938571Y-20483857D01*
X9924286Y-20469572D01*
X9895714Y-20455286D01*
X10310000Y-20626714D02*
X10310000Y-20326714D01*
X10438571Y-20626714D02*
X10438571Y-20469572D01*
X10424286Y-20441000D01*
X10395714Y-20426714D01*
X10352857Y-20426714D01*
X10324286Y-20441000D01*
X10310000Y-20455286D01*
X10624286Y-20626714D02*
X10595714Y-20612429D01*
X10581428Y-20598143D01*
X10567143Y-20569572D01*
X10567143Y-20483857D01*
X10581428Y-20455286D01*
X10595714Y-20441000D01*
X10624286Y-20426714D01*
X10667143Y-20426714D01*
X10695714Y-20441000D01*
X10710000Y-20455286D01*
X10724286Y-20483857D01*
X10724286Y-20569572D01*
X10710000Y-20598143D01*
X10695714Y-20612429D01*
X10667143Y-20626714D01*
X10624286Y-20626714D01*
X10895714Y-20626714D02*
X10867143Y-20612429D01*
X10852857Y-20583857D01*
X10852857Y-20326714D01*
X11124286Y-20612429D02*
X11095714Y-20626714D01*
X11038571Y-20626714D01*
X11010000Y-20612429D01*
X10995714Y-20583857D01*
X10995714Y-20469572D01*
X11010000Y-20441000D01*
X11038571Y-20426714D01*
X11095714Y-20426714D01*
X11124286Y-20441000D01*
X11138571Y-20469572D01*
X11138571Y-20498143D01*
X10995714Y-20526714D01*
X11252857Y-20612429D02*
X11281428Y-20626714D01*
X11338571Y-20626714D01*
X11367143Y-20612429D01*
X11381428Y-20583857D01*
X11381428Y-20569572D01*
X11367143Y-20541000D01*
X11338571Y-20526714D01*
X11295714Y-20526714D01*
X11267143Y-20512429D01*
X11252857Y-20483857D01*
X11252857Y-20469572D01*
X11267143Y-20441000D01*
X11295714Y-20426714D01*
X11338571Y-20426714D01*
X11367143Y-20441000D01*
X11481428Y-20741000D02*
X11495714Y-20726714D01*
X11524286Y-20683857D01*
X11538571Y-20655286D01*
X11552857Y-20612429D01*
X11567143Y-20541000D01*
X11567143Y-20483857D01*
X11552857Y-20412429D01*
X11538571Y-20369572D01*
X11524286Y-20341000D01*
X11495714Y-20298143D01*
X11481428Y-20283857D01*
X12024286Y-20741000D02*
X12010000Y-20726714D01*
X11981428Y-20683857D01*
X11967143Y-20655286D01*
X11952857Y-20612429D01*
X11938571Y-20541000D01*
X11938571Y-20483857D01*
X11952857Y-20412429D01*
X11967143Y-20369572D01*
X11981428Y-20341000D01*
X12010000Y-20298143D01*
X12024286Y-20283857D01*
X12138571Y-20426714D02*
X12138571Y-20626714D01*
X12138571Y-20455286D02*
X12152857Y-20441000D01*
X12181428Y-20426714D01*
X12224286Y-20426714D01*
X12252857Y-20441000D01*
X12267143Y-20469572D01*
X12267143Y-20626714D01*
X12452857Y-20626714D02*
X12424286Y-20612429D01*
X12410000Y-20598143D01*
X12395714Y-20569572D01*
X12395714Y-20483857D01*
X12410000Y-20455286D01*
X12424286Y-20441000D01*
X12452857Y-20426714D01*
X12495714Y-20426714D01*
X12524286Y-20441000D01*
X12538571Y-20455286D01*
X12552857Y-20483857D01*
X12552857Y-20569572D01*
X12538571Y-20598143D01*
X12524286Y-20612429D01*
X12495714Y-20626714D01*
X12452857Y-20626714D01*
X12638571Y-20426714D02*
X12752857Y-20426714D01*
X12681428Y-20326714D02*
X12681428Y-20583857D01*
X12695714Y-20612429D01*
X12724286Y-20626714D01*
X12752857Y-20626714D01*
X13081428Y-20426714D02*
X13081428Y-20726714D01*
X13081428Y-20441000D02*
X13110000Y-20426714D01*
X13167143Y-20426714D01*
X13195714Y-20441000D01*
X13210000Y-20455286D01*
X13224286Y-20483857D01*
X13224286Y-20569572D01*
X13210000Y-20598143D01*
X13195714Y-20612429D01*
X13167143Y-20626714D01*
X13110000Y-20626714D01*
X13081428Y-20612429D01*
X13395714Y-20626714D02*
X13367143Y-20612429D01*
X13352857Y-20583857D01*
X13352857Y-20326714D01*
X13638571Y-20626714D02*
X13638571Y-20469572D01*
X13624286Y-20441000D01*
X13595714Y-20426714D01*
X13538571Y-20426714D01*
X13510000Y-20441000D01*
X13638571Y-20612429D02*
X13610000Y-20626714D01*
X13538571Y-20626714D01*
X13510000Y-20612429D01*
X13495714Y-20583857D01*
X13495714Y-20555286D01*
X13510000Y-20526714D01*
X13538571Y-20512429D01*
X13610000Y-20512429D01*
X13638571Y-20498143D01*
X13738571Y-20426714D02*
X13852857Y-20426714D01*
X13781428Y-20326714D02*
X13781428Y-20583857D01*
X13795714Y-20612429D01*
X13824286Y-20626714D01*
X13852857Y-20626714D01*
X14067143Y-20612429D02*
X14038571Y-20626714D01*
X13981428Y-20626714D01*
X13952857Y-20612429D01*
X13938571Y-20583857D01*
X13938571Y-20469572D01*
X13952857Y-20441000D01*
X13981428Y-20426714D01*
X14038571Y-20426714D01*
X14067143Y-20441000D01*
X14081428Y-20469572D01*
X14081428Y-20498143D01*
X13938571Y-20526714D01*
X14338571Y-20626714D02*
X14338571Y-20326714D01*
X14338571Y-20612429D02*
X14310000Y-20626714D01*
X14252857Y-20626714D01*
X14224286Y-20612429D01*
X14210000Y-20598143D01*
X14195714Y-20569572D01*
X14195714Y-20483857D01*
X14210000Y-20455286D01*
X14224286Y-20441000D01*
X14252857Y-20426714D01*
X14310000Y-20426714D01*
X14338571Y-20441000D01*
X14452857Y-20741000D02*
X14467143Y-20726714D01*
X14495714Y-20683857D01*
X14510000Y-20655286D01*
X14524286Y-20612429D01*
X14538571Y-20541000D01*
X14538571Y-20483857D01*
X14524286Y-20412429D01*
X14510000Y-20369572D01*
X14495714Y-20341000D01*
X14467143Y-20298143D01*
X14452857Y-20283857D01*
X4936601Y-21066792D02*
X4936601Y-20784809D01*
X4654619Y-20784809D01*
X4654619Y-21066792D01*
X4936601Y-21066792D01*
X5252857Y-20761514D02*
X5438571Y-20761514D01*
X5338571Y-20875800D01*
X5381428Y-20875800D01*
X5410000Y-20890086D01*
X5424286Y-20904372D01*
X5438571Y-20932943D01*
X5438571Y-21004372D01*
X5424286Y-21032943D01*
X5410000Y-21047229D01*
X5381428Y-21061514D01*
X5295714Y-21061514D01*
X5267143Y-21047229D01*
X5252857Y-21032943D01*
X5567143Y-21032943D02*
X5581428Y-21047229D01*
X5567143Y-21061514D01*
X5552857Y-21047229D01*
X5567143Y-21032943D01*
X5567143Y-21061514D01*
X5724286Y-21061514D02*
X5781428Y-21061514D01*
X5810000Y-21047229D01*
X5824286Y-21032943D01*
X5852857Y-20990086D01*
X5867143Y-20932943D01*
X5867143Y-20818657D01*
X5852857Y-20790086D01*
X5838571Y-20775800D01*
X5810000Y-20761514D01*
X5752857Y-20761514D01*
X5724286Y-20775800D01*
X5710000Y-20790086D01*
X5695714Y-20818657D01*
X5695714Y-20890086D01*
X5710000Y-20918657D01*
X5724286Y-20932943D01*
X5752857Y-20947229D01*
X5810000Y-20947229D01*
X5838571Y-20932943D01*
X5852857Y-20918657D01*
X5867143Y-20890086D01*
X6010000Y-21061514D02*
X6067143Y-21061514D01*
X6095714Y-21047229D01*
X6110000Y-21032943D01*
X6138571Y-20990086D01*
X6152857Y-20932943D01*
X6152857Y-20818657D01*
X6138571Y-20790086D01*
X6124286Y-20775800D01*
X6095714Y-20761514D01*
X6038571Y-20761514D01*
X6010000Y-20775800D01*
X5995714Y-20790086D01*
X5981428Y-20818657D01*
X5981428Y-20890086D01*
X5995714Y-20918657D01*
X6010000Y-20932943D01*
X6038571Y-20947229D01*
X6095714Y-20947229D01*
X6124286Y-20932943D01*
X6138571Y-20918657D01*
X6152857Y-20890086D01*
X6281428Y-21061514D02*
X6281428Y-20861514D01*
X6281428Y-20890086D02*
X6295714Y-20875800D01*
X6324286Y-20861514D01*
X6367143Y-20861514D01*
X6395714Y-20875800D01*
X6410000Y-20904372D01*
X6410000Y-21061514D01*
X6410000Y-20904372D02*
X6424286Y-20875800D01*
X6452857Y-20861514D01*
X6495714Y-20861514D01*
X6524286Y-20875800D01*
X6538571Y-20904372D01*
X6538571Y-21061514D01*
X6681428Y-21061514D02*
X6681428Y-20861514D01*
X6681428Y-20890086D02*
X6695714Y-20875800D01*
X6724286Y-20861514D01*
X6767143Y-20861514D01*
X6795714Y-20875800D01*
X6810000Y-20904372D01*
X6810000Y-21061514D01*
X6810000Y-20904372D02*
X6824286Y-20875800D01*
X6852857Y-20861514D01*
X6895714Y-20861514D01*
X6924286Y-20875800D01*
X6938571Y-20904372D01*
X6938571Y-21061514D01*
X7524286Y-20747229D02*
X7267143Y-21132943D01*
X7910000Y-20761514D02*
X7938571Y-20761514D01*
X7967143Y-20775800D01*
X7981428Y-20790086D01*
X7995714Y-20818657D01*
X8010000Y-20875800D01*
X8010000Y-20947229D01*
X7995714Y-21004372D01*
X7981428Y-21032943D01*
X7967143Y-21047229D01*
X7938571Y-21061514D01*
X7910000Y-21061514D01*
X7881428Y-21047229D01*
X7867143Y-21032943D01*
X7852857Y-21004372D01*
X7838571Y-20947229D01*
X7838571Y-20875800D01*
X7852857Y-20818657D01*
X7867143Y-20790086D01*
X7881428Y-20775800D01*
X7910000Y-20761514D01*
X8138571Y-21032943D02*
X8152857Y-21047229D01*
X8138571Y-21061514D01*
X8124286Y-21047229D01*
X8138571Y-21032943D01*
X8138571Y-21061514D01*
X8438571Y-21061514D02*
X8267143Y-21061514D01*
X8352857Y-21061514D02*
X8352857Y-20761514D01*
X8324286Y-20804372D01*
X8295714Y-20832943D01*
X8267143Y-20847229D01*
X8710000Y-20761514D02*
X8567143Y-20761514D01*
X8552857Y-20904372D01*
X8567143Y-20890086D01*
X8595714Y-20875800D01*
X8667143Y-20875800D01*
X8695714Y-20890086D01*
X8710000Y-20904372D01*
X8724286Y-20932943D01*
X8724286Y-21004372D01*
X8710000Y-21032943D01*
X8695714Y-21047229D01*
X8667143Y-21061514D01*
X8595714Y-21061514D01*
X8567143Y-21047229D01*
X8552857Y-21032943D01*
X8824286Y-20761514D02*
X9024286Y-20761514D01*
X8895714Y-21061514D01*
X9124286Y-20761514D02*
X9124286Y-20818657D01*
X9238571Y-20761514D02*
X9238571Y-20818657D01*
X9681428Y-21175800D02*
X9667143Y-21161514D01*
X9638571Y-21118657D01*
X9624286Y-21090086D01*
X9610000Y-21047229D01*
X9595714Y-20975800D01*
X9595714Y-20918657D01*
X9610000Y-20847229D01*
X9624286Y-20804372D01*
X9638571Y-20775800D01*
X9667143Y-20732943D01*
X9681428Y-20718657D01*
X9952857Y-21061514D02*
X9781428Y-21061514D01*
X9867143Y-21061514D02*
X9867143Y-20761514D01*
X9838571Y-20804372D01*
X9810000Y-20832943D01*
X9781428Y-20847229D01*
X10138571Y-20761514D02*
X10167143Y-20761514D01*
X10195714Y-20775800D01*
X10210000Y-20790086D01*
X10224286Y-20818657D01*
X10238571Y-20875800D01*
X10238571Y-20947229D01*
X10224286Y-21004372D01*
X10210000Y-21032943D01*
X10195714Y-21047229D01*
X10167143Y-21061514D01*
X10138571Y-21061514D01*
X10110000Y-21047229D01*
X10095714Y-21032943D01*
X10081428Y-21004372D01*
X10067143Y-20947229D01*
X10067143Y-20875800D01*
X10081428Y-20818657D01*
X10095714Y-20790086D01*
X10110000Y-20775800D01*
X10138571Y-20761514D01*
X10338571Y-20761514D02*
X10538571Y-20761514D01*
X10410000Y-21061514D01*
X10881428Y-21061514D02*
X10881428Y-20761514D01*
X11010000Y-21061514D02*
X11010000Y-20904372D01*
X10995714Y-20875800D01*
X10967143Y-20861514D01*
X10924286Y-20861514D01*
X10895714Y-20875800D01*
X10881428Y-20890086D01*
X11195714Y-21061514D02*
X11167143Y-21047229D01*
X11152857Y-21032943D01*
X11138571Y-21004372D01*
X11138571Y-20918657D01*
X11152857Y-20890086D01*
X11167143Y-20875800D01*
X11195714Y-20861514D01*
X11238571Y-20861514D01*
X11267143Y-20875800D01*
X11281428Y-20890086D01*
X11295714Y-20918657D01*
X11295714Y-21004372D01*
X11281428Y-21032943D01*
X11267143Y-21047229D01*
X11238571Y-21061514D01*
X11195714Y-21061514D01*
X11467143Y-21061514D02*
X11438571Y-21047229D01*
X11424286Y-21018657D01*
X11424286Y-20761514D01*
X11695714Y-21047229D02*
X11667143Y-21061514D01*
X11610000Y-21061514D01*
X11581428Y-21047229D01*
X11567143Y-21018657D01*
X11567143Y-20904372D01*
X11581428Y-20875800D01*
X11610000Y-20861514D01*
X11667143Y-20861514D01*
X11695714Y-20875800D01*
X11710000Y-20904372D01*
X11710000Y-20932943D01*
X11567143Y-20961514D01*
X11824286Y-21047229D02*
X11852857Y-21061514D01*
X11910000Y-21061514D01*
X11938571Y-21047229D01*
X11952857Y-21018657D01*
X11952857Y-21004372D01*
X11938571Y-20975800D01*
X11910000Y-20961514D01*
X11867143Y-20961514D01*
X11838571Y-20947229D01*
X11824286Y-20918657D01*
X11824286Y-20904372D01*
X11838571Y-20875800D01*
X11867143Y-20861514D01*
X11910000Y-20861514D01*
X11938571Y-20875800D01*
X12052857Y-21175800D02*
X12067143Y-21161514D01*
X12095714Y-21118657D01*
X12110000Y-21090086D01*
X12124286Y-21047229D01*
X12138571Y-20975800D01*
X12138571Y-20918657D01*
X12124286Y-20847229D01*
X12110000Y-20804372D01*
X12095714Y-20775800D01*
X12067143Y-20732943D01*
X12052857Y-20718657D01*
X12595714Y-21175800D02*
X12581428Y-21161514D01*
X12552857Y-21118657D01*
X12538571Y-21090086D01*
X12524286Y-21047229D01*
X12510000Y-20975800D01*
X12510000Y-20918657D01*
X12524286Y-20847229D01*
X12538571Y-20804372D01*
X12552857Y-20775800D01*
X12581428Y-20732943D01*
X12595714Y-20718657D01*
X12710000Y-20861514D02*
X12710000Y-21061514D01*
X12710000Y-20890086D02*
X12724286Y-20875800D01*
X12752857Y-20861514D01*
X12795714Y-20861514D01*
X12824286Y-20875800D01*
X12838571Y-20904372D01*
X12838571Y-21061514D01*
X13024286Y-21061514D02*
X12995714Y-21047229D01*
X12981428Y-21032943D01*
X12967143Y-21004372D01*
X12967143Y-20918657D01*
X12981428Y-20890086D01*
X12995714Y-20875800D01*
X13024286Y-20861514D01*
X13067143Y-20861514D01*
X13095714Y-20875800D01*
X13110000Y-20890086D01*
X13124286Y-20918657D01*
X13124286Y-21004372D01*
X13110000Y-21032943D01*
X13095714Y-21047229D01*
X13067143Y-21061514D01*
X13024286Y-21061514D01*
X13210000Y-20861514D02*
X13324286Y-20861514D01*
X13252857Y-20761514D02*
X13252857Y-21018657D01*
X13267143Y-21047229D01*
X13295714Y-21061514D01*
X13324286Y-21061514D01*
X13652857Y-20861514D02*
X13652857Y-21161514D01*
X13652857Y-20875800D02*
X13681428Y-20861514D01*
X13738571Y-20861514D01*
X13767143Y-20875800D01*
X13781428Y-20890086D01*
X13795714Y-20918657D01*
X13795714Y-21004372D01*
X13781428Y-21032943D01*
X13767143Y-21047229D01*
X13738571Y-21061514D01*
X13681428Y-21061514D01*
X13652857Y-21047229D01*
X13967143Y-21061514D02*
X13938571Y-21047229D01*
X13924286Y-21018657D01*
X13924286Y-20761514D01*
X14210000Y-21061514D02*
X14210000Y-20904372D01*
X14195714Y-20875800D01*
X14167143Y-20861514D01*
X14110000Y-20861514D01*
X14081428Y-20875800D01*
X14210000Y-21047229D02*
X14181428Y-21061514D01*
X14110000Y-21061514D01*
X14081428Y-21047229D01*
X14067143Y-21018657D01*
X14067143Y-20990086D01*
X14081428Y-20961514D01*
X14110000Y-20947229D01*
X14181428Y-20947229D01*
X14210000Y-20932943D01*
X14310000Y-20861514D02*
X14424286Y-20861514D01*
X14352857Y-20761514D02*
X14352857Y-21018657D01*
X14367143Y-21047229D01*
X14395714Y-21061514D01*
X14424286Y-21061514D01*
X14638571Y-21047229D02*
X14610000Y-21061514D01*
X14552857Y-21061514D01*
X14524286Y-21047229D01*
X14510000Y-21018657D01*
X14510000Y-20904372D01*
X14524286Y-20875800D01*
X14552857Y-20861514D01*
X14610000Y-20861514D01*
X14638571Y-20875800D01*
X14652857Y-20904372D01*
X14652857Y-20932943D01*
X14510000Y-20961514D01*
X14910000Y-21061514D02*
X14910000Y-20761514D01*
X14910000Y-21047229D02*
X14881428Y-21061514D01*
X14824286Y-21061514D01*
X14795714Y-21047229D01*
X14781428Y-21032943D01*
X14767143Y-21004372D01*
X14767143Y-20918657D01*
X14781428Y-20890086D01*
X14795714Y-20875800D01*
X14824286Y-20861514D01*
X14881428Y-20861514D01*
X14910000Y-20875800D01*
X15024286Y-21175800D02*
X15038571Y-21161514D01*
X15067143Y-21118657D01*
X15081428Y-21090086D01*
X15095714Y-21047229D01*
X15110000Y-20975800D01*
X15110000Y-20918657D01*
X15095714Y-20847229D01*
X15081428Y-20804372D01*
X15067143Y-20775800D01*
X15038571Y-20732943D01*
X15024286Y-20718657D01*
M02*
