%FSLAX45Y45*%
G04 Gerber Fmt 4.5, Leading zero omitted, Abs format (unit mm)*
G04 Created by KiCad (PCBNEW (5.0.0)) date 11/22/18 23:54:33*
%MOMM*%
%LPD*%
G01*
G04 APERTURE LIST*
%ADD10C,0.100000*%
%ADD11C,0.200000*%
%ADD12C,0.300000*%
G04 APERTURE END LIST*
D10*
X43000000Y-4700000D02*
X37000000Y-4700000D01*
X43000000Y-18700000D02*
X43000000Y-4700000D01*
X37000000Y-18700000D02*
X43000000Y-18700000D01*
X5000000Y-4700000D02*
X5000000Y-18700000D01*
X5000000Y-4700000D02*
X37000000Y-4700000D01*
X6000000Y-18700000D02*
X37000000Y-18700000D01*
X6000000Y-18700000D02*
X5000000Y-18700000D01*
D11*
X5840300Y-18091100D02*
X5880300Y-18131100D01*
X5880300Y-18091100D02*
X5840300Y-18131100D01*
X5869000Y-16000300D02*
X5909000Y-16040300D01*
X5909000Y-16000300D02*
X5869000Y-16040300D01*
X5903801Y-14014400D02*
X5943801Y-14054400D01*
X5943801Y-14014400D02*
X5903801Y-14054400D01*
X6545150Y-6616650D02*
X6585150Y-6656650D01*
X6585150Y-6616650D02*
X6545150Y-6656650D01*
X6938850Y-6902400D02*
X6978850Y-6942400D01*
X6978850Y-6902400D02*
X6938850Y-6942400D01*
X7796100Y-6623000D02*
X7836100Y-6663000D01*
X7836100Y-6623000D02*
X7796100Y-6663000D01*
X8151700Y-6102300D02*
X8191700Y-6142300D01*
X8191700Y-6102300D02*
X8151700Y-6142300D01*
X8202500Y-6623000D02*
X8242500Y-6663000D01*
X8242500Y-6623000D02*
X8202500Y-6663000D01*
X8289800Y-5859400D02*
X8329800Y-5899400D01*
X8329800Y-5859400D02*
X8289800Y-5899400D01*
X8570800Y-6102300D02*
X8610800Y-6142300D01*
X8610800Y-6102300D02*
X8570800Y-6142300D01*
X9091500Y-5626050D02*
X9131500Y-5666050D01*
X9131500Y-5626050D02*
X9091500Y-5666050D01*
X9783650Y-5848300D02*
X9823650Y-5888300D01*
X9823650Y-5848300D02*
X9783650Y-5888300D01*
X12585500Y-9119500D02*
G75*
G03X12585500Y-9119500I-45000J0D01*
G01*
X12839500Y-9119500D02*
G75*
G03X12839500Y-9119500I-45000J0D01*
G01*
X41160500Y-11977000D02*
G75*
G03X41160500Y-11977000I-45000J0D01*
G01*
X41414500Y-11977000D02*
G75*
G03X41414500Y-11977000I-45000J0D01*
G01*
X8061125Y-14834500D02*
G75*
G03X8061125Y-14834500I-45000J0D01*
G01*
X8315125Y-14834500D02*
G75*
G03X8315125Y-14834500I-45000J0D01*
G01*
X18776750Y-14834500D02*
G75*
G03X18776750Y-14834500I-45000J0D01*
G01*
X19030750Y-14834500D02*
G75*
G03X19030750Y-14834500I-45000J0D01*
G01*
X20205500Y-7214500D02*
G75*
G03X20205500Y-7214500I-45000J0D01*
G01*
X20459500Y-7214500D02*
G75*
G03X20459500Y-7214500I-45000J0D01*
G01*
X39255500Y-9119500D02*
G75*
G03X39255500Y-9119500I-45000J0D01*
G01*
X39509500Y-9119500D02*
G75*
G03X39509500Y-9119500I-45000J0D01*
G01*
X20681750Y-14834500D02*
G75*
G03X20681750Y-14834500I-45000J0D01*
G01*
X20935750Y-14834500D02*
G75*
G03X20935750Y-14834500I-45000J0D01*
G01*
X10680500Y-9119500D02*
G75*
G03X10680500Y-9119500I-45000J0D01*
G01*
X10934500Y-9119500D02*
G75*
G03X10934500Y-9119500I-45000J0D01*
G01*
X24015500Y-9119500D02*
G75*
G03X24015500Y-9119500I-45000J0D01*
G01*
X24269500Y-9119500D02*
G75*
G03X24269500Y-9119500I-45000J0D01*
G01*
X33540500Y-16739500D02*
G75*
G03X33540500Y-16739500I-45000J0D01*
G01*
X33794500Y-16739500D02*
G75*
G03X33794500Y-16739500I-45000J0D01*
G01*
X18300500Y-7214500D02*
G75*
G03X18300500Y-7214500I-45000J0D01*
G01*
X18554500Y-7214500D02*
G75*
G03X18554500Y-7214500I-45000J0D01*
G01*
X25444250Y-12929500D02*
G75*
G03X25444250Y-12929500I-45000J0D01*
G01*
X25698250Y-12929500D02*
G75*
G03X25698250Y-12929500I-45000J0D01*
G01*
X39255500Y-14834500D02*
G75*
G03X39255500Y-14834500I-45000J0D01*
G01*
X39509500Y-14834500D02*
G75*
G03X39509500Y-14834500I-45000J0D01*
G01*
X8775500Y-7214500D02*
G75*
G03X8775500Y-7214500I-45000J0D01*
G01*
X9029500Y-7214500D02*
G75*
G03X9029500Y-7214500I-45000J0D01*
G01*
X39255500Y-16739500D02*
G75*
G03X39255500Y-16739500I-45000J0D01*
G01*
X39509500Y-16739500D02*
G75*
G03X39509500Y-16739500I-45000J0D01*
G01*
X11871125Y-16739500D02*
G75*
G03X11871125Y-16739500I-45000J0D01*
G01*
X12125125Y-16739500D02*
G75*
G03X12125125Y-16739500I-45000J0D01*
G01*
X32588000Y-9119500D02*
G75*
G03X32588000Y-9119500I-45000J0D01*
G01*
X32842000Y-9119500D02*
G75*
G03X32842000Y-9119500I-45000J0D01*
G01*
X24491750Y-14834500D02*
G75*
G03X24491750Y-14834500I-45000J0D01*
G01*
X24745750Y-14834500D02*
G75*
G03X24745750Y-14834500I-45000J0D01*
G01*
X25920500Y-7214500D02*
G75*
G03X25920500Y-7214500I-45000J0D01*
G01*
X26174500Y-7214500D02*
G75*
G03X26174500Y-7214500I-45000J0D01*
G01*
X23539250Y-12929500D02*
G75*
G03X23539250Y-12929500I-45000J0D01*
G01*
X23793250Y-12929500D02*
G75*
G03X23793250Y-12929500I-45000J0D01*
G01*
X37350500Y-9119500D02*
G75*
G03X37350500Y-9119500I-45000J0D01*
G01*
X37604500Y-9119500D02*
G75*
G03X37604500Y-9119500I-45000J0D01*
G01*
X28778000Y-11024500D02*
G75*
G03X28778000Y-11024500I-45000J0D01*
G01*
X29032000Y-11024500D02*
G75*
G03X29032000Y-11024500I-45000J0D01*
G01*
X37350500Y-14834500D02*
G75*
G03X37350500Y-14834500I-45000J0D01*
G01*
X37604500Y-14834500D02*
G75*
G03X37604500Y-14834500I-45000J0D01*
G01*
X24015500Y-7214500D02*
G75*
G03X24015500Y-7214500I-45000J0D01*
G01*
X24269500Y-7214500D02*
G75*
G03X24269500Y-7214500I-45000J0D01*
G01*
X37350500Y-7214500D02*
G75*
G03X37350500Y-7214500I-45000J0D01*
G01*
X37604500Y-7214500D02*
G75*
G03X37604500Y-7214500I-45000J0D01*
G01*
X14966750Y-14834500D02*
G75*
G03X14966750Y-14834500I-45000J0D01*
G01*
X15220750Y-14834500D02*
G75*
G03X15220750Y-14834500I-45000J0D01*
G01*
X22110500Y-7214500D02*
G75*
G03X22110500Y-7214500I-45000J0D01*
G01*
X22364500Y-7214500D02*
G75*
G03X22364500Y-7214500I-45000J0D01*
G01*
X35445500Y-14834500D02*
G75*
G03X35445500Y-14834500I-45000J0D01*
G01*
X35699500Y-14834500D02*
G75*
G03X35699500Y-14834500I-45000J0D01*
G01*
X7108625Y-16739500D02*
G75*
G03X7108625Y-16739500I-45000J0D01*
G01*
X7362625Y-16739500D02*
G75*
G03X7362625Y-16739500I-45000J0D01*
G01*
X19253000Y-16739500D02*
G75*
G03X19253000Y-16739500I-45000J0D01*
G01*
X19507000Y-16739500D02*
G75*
G03X19507000Y-16739500I-45000J0D01*
G01*
X14014250Y-12929500D02*
G75*
G03X14014250Y-12929500I-45000J0D01*
G01*
X14268250Y-12929500D02*
G75*
G03X14268250Y-12929500I-45000J0D01*
G01*
X6870500Y-9119500D02*
G75*
G03X6870500Y-9119500I-45000J0D01*
G01*
X7124500Y-9119500D02*
G75*
G03X7124500Y-9119500I-45000J0D01*
G01*
X8775500Y-9119500D02*
G75*
G03X8775500Y-9119500I-45000J0D01*
G01*
X9029500Y-9119500D02*
G75*
G03X9029500Y-9119500I-45000J0D01*
G01*
X21158000Y-11024500D02*
G75*
G03X21158000Y-11024500I-45000J0D01*
G01*
X21412000Y-11024500D02*
G75*
G03X21412000Y-11024500I-45000J0D01*
G01*
X6870500Y-7214500D02*
G75*
G03X6870500Y-7214500I-45000J0D01*
G01*
X7124500Y-7214500D02*
G75*
G03X7124500Y-7214500I-45000J0D01*
G01*
X37350500Y-12929500D02*
G75*
G03X37350500Y-12929500I-45000J0D01*
G01*
X37604500Y-12929500D02*
G75*
G03X37604500Y-12929500I-45000J0D01*
G01*
X15919250Y-12929500D02*
G75*
G03X15919250Y-12929500I-45000J0D01*
G01*
X16173250Y-12929500D02*
G75*
G03X16173250Y-12929500I-45000J0D01*
G01*
X37350500Y-16739500D02*
G75*
G03X37350500Y-16739500I-45000J0D01*
G01*
X37604500Y-16739500D02*
G75*
G03X37604500Y-16739500I-45000J0D01*
G01*
X14490500Y-9119500D02*
G75*
G03X14490500Y-9119500I-45000J0D01*
G01*
X14744500Y-9119500D02*
G75*
G03X14744500Y-9119500I-45000J0D01*
G01*
X27825500Y-7214500D02*
G75*
G03X27825500Y-7214500I-45000J0D01*
G01*
X28079500Y-7214500D02*
G75*
G03X28079500Y-7214500I-45000J0D01*
G01*
X31635500Y-7214500D02*
G75*
G03X31635500Y-7214500I-45000J0D01*
G01*
X31889500Y-7214500D02*
G75*
G03X31889500Y-7214500I-45000J0D01*
G01*
X16468000Y-6236600D02*
G75*
G03X16468000Y-6236600I-45000J0D01*
G01*
X17230000Y-6236600D02*
G75*
G03X17230000Y-6236600I-45000J0D01*
G01*
X17484000Y-6236600D02*
G75*
G03X17484000Y-6236600I-45000J0D01*
G01*
X17738000Y-6236600D02*
G75*
G03X17738000Y-6236600I-45000J0D01*
G01*
X17992000Y-6236600D02*
G75*
G03X17992000Y-6236600I-45000J0D01*
G01*
X22310000Y-6236600D02*
G75*
G03X22310000Y-6236600I-45000J0D01*
G01*
X33064250Y-11024500D02*
G75*
G03X33064250Y-11024500I-45000J0D01*
G01*
X33318250Y-11024500D02*
G75*
G03X33318250Y-11024500I-45000J0D01*
G01*
X26634875Y-16739500D02*
G75*
G03X26634875Y-16739500I-45000J0D01*
G01*
X26888875Y-16739500D02*
G75*
G03X26888875Y-16739500I-45000J0D01*
G01*
X26396750Y-14834500D02*
G75*
G03X26396750Y-14834500I-45000J0D01*
G01*
X26650750Y-14834500D02*
G75*
G03X26650750Y-14834500I-45000J0D01*
G01*
X19729250Y-12929500D02*
G75*
G03X19729250Y-12929500I-45000J0D01*
G01*
X19983250Y-12929500D02*
G75*
G03X19983250Y-12929500I-45000J0D01*
G01*
X24968000Y-11024500D02*
G75*
G03X24968000Y-11024500I-45000J0D01*
G01*
X25222000Y-11024500D02*
G75*
G03X25222000Y-11024500I-45000J0D01*
G01*
X11156750Y-14834500D02*
G75*
G03X11156750Y-14834500I-45000J0D01*
G01*
X11410750Y-14834500D02*
G75*
G03X11410750Y-14834500I-45000J0D01*
G01*
X10680500Y-7214500D02*
G75*
G03X10680500Y-7214500I-45000J0D01*
G01*
X10934500Y-7214500D02*
G75*
G03X10934500Y-7214500I-45000J0D01*
G01*
X35445500Y-11024500D02*
G75*
G03X35445500Y-11024500I-45000J0D01*
G01*
X35699500Y-11024500D02*
G75*
G03X35699500Y-11024500I-45000J0D01*
G01*
X16395500Y-9119500D02*
G75*
G03X16395500Y-9119500I-45000J0D01*
G01*
X16649500Y-9119500D02*
G75*
G03X16649500Y-9119500I-45000J0D01*
G01*
X39255500Y-7214500D02*
G75*
G03X39255500Y-7214500I-45000J0D01*
G01*
X39509500Y-7214500D02*
G75*
G03X39509500Y-7214500I-45000J0D01*
G01*
X20205500Y-9119500D02*
G75*
G03X20205500Y-9119500I-45000J0D01*
G01*
X20459500Y-9119500D02*
G75*
G03X20459500Y-9119500I-45000J0D01*
G01*
X18300500Y-9119500D02*
G75*
G03X18300500Y-9119500I-45000J0D01*
G01*
X18554500Y-9119500D02*
G75*
G03X18554500Y-9119500I-45000J0D01*
G01*
X7584875Y-12929500D02*
G75*
G03X7584875Y-12929500I-45000J0D01*
G01*
X7838875Y-12929500D02*
G75*
G03X7838875Y-12929500I-45000J0D01*
G01*
X10204250Y-12929500D02*
G75*
G03X10204250Y-12929500I-45000J0D01*
G01*
X10458250Y-12929500D02*
G75*
G03X10458250Y-12929500I-45000J0D01*
G01*
X9489875Y-16739500D02*
G75*
G03X9489875Y-16739500I-45000J0D01*
G01*
X9743875Y-16739500D02*
G75*
G03X9743875Y-16739500I-45000J0D01*
G01*
X35445500Y-16739500D02*
G75*
G03X35445500Y-16739500I-45000J0D01*
G01*
X35699500Y-16739500D02*
G75*
G03X35699500Y-16739500I-45000J0D01*
G01*
X16871750Y-14834500D02*
G75*
G03X16871750Y-14834500I-45000J0D01*
G01*
X17125750Y-14834500D02*
G75*
G03X17125750Y-14834500I-45000J0D01*
G01*
X13538000Y-11024500D02*
G75*
G03X13538000Y-11024500I-45000J0D01*
G01*
X13792000Y-11024500D02*
G75*
G03X13792000Y-11024500I-45000J0D01*
G01*
X15443000Y-11024500D02*
G75*
G03X15443000Y-11024500I-45000J0D01*
G01*
X15697000Y-11024500D02*
G75*
G03X15697000Y-11024500I-45000J0D01*
G01*
X11633000Y-11024500D02*
G75*
G03X11633000Y-11024500I-45000J0D01*
G01*
X11887000Y-11024500D02*
G75*
G03X11887000Y-11024500I-45000J0D01*
G01*
X29254250Y-12929500D02*
G75*
G03X29254250Y-12929500I-45000J0D01*
G01*
X29508250Y-12929500D02*
G75*
G03X29508250Y-12929500I-45000J0D01*
G01*
X35445500Y-7214500D02*
G75*
G03X35445500Y-7214500I-45000J0D01*
G01*
X35699500Y-7214500D02*
G75*
G03X35699500Y-7214500I-45000J0D01*
G01*
X14490500Y-7214500D02*
G75*
G03X14490500Y-7214500I-45000J0D01*
G01*
X14744500Y-7214500D02*
G75*
G03X14744500Y-7214500I-45000J0D01*
G01*
X33540500Y-7214500D02*
G75*
G03X33540500Y-7214500I-45000J0D01*
G01*
X33794500Y-7214500D02*
G75*
G03X33794500Y-7214500I-45000J0D01*
G01*
X17824250Y-12929500D02*
G75*
G03X17824250Y-12929500I-45000J0D01*
G01*
X18078250Y-12929500D02*
G75*
G03X18078250Y-12929500I-45000J0D01*
G01*
X37350500Y-11024500D02*
G75*
G03X37350500Y-11024500I-45000J0D01*
G01*
X37604500Y-11024500D02*
G75*
G03X37604500Y-11024500I-45000J0D01*
G01*
X16395500Y-7214500D02*
G75*
G03X16395500Y-7214500I-45000J0D01*
G01*
X16649500Y-7214500D02*
G75*
G03X16649500Y-7214500I-45000J0D01*
G01*
X35445500Y-12929500D02*
G75*
G03X35445500Y-12929500I-45000J0D01*
G01*
X35699500Y-12929500D02*
G75*
G03X35699500Y-12929500I-45000J0D01*
G01*
X28301750Y-14834500D02*
G75*
G03X28301750Y-14834500I-45000J0D01*
G01*
X28555750Y-14834500D02*
G75*
G03X28555750Y-14834500I-45000J0D01*
G01*
X29016125Y-16739500D02*
G75*
G03X29016125Y-16739500I-45000J0D01*
G01*
X29270125Y-16739500D02*
G75*
G03X29270125Y-16739500I-45000J0D01*
G01*
X30921125Y-14834500D02*
G75*
G03X30921125Y-14834500I-45000J0D01*
G01*
X31175125Y-14834500D02*
G75*
G03X31175125Y-14834500I-45000J0D01*
G01*
X33540500Y-14834500D02*
G75*
G03X33540500Y-14834500I-45000J0D01*
G01*
X33794500Y-14834500D02*
G75*
G03X33794500Y-14834500I-45000J0D01*
G01*
X25920500Y-9119500D02*
G75*
G03X25920500Y-9119500I-45000J0D01*
G01*
X26174500Y-9119500D02*
G75*
G03X26174500Y-9119500I-45000J0D01*
G01*
X22110500Y-9119500D02*
G75*
G03X22110500Y-9119500I-45000J0D01*
G01*
X22364500Y-9119500D02*
G75*
G03X22364500Y-9119500I-45000J0D01*
G01*
X22586750Y-14834500D02*
G75*
G03X22586750Y-14834500I-45000J0D01*
G01*
X22840750Y-14834500D02*
G75*
G03X22840750Y-14834500I-45000J0D01*
G01*
X17348000Y-11024500D02*
G75*
G03X17348000Y-11024500I-45000J0D01*
G01*
X17602000Y-11024500D02*
G75*
G03X17602000Y-11024500I-45000J0D01*
G01*
X26873000Y-11024500D02*
G75*
G03X26873000Y-11024500I-45000J0D01*
G01*
X27127000Y-11024500D02*
G75*
G03X27127000Y-11024500I-45000J0D01*
G01*
X19253000Y-11024500D02*
G75*
G03X19253000Y-11024500I-45000J0D01*
G01*
X19507000Y-11024500D02*
G75*
G03X19507000Y-11024500I-45000J0D01*
G01*
X27349250Y-12929500D02*
G75*
G03X27349250Y-12929500I-45000J0D01*
G01*
X27603250Y-12929500D02*
G75*
G03X27603250Y-12929500I-45000J0D01*
G01*
X30683000Y-11024500D02*
G75*
G03X30683000Y-11024500I-45000J0D01*
G01*
X30937000Y-11024500D02*
G75*
G03X30937000Y-11024500I-45000J0D01*
G01*
X41160500Y-9119500D02*
G75*
G03X41160500Y-9119500I-45000J0D01*
G01*
X41414500Y-9119500D02*
G75*
G03X41414500Y-9119500I-45000J0D01*
G01*
X29730500Y-7214500D02*
G75*
G03X29730500Y-7214500I-45000J0D01*
G01*
X29984500Y-7214500D02*
G75*
G03X29984500Y-7214500I-45000J0D01*
G01*
X39255500Y-12929500D02*
G75*
G03X39255500Y-12929500I-45000J0D01*
G01*
X39509500Y-12929500D02*
G75*
G03X39509500Y-12929500I-45000J0D01*
G01*
X9156500Y-5157100D02*
G75*
G03X9156500Y-5157100I-45000J0D01*
G01*
X9156500Y-6681100D02*
G75*
G03X9156500Y-6681100I-45000J0D01*
G01*
X9410500Y-5157100D02*
G75*
G03X9410500Y-5157100I-45000J0D01*
G01*
X9410500Y-6681100D02*
G75*
G03X9410500Y-6681100I-45000J0D01*
G01*
X9664500Y-5157100D02*
G75*
G03X9664500Y-5157100I-45000J0D01*
G01*
X9664500Y-6681100D02*
G75*
G03X9664500Y-6681100I-45000J0D01*
G01*
X9918500Y-5157100D02*
G75*
G03X9918500Y-5157100I-45000J0D01*
G01*
X9918500Y-6681100D02*
G75*
G03X9918500Y-6681100I-45000J0D01*
G01*
X10172500Y-5157100D02*
G75*
G03X10172500Y-5157100I-45000J0D01*
G01*
X10172500Y-6681100D02*
G75*
G03X10172500Y-6681100I-45000J0D01*
G01*
X10426500Y-5157100D02*
G75*
G03X10426500Y-5157100I-45000J0D01*
G01*
X10426500Y-6681100D02*
G75*
G03X10426500Y-6681100I-45000J0D01*
G01*
X10680500Y-5157100D02*
G75*
G03X10680500Y-5157100I-45000J0D01*
G01*
X10680500Y-6681100D02*
G75*
G03X10680500Y-6681100I-45000J0D01*
G01*
X10934500Y-5157100D02*
G75*
G03X10934500Y-5157100I-45000J0D01*
G01*
X10934500Y-6681100D02*
G75*
G03X10934500Y-6681100I-45000J0D01*
G01*
X11188500Y-5157100D02*
G75*
G03X11188500Y-5157100I-45000J0D01*
G01*
X11188500Y-6681100D02*
G75*
G03X11188500Y-6681100I-45000J0D01*
G01*
X11442500Y-5157100D02*
G75*
G03X11442500Y-5157100I-45000J0D01*
G01*
X11442500Y-6681100D02*
G75*
G03X11442500Y-6681100I-45000J0D01*
G01*
X12204500Y-5157100D02*
G75*
G03X12204500Y-5157100I-45000J0D01*
G01*
X12204500Y-6681100D02*
G75*
G03X12204500Y-6681100I-45000J0D01*
G01*
X12458500Y-5157100D02*
G75*
G03X12458500Y-5157100I-45000J0D01*
G01*
X12458500Y-6681100D02*
G75*
G03X12458500Y-6681100I-45000J0D01*
G01*
X12712500Y-5157100D02*
G75*
G03X12712500Y-5157100I-45000J0D01*
G01*
X13220500Y-5157100D02*
G75*
G03X13220500Y-5157100I-45000J0D01*
G01*
X13220500Y-6681100D02*
G75*
G03X13220500Y-6681100I-45000J0D01*
G01*
X13474500Y-5157100D02*
G75*
G03X13474500Y-5157100I-45000J0D01*
G01*
X13474500Y-6681100D02*
G75*
G03X13474500Y-6681100I-45000J0D01*
G01*
X13728500Y-5157100D02*
G75*
G03X13728500Y-5157100I-45000J0D01*
G01*
X13728500Y-6681100D02*
G75*
G03X13728500Y-6681100I-45000J0D01*
G01*
X13982500Y-6681100D02*
G75*
G03X13982500Y-6681100I-45000J0D01*
G01*
X12109250Y-12929500D02*
G75*
G03X12109250Y-12929500I-45000J0D01*
G01*
X12363250Y-12929500D02*
G75*
G03X12363250Y-12929500I-45000J0D01*
G01*
X41160500Y-15787000D02*
G75*
G03X41160500Y-15787000I-45000J0D01*
G01*
X41414500Y-15787000D02*
G75*
G03X41414500Y-15787000I-45000J0D01*
G01*
X32349875Y-12929500D02*
G75*
G03X32349875Y-12929500I-45000J0D01*
G01*
X32603875Y-12929500D02*
G75*
G03X32603875Y-12929500I-45000J0D01*
G01*
X7346750Y-11024500D02*
G75*
G03X7346750Y-11024500I-45000J0D01*
G01*
X7600750Y-11024500D02*
G75*
G03X7600750Y-11024500I-45000J0D01*
G01*
X29730500Y-9119500D02*
G75*
G03X29730500Y-9119500I-45000J0D01*
G01*
X29984500Y-9119500D02*
G75*
G03X29984500Y-9119500I-45000J0D01*
G01*
X13061750Y-14834500D02*
G75*
G03X13061750Y-14834500I-45000J0D01*
G01*
X13315750Y-14834500D02*
G75*
G03X13315750Y-14834500I-45000J0D01*
G01*
X23063000Y-11024500D02*
G75*
G03X23063000Y-11024500I-45000J0D01*
G01*
X23317000Y-11024500D02*
G75*
G03X23317000Y-11024500I-45000J0D01*
G01*
X35445500Y-9119500D02*
G75*
G03X35445500Y-9119500I-45000J0D01*
G01*
X35699500Y-9119500D02*
G75*
G03X35699500Y-9119500I-45000J0D01*
G01*
X21634250Y-12929500D02*
G75*
G03X21634250Y-12929500I-45000J0D01*
G01*
X21888250Y-12929500D02*
G75*
G03X21888250Y-12929500I-45000J0D01*
G01*
X41160500Y-7214500D02*
G75*
G03X41160500Y-7214500I-45000J0D01*
G01*
X41414500Y-7214500D02*
G75*
G03X41414500Y-7214500I-45000J0D01*
G01*
X9728000Y-11024500D02*
G75*
G03X9728000Y-11024500I-45000J0D01*
G01*
X9982000Y-11024500D02*
G75*
G03X9982000Y-11024500I-45000J0D01*
G01*
X27825500Y-9119500D02*
G75*
G03X27825500Y-9119500I-45000J0D01*
G01*
X28079500Y-9119500D02*
G75*
G03X28079500Y-9119500I-45000J0D01*
G01*
X31635500Y-16739500D02*
G75*
G03X31635500Y-16739500I-45000J0D01*
G01*
X31889500Y-16739500D02*
G75*
G03X31889500Y-16739500I-45000J0D01*
G01*
X12585500Y-7214500D02*
G75*
G03X12585500Y-7214500I-45000J0D01*
G01*
X12839500Y-7214500D02*
G75*
G03X12839500Y-7214500I-45000J0D01*
G01*
X39255500Y-11024500D02*
G75*
G03X39255500Y-11024500I-45000J0D01*
G01*
X39509500Y-11024500D02*
G75*
G03X39509500Y-11024500I-45000J0D01*
G01*
X7143000Y-6085000D02*
X7143000Y-6185000D01*
X7093000Y-6135000D02*
X7193000Y-6135000D01*
X6889000Y-6085000D02*
X6889000Y-6185000D01*
X6839000Y-6135000D02*
X6939000Y-6135000D01*
X6635000Y-6085000D02*
X6635000Y-6185000D01*
X6585000Y-6135000D02*
X6685000Y-6135000D01*
X27706484Y-8283484D02*
X27706484Y-8177516D01*
X27600516Y-8177516D01*
X27600516Y-8283484D01*
X27706484Y-8283484D01*
X28341484Y-8029484D02*
X28341484Y-7923516D01*
X28235516Y-7923516D01*
X28235516Y-8029484D01*
X28341484Y-8029484D01*
X31516484Y-8283484D02*
X31516484Y-8177516D01*
X31410516Y-8177516D01*
X31410516Y-8283484D01*
X31516484Y-8283484D01*
X32151484Y-8029484D02*
X32151484Y-7923516D01*
X32045516Y-7923516D01*
X32045516Y-8029484D01*
X32151484Y-8029484D01*
X32945234Y-12093484D02*
X32945234Y-11987516D01*
X32839266Y-11987516D01*
X32839266Y-12093484D01*
X32945234Y-12093484D01*
X33580234Y-11839484D02*
X33580234Y-11733516D01*
X33474266Y-11733516D01*
X33474266Y-11839484D01*
X33580234Y-11839484D01*
X26515859Y-17808484D02*
X26515859Y-17702516D01*
X26409891Y-17702516D01*
X26409891Y-17808484D01*
X26515859Y-17808484D01*
X27150859Y-17554484D02*
X27150859Y-17448516D01*
X27044891Y-17448516D01*
X27044891Y-17554484D01*
X27150859Y-17554484D01*
X26277734Y-15903484D02*
X26277734Y-15797516D01*
X26171766Y-15797516D01*
X26171766Y-15903484D01*
X26277734Y-15903484D01*
X26912734Y-15649484D02*
X26912734Y-15543516D01*
X26806766Y-15543516D01*
X26806766Y-15649484D01*
X26912734Y-15649484D01*
X19610234Y-13998484D02*
X19610234Y-13892516D01*
X19504266Y-13892516D01*
X19504266Y-13998484D01*
X19610234Y-13998484D01*
X20245234Y-13744484D02*
X20245234Y-13638516D01*
X20139266Y-13638516D01*
X20139266Y-13744484D01*
X20245234Y-13744484D01*
X24848984Y-12093484D02*
X24848984Y-11987516D01*
X24743016Y-11987516D01*
X24743016Y-12093484D01*
X24848984Y-12093484D01*
X25483984Y-11839484D02*
X25483984Y-11733516D01*
X25378016Y-11733516D01*
X25378016Y-11839484D01*
X25483984Y-11839484D01*
X11037734Y-15903484D02*
X11037734Y-15797516D01*
X10931766Y-15797516D01*
X10931766Y-15903484D01*
X11037734Y-15903484D01*
X11672734Y-15649484D02*
X11672734Y-15543516D01*
X11566766Y-15543516D01*
X11566766Y-15649484D01*
X11672734Y-15649484D01*
X10561484Y-8283484D02*
X10561484Y-8177516D01*
X10455516Y-8177516D01*
X10455516Y-8283484D01*
X10561484Y-8283484D01*
X11196484Y-8029484D02*
X11196484Y-7923516D01*
X11090516Y-7923516D01*
X11090516Y-8029484D01*
X11196484Y-8029484D01*
X35326484Y-12093484D02*
X35326484Y-11987516D01*
X35220516Y-11987516D01*
X35220516Y-12093484D01*
X35326484Y-12093484D01*
X35961484Y-11839484D02*
X35961484Y-11733516D01*
X35855516Y-11733516D01*
X35855516Y-11839484D01*
X35961484Y-11839484D01*
X16276484Y-10188484D02*
X16276484Y-10082516D01*
X16170516Y-10082516D01*
X16170516Y-10188484D01*
X16276484Y-10188484D01*
X16911484Y-9934484D02*
X16911484Y-9828516D01*
X16805516Y-9828516D01*
X16805516Y-9934484D01*
X16911484Y-9934484D01*
X39136484Y-8283484D02*
X39136484Y-8177516D01*
X39030516Y-8177516D01*
X39030516Y-8283484D01*
X39136484Y-8283484D01*
X39771484Y-8029484D02*
X39771484Y-7923516D01*
X39665516Y-7923516D01*
X39665516Y-8029484D01*
X39771484Y-8029484D01*
X20086484Y-10188484D02*
X20086484Y-10082516D01*
X19980516Y-10082516D01*
X19980516Y-10188484D01*
X20086484Y-10188484D01*
X20721484Y-9934484D02*
X20721484Y-9828516D01*
X20615516Y-9828516D01*
X20615516Y-9934484D01*
X20721484Y-9934484D01*
X18181484Y-10188484D02*
X18181484Y-10082516D01*
X18075516Y-10082516D01*
X18075516Y-10188484D01*
X18181484Y-10188484D01*
X18816484Y-9934484D02*
X18816484Y-9828516D01*
X18710516Y-9828516D01*
X18710516Y-9934484D01*
X18816484Y-9934484D01*
X7465859Y-13998484D02*
X7465859Y-13892516D01*
X7359891Y-13892516D01*
X7359891Y-13998484D01*
X7465859Y-13998484D01*
X8100859Y-13744484D02*
X8100859Y-13638516D01*
X7994891Y-13638516D01*
X7994891Y-13744484D01*
X8100859Y-13744484D01*
X10085234Y-13998484D02*
X10085234Y-13892516D01*
X9979266Y-13892516D01*
X9979266Y-13998484D01*
X10085234Y-13998484D01*
X10720234Y-13744484D02*
X10720234Y-13638516D01*
X10614266Y-13638516D01*
X10614266Y-13744484D01*
X10720234Y-13744484D01*
X9370859Y-17808484D02*
X9370859Y-17702516D01*
X9264891Y-17702516D01*
X9264891Y-17808484D01*
X9370859Y-17808484D01*
X10005859Y-17554484D02*
X10005859Y-17448516D01*
X9899891Y-17448516D01*
X9899891Y-17554484D01*
X10005859Y-17554484D01*
X35326484Y-17808484D02*
X35326484Y-17702516D01*
X35220516Y-17702516D01*
X35220516Y-17808484D01*
X35326484Y-17808484D01*
X35961484Y-17554484D02*
X35961484Y-17448516D01*
X35855516Y-17448516D01*
X35855516Y-17554484D01*
X35961484Y-17554484D01*
X16752734Y-15903484D02*
X16752734Y-15797516D01*
X16646766Y-15797516D01*
X16646766Y-15903484D01*
X16752734Y-15903484D01*
X17387734Y-15649484D02*
X17387734Y-15543516D01*
X17281766Y-15543516D01*
X17281766Y-15649484D01*
X17387734Y-15649484D01*
X13418984Y-12093484D02*
X13418984Y-11987516D01*
X13313016Y-11987516D01*
X13313016Y-12093484D01*
X13418984Y-12093484D01*
X14053984Y-11839484D02*
X14053984Y-11733516D01*
X13948016Y-11733516D01*
X13948016Y-11839484D01*
X14053984Y-11839484D01*
X15323984Y-12093484D02*
X15323984Y-11987516D01*
X15218016Y-11987516D01*
X15218016Y-12093484D01*
X15323984Y-12093484D01*
X15958984Y-11839484D02*
X15958984Y-11733516D01*
X15853016Y-11733516D01*
X15853016Y-11839484D01*
X15958984Y-11839484D01*
X11513984Y-12093484D02*
X11513984Y-11987516D01*
X11408016Y-11987516D01*
X11408016Y-12093484D01*
X11513984Y-12093484D01*
X12148984Y-11839484D02*
X12148984Y-11733516D01*
X12043016Y-11733516D01*
X12043016Y-11839484D01*
X12148984Y-11839484D01*
X29135234Y-13998484D02*
X29135234Y-13892516D01*
X29029266Y-13892516D01*
X29029266Y-13998484D01*
X29135234Y-13998484D01*
X29770234Y-13744484D02*
X29770234Y-13638516D01*
X29664266Y-13638516D01*
X29664266Y-13744484D01*
X29770234Y-13744484D01*
X35326484Y-8283484D02*
X35326484Y-8177516D01*
X35220516Y-8177516D01*
X35220516Y-8283484D01*
X35326484Y-8283484D01*
X35961484Y-8029484D02*
X35961484Y-7923516D01*
X35855516Y-7923516D01*
X35855516Y-8029484D01*
X35961484Y-8029484D01*
X14371484Y-8283484D02*
X14371484Y-8177516D01*
X14265516Y-8177516D01*
X14265516Y-8283484D01*
X14371484Y-8283484D01*
X15006484Y-8029484D02*
X15006484Y-7923516D01*
X14900516Y-7923516D01*
X14900516Y-8029484D01*
X15006484Y-8029484D01*
X33421484Y-8283484D02*
X33421484Y-8177516D01*
X33315516Y-8177516D01*
X33315516Y-8283484D01*
X33421484Y-8283484D01*
X34056484Y-8029484D02*
X34056484Y-7923516D01*
X33950516Y-7923516D01*
X33950516Y-8029484D01*
X34056484Y-8029484D01*
X17705234Y-13998484D02*
X17705234Y-13892516D01*
X17599266Y-13892516D01*
X17599266Y-13998484D01*
X17705234Y-13998484D01*
X18340234Y-13744484D02*
X18340234Y-13638516D01*
X18234266Y-13638516D01*
X18234266Y-13744484D01*
X18340234Y-13744484D01*
X37231484Y-12093484D02*
X37231484Y-11987516D01*
X37125516Y-11987516D01*
X37125516Y-12093484D01*
X37231484Y-12093484D01*
X37866484Y-11839484D02*
X37866484Y-11733516D01*
X37760516Y-11733516D01*
X37760516Y-11839484D01*
X37866484Y-11839484D01*
X16276484Y-8283484D02*
X16276484Y-8177516D01*
X16170516Y-8177516D01*
X16170516Y-8283484D01*
X16276484Y-8283484D01*
X16911484Y-8029484D02*
X16911484Y-7923516D01*
X16805516Y-7923516D01*
X16805516Y-8029484D01*
X16911484Y-8029484D01*
X35326484Y-13998484D02*
X35326484Y-13892516D01*
X35220516Y-13892516D01*
X35220516Y-13998484D01*
X35326484Y-13998484D01*
X35961484Y-13744484D02*
X35961484Y-13638516D01*
X35855516Y-13638516D01*
X35855516Y-13744484D01*
X35961484Y-13744484D01*
X28182734Y-15903484D02*
X28182734Y-15797516D01*
X28076766Y-15797516D01*
X28076766Y-15903484D01*
X28182734Y-15903484D01*
X28817734Y-15649484D02*
X28817734Y-15543516D01*
X28711766Y-15543516D01*
X28711766Y-15649484D01*
X28817734Y-15649484D01*
X28897109Y-17808484D02*
X28897109Y-17702516D01*
X28791141Y-17702516D01*
X28791141Y-17808484D01*
X28897109Y-17808484D01*
X29532109Y-17554484D02*
X29532109Y-17448516D01*
X29426141Y-17448516D01*
X29426141Y-17554484D01*
X29532109Y-17554484D01*
X30802109Y-15903484D02*
X30802109Y-15797516D01*
X30696141Y-15797516D01*
X30696141Y-15903484D01*
X30802109Y-15903484D01*
X31437109Y-15649484D02*
X31437109Y-15543516D01*
X31331141Y-15543516D01*
X31331141Y-15649484D01*
X31437109Y-15649484D01*
X33421484Y-15903484D02*
X33421484Y-15797516D01*
X33315516Y-15797516D01*
X33315516Y-15903484D01*
X33421484Y-15903484D01*
X34056484Y-15649484D02*
X34056484Y-15543516D01*
X33950516Y-15543516D01*
X33950516Y-15649484D01*
X34056484Y-15649484D01*
X25801484Y-10188484D02*
X25801484Y-10082516D01*
X25695516Y-10082516D01*
X25695516Y-10188484D01*
X25801484Y-10188484D01*
X26436484Y-9934484D02*
X26436484Y-9828516D01*
X26330516Y-9828516D01*
X26330516Y-9934484D01*
X26436484Y-9934484D01*
X21991484Y-10188484D02*
X21991484Y-10082516D01*
X21885516Y-10082516D01*
X21885516Y-10188484D01*
X21991484Y-10188484D01*
X22626484Y-9934484D02*
X22626484Y-9828516D01*
X22520516Y-9828516D01*
X22520516Y-9934484D01*
X22626484Y-9934484D01*
X22467734Y-15903484D02*
X22467734Y-15797516D01*
X22361766Y-15797516D01*
X22361766Y-15903484D01*
X22467734Y-15903484D01*
X23102734Y-15649484D02*
X23102734Y-15543516D01*
X22996766Y-15543516D01*
X22996766Y-15649484D01*
X23102734Y-15649484D01*
X17228984Y-12093484D02*
X17228984Y-11987516D01*
X17123016Y-11987516D01*
X17123016Y-12093484D01*
X17228984Y-12093484D01*
X17863984Y-11839484D02*
X17863984Y-11733516D01*
X17758016Y-11733516D01*
X17758016Y-11839484D01*
X17863984Y-11839484D01*
X26753984Y-12093484D02*
X26753984Y-11987516D01*
X26648016Y-11987516D01*
X26648016Y-12093484D01*
X26753984Y-12093484D01*
X27388984Y-11839484D02*
X27388984Y-11733516D01*
X27283016Y-11733516D01*
X27283016Y-11839484D01*
X27388984Y-11839484D01*
X19133984Y-12093484D02*
X19133984Y-11987516D01*
X19028016Y-11987516D01*
X19028016Y-12093484D01*
X19133984Y-12093484D01*
X19768984Y-11839484D02*
X19768984Y-11733516D01*
X19663016Y-11733516D01*
X19663016Y-11839484D01*
X19768984Y-11839484D01*
X27230234Y-13998484D02*
X27230234Y-13892516D01*
X27124266Y-13892516D01*
X27124266Y-13998484D01*
X27230234Y-13998484D01*
X27865234Y-13744484D02*
X27865234Y-13638516D01*
X27759266Y-13638516D01*
X27759266Y-13744484D01*
X27865234Y-13744484D01*
X30563984Y-12093484D02*
X30563984Y-11987516D01*
X30458016Y-11987516D01*
X30458016Y-12093484D01*
X30563984Y-12093484D01*
X31198984Y-11839484D02*
X31198984Y-11733516D01*
X31093016Y-11733516D01*
X31093016Y-11839484D01*
X31198984Y-11839484D01*
X41041484Y-10188484D02*
X41041484Y-10082516D01*
X40935516Y-10082516D01*
X40935516Y-10188484D01*
X41041484Y-10188484D01*
X41676484Y-9934484D02*
X41676484Y-9828516D01*
X41570516Y-9828516D01*
X41570516Y-9934484D01*
X41676484Y-9934484D01*
X29611484Y-8283484D02*
X29611484Y-8177516D01*
X29505516Y-8177516D01*
X29505516Y-8283484D01*
X29611484Y-8283484D01*
X30246484Y-8029484D02*
X30246484Y-7923516D01*
X30140516Y-7923516D01*
X30140516Y-8029484D01*
X30246484Y-8029484D01*
X39136484Y-13998484D02*
X39136484Y-13892516D01*
X39030516Y-13892516D01*
X39030516Y-13998484D01*
X39136484Y-13998484D01*
X39771484Y-13744484D02*
X39771484Y-13638516D01*
X39665516Y-13638516D01*
X39665516Y-13744484D01*
X39771484Y-13744484D01*
X11990234Y-13998484D02*
X11990234Y-13892516D01*
X11884266Y-13892516D01*
X11884266Y-13998484D01*
X11990234Y-13998484D01*
X12625234Y-13744484D02*
X12625234Y-13638516D01*
X12519266Y-13638516D01*
X12519266Y-13744484D01*
X12625234Y-13744484D01*
X41041484Y-16855984D02*
X41041484Y-16750016D01*
X40935516Y-16750016D01*
X40935516Y-16855984D01*
X41041484Y-16855984D01*
X41676484Y-16601984D02*
X41676484Y-16496016D01*
X41570516Y-16496016D01*
X41570516Y-16601984D01*
X41676484Y-16601984D01*
X32230859Y-13998484D02*
X32230859Y-13892516D01*
X32124891Y-13892516D01*
X32124891Y-13998484D01*
X32230859Y-13998484D01*
X32865859Y-13744484D02*
X32865859Y-13638516D01*
X32759891Y-13638516D01*
X32759891Y-13744484D01*
X32865859Y-13744484D01*
X7227734Y-12093484D02*
X7227734Y-11987516D01*
X7121766Y-11987516D01*
X7121766Y-12093484D01*
X7227734Y-12093484D01*
X7862734Y-11839484D02*
X7862734Y-11733516D01*
X7756766Y-11733516D01*
X7756766Y-11839484D01*
X7862734Y-11839484D01*
X29611484Y-10188484D02*
X29611484Y-10082516D01*
X29505516Y-10082516D01*
X29505516Y-10188484D01*
X29611484Y-10188484D01*
X30246484Y-9934484D02*
X30246484Y-9828516D01*
X30140516Y-9828516D01*
X30140516Y-9934484D01*
X30246484Y-9934484D01*
X12942734Y-15903484D02*
X12942734Y-15797516D01*
X12836766Y-15797516D01*
X12836766Y-15903484D01*
X12942734Y-15903484D01*
X13577734Y-15649484D02*
X13577734Y-15543516D01*
X13471766Y-15543516D01*
X13471766Y-15649484D01*
X13577734Y-15649484D01*
X22943984Y-12093484D02*
X22943984Y-11987516D01*
X22838016Y-11987516D01*
X22838016Y-12093484D01*
X22943984Y-12093484D01*
X23578984Y-11839484D02*
X23578984Y-11733516D01*
X23473016Y-11733516D01*
X23473016Y-11839484D01*
X23578984Y-11839484D01*
X35326484Y-10188484D02*
X35326484Y-10082516D01*
X35220516Y-10082516D01*
X35220516Y-10188484D01*
X35326484Y-10188484D01*
X35961484Y-9934484D02*
X35961484Y-9828516D01*
X35855516Y-9828516D01*
X35855516Y-9934484D01*
X35961484Y-9934484D01*
X21515234Y-13998484D02*
X21515234Y-13892516D01*
X21409266Y-13892516D01*
X21409266Y-13998484D01*
X21515234Y-13998484D01*
X22150234Y-13744484D02*
X22150234Y-13638516D01*
X22044266Y-13638516D01*
X22044266Y-13744484D01*
X22150234Y-13744484D01*
X41041484Y-8283484D02*
X41041484Y-8177516D01*
X40935516Y-8177516D01*
X40935516Y-8283484D01*
X41041484Y-8283484D01*
X41676484Y-8029484D02*
X41676484Y-7923516D01*
X41570516Y-7923516D01*
X41570516Y-8029484D01*
X41676484Y-8029484D01*
X9608984Y-12093484D02*
X9608984Y-11987516D01*
X9503016Y-11987516D01*
X9503016Y-12093484D01*
X9608984Y-12093484D01*
X10243984Y-11839484D02*
X10243984Y-11733516D01*
X10138016Y-11733516D01*
X10138016Y-11839484D01*
X10243984Y-11839484D01*
X27706484Y-10188484D02*
X27706484Y-10082516D01*
X27600516Y-10082516D01*
X27600516Y-10188484D01*
X27706484Y-10188484D01*
X28341484Y-9934484D02*
X28341484Y-9828516D01*
X28235516Y-9828516D01*
X28235516Y-9934484D01*
X28341484Y-9934484D01*
X31516484Y-17808484D02*
X31516484Y-17702516D01*
X31410516Y-17702516D01*
X31410516Y-17808484D01*
X31516484Y-17808484D01*
X32151484Y-17554484D02*
X32151484Y-17448516D01*
X32045516Y-17448516D01*
X32045516Y-17554484D01*
X32151484Y-17554484D01*
X12466484Y-8283484D02*
X12466484Y-8177516D01*
X12360516Y-8177516D01*
X12360516Y-8283484D01*
X12466484Y-8283484D01*
X13101484Y-8029484D02*
X13101484Y-7923516D01*
X12995516Y-7923516D01*
X12995516Y-8029484D01*
X13101484Y-8029484D01*
X39136484Y-12093484D02*
X39136484Y-11987516D01*
X39030516Y-11987516D01*
X39030516Y-12093484D01*
X39136484Y-12093484D01*
X39771484Y-11839484D02*
X39771484Y-11733516D01*
X39665516Y-11733516D01*
X39665516Y-11839484D01*
X39771484Y-11839484D01*
X12466484Y-10188484D02*
X12466484Y-10082516D01*
X12360516Y-10082516D01*
X12360516Y-10188484D01*
X12466484Y-10188484D01*
X13101484Y-9934484D02*
X13101484Y-9828516D01*
X12995516Y-9828516D01*
X12995516Y-9934484D01*
X13101484Y-9934484D01*
X41041484Y-13045984D02*
X41041484Y-12940016D01*
X40935516Y-12940016D01*
X40935516Y-13045984D01*
X41041484Y-13045984D01*
X41676484Y-12791984D02*
X41676484Y-12686016D01*
X41570516Y-12686016D01*
X41570516Y-12791984D01*
X41676484Y-12791984D01*
X7942109Y-15903484D02*
X7942109Y-15797516D01*
X7836141Y-15797516D01*
X7836141Y-15903484D01*
X7942109Y-15903484D01*
X8577109Y-15649484D02*
X8577109Y-15543516D01*
X8471141Y-15543516D01*
X8471141Y-15649484D01*
X8577109Y-15649484D01*
X18657734Y-15903484D02*
X18657734Y-15797516D01*
X18551766Y-15797516D01*
X18551766Y-15903484D01*
X18657734Y-15903484D01*
X19292734Y-15649484D02*
X19292734Y-15543516D01*
X19186766Y-15543516D01*
X19186766Y-15649484D01*
X19292734Y-15649484D01*
X20086484Y-8283484D02*
X20086484Y-8177516D01*
X19980516Y-8177516D01*
X19980516Y-8283484D01*
X20086484Y-8283484D01*
X20721484Y-8029484D02*
X20721484Y-7923516D01*
X20615516Y-7923516D01*
X20615516Y-8029484D01*
X20721484Y-8029484D01*
X39136484Y-10188484D02*
X39136484Y-10082516D01*
X39030516Y-10082516D01*
X39030516Y-10188484D01*
X39136484Y-10188484D01*
X39771484Y-9934484D02*
X39771484Y-9828516D01*
X39665516Y-9828516D01*
X39665516Y-9934484D01*
X39771484Y-9934484D01*
X20562734Y-15903484D02*
X20562734Y-15797516D01*
X20456766Y-15797516D01*
X20456766Y-15903484D01*
X20562734Y-15903484D01*
X21197734Y-15649484D02*
X21197734Y-15543516D01*
X21091766Y-15543516D01*
X21091766Y-15649484D01*
X21197734Y-15649484D01*
X10561484Y-10188484D02*
X10561484Y-10082516D01*
X10455516Y-10082516D01*
X10455516Y-10188484D01*
X10561484Y-10188484D01*
X11196484Y-9934484D02*
X11196484Y-9828516D01*
X11090516Y-9828516D01*
X11090516Y-9934484D01*
X11196484Y-9934484D01*
X23896484Y-10188484D02*
X23896484Y-10082516D01*
X23790516Y-10082516D01*
X23790516Y-10188484D01*
X23896484Y-10188484D01*
X24531484Y-9934484D02*
X24531484Y-9828516D01*
X24425516Y-9828516D01*
X24425516Y-9934484D01*
X24531484Y-9934484D01*
X33421484Y-17808484D02*
X33421484Y-17702516D01*
X33315516Y-17702516D01*
X33315516Y-17808484D01*
X33421484Y-17808484D01*
X34056484Y-17554484D02*
X34056484Y-17448516D01*
X33950516Y-17448516D01*
X33950516Y-17554484D01*
X34056484Y-17554484D01*
X18181484Y-8283484D02*
X18181484Y-8177516D01*
X18075516Y-8177516D01*
X18075516Y-8283484D01*
X18181484Y-8283484D01*
X18816484Y-8029484D02*
X18816484Y-7923516D01*
X18710516Y-7923516D01*
X18710516Y-8029484D01*
X18816484Y-8029484D01*
X25325234Y-13998484D02*
X25325234Y-13892516D01*
X25219266Y-13892516D01*
X25219266Y-13998484D01*
X25325234Y-13998484D01*
X25960234Y-13744484D02*
X25960234Y-13638516D01*
X25854266Y-13638516D01*
X25854266Y-13744484D01*
X25960234Y-13744484D01*
X39136484Y-15903484D02*
X39136484Y-15797516D01*
X39030516Y-15797516D01*
X39030516Y-15903484D01*
X39136484Y-15903484D01*
X39771484Y-15649484D02*
X39771484Y-15543516D01*
X39665516Y-15543516D01*
X39665516Y-15649484D01*
X39771484Y-15649484D01*
X8656484Y-8283484D02*
X8656484Y-8177516D01*
X8550516Y-8177516D01*
X8550516Y-8283484D01*
X8656484Y-8283484D01*
X9291484Y-8029484D02*
X9291484Y-7923516D01*
X9185516Y-7923516D01*
X9185516Y-8029484D01*
X9291484Y-8029484D01*
X39136484Y-17808484D02*
X39136484Y-17702516D01*
X39030516Y-17702516D01*
X39030516Y-17808484D01*
X39136484Y-17808484D01*
X39771484Y-17554484D02*
X39771484Y-17448516D01*
X39665516Y-17448516D01*
X39665516Y-17554484D01*
X39771484Y-17554484D01*
X11752109Y-17808484D02*
X11752109Y-17702516D01*
X11646141Y-17702516D01*
X11646141Y-17808484D01*
X11752109Y-17808484D01*
X12387109Y-17554484D02*
X12387109Y-17448516D01*
X12281141Y-17448516D01*
X12281141Y-17554484D01*
X12387109Y-17554484D01*
X32468984Y-10188484D02*
X32468984Y-10082516D01*
X32363016Y-10082516D01*
X32363016Y-10188484D01*
X32468984Y-10188484D01*
X33103984Y-9934484D02*
X33103984Y-9828516D01*
X32998016Y-9828516D01*
X32998016Y-9934484D01*
X33103984Y-9934484D01*
X24372734Y-15903484D02*
X24372734Y-15797516D01*
X24266766Y-15797516D01*
X24266766Y-15903484D01*
X24372734Y-15903484D01*
X25007734Y-15649484D02*
X25007734Y-15543516D01*
X24901766Y-15543516D01*
X24901766Y-15649484D01*
X25007734Y-15649484D01*
X25801484Y-8283484D02*
X25801484Y-8177516D01*
X25695516Y-8177516D01*
X25695516Y-8283484D01*
X25801484Y-8283484D01*
X26436484Y-8029484D02*
X26436484Y-7923516D01*
X26330516Y-7923516D01*
X26330516Y-8029484D01*
X26436484Y-8029484D01*
X23420234Y-13998484D02*
X23420234Y-13892516D01*
X23314266Y-13892516D01*
X23314266Y-13998484D01*
X23420234Y-13998484D01*
X24055234Y-13744484D02*
X24055234Y-13638516D01*
X23949266Y-13638516D01*
X23949266Y-13744484D01*
X24055234Y-13744484D01*
X37231484Y-10188484D02*
X37231484Y-10082516D01*
X37125516Y-10082516D01*
X37125516Y-10188484D01*
X37231484Y-10188484D01*
X37866484Y-9934484D02*
X37866484Y-9828516D01*
X37760516Y-9828516D01*
X37760516Y-9934484D01*
X37866484Y-9934484D01*
X28658984Y-12093484D02*
X28658984Y-11987516D01*
X28553016Y-11987516D01*
X28553016Y-12093484D01*
X28658984Y-12093484D01*
X29293984Y-11839484D02*
X29293984Y-11733516D01*
X29188016Y-11733516D01*
X29188016Y-11839484D01*
X29293984Y-11839484D01*
X37231484Y-15903484D02*
X37231484Y-15797516D01*
X37125516Y-15797516D01*
X37125516Y-15903484D01*
X37231484Y-15903484D01*
X37866484Y-15649484D02*
X37866484Y-15543516D01*
X37760516Y-15543516D01*
X37760516Y-15649484D01*
X37866484Y-15649484D01*
X23896484Y-8283484D02*
X23896484Y-8177516D01*
X23790516Y-8177516D01*
X23790516Y-8283484D01*
X23896484Y-8283484D01*
X24531484Y-8029484D02*
X24531484Y-7923516D01*
X24425516Y-7923516D01*
X24425516Y-8029484D01*
X24531484Y-8029484D01*
X37231484Y-8283484D02*
X37231484Y-8177516D01*
X37125516Y-8177516D01*
X37125516Y-8283484D01*
X37231484Y-8283484D01*
X37866484Y-8029484D02*
X37866484Y-7923516D01*
X37760516Y-7923516D01*
X37760516Y-8029484D01*
X37866484Y-8029484D01*
X14847734Y-15903484D02*
X14847734Y-15797516D01*
X14741766Y-15797516D01*
X14741766Y-15903484D01*
X14847734Y-15903484D01*
X15482734Y-15649484D02*
X15482734Y-15543516D01*
X15376766Y-15543516D01*
X15376766Y-15649484D01*
X15482734Y-15649484D01*
X21991484Y-8283484D02*
X21991484Y-8177516D01*
X21885516Y-8177516D01*
X21885516Y-8283484D01*
X21991484Y-8283484D01*
X22626484Y-8029484D02*
X22626484Y-7923516D01*
X22520516Y-7923516D01*
X22520516Y-8029484D01*
X22626484Y-8029484D01*
X35326484Y-15903484D02*
X35326484Y-15797516D01*
X35220516Y-15797516D01*
X35220516Y-15903484D01*
X35326484Y-15903484D01*
X35961484Y-15649484D02*
X35961484Y-15543516D01*
X35855516Y-15543516D01*
X35855516Y-15649484D01*
X35961484Y-15649484D01*
X6989609Y-17808484D02*
X6989609Y-17702516D01*
X6883641Y-17702516D01*
X6883641Y-17808484D01*
X6989609Y-17808484D01*
X7624609Y-17554484D02*
X7624609Y-17448516D01*
X7518641Y-17448516D01*
X7518641Y-17554484D01*
X7624609Y-17554484D01*
X19133984Y-17808484D02*
X19133984Y-17702516D01*
X19028016Y-17702516D01*
X19028016Y-17808484D01*
X19133984Y-17808484D01*
X19768984Y-17554484D02*
X19768984Y-17448516D01*
X19663016Y-17448516D01*
X19663016Y-17554484D01*
X19768984Y-17554484D01*
X13895234Y-13998484D02*
X13895234Y-13892516D01*
X13789266Y-13892516D01*
X13789266Y-13998484D01*
X13895234Y-13998484D01*
X14530234Y-13744484D02*
X14530234Y-13638516D01*
X14424266Y-13638516D01*
X14424266Y-13744484D01*
X14530234Y-13744484D01*
X6751484Y-10188484D02*
X6751484Y-10082516D01*
X6645516Y-10082516D01*
X6645516Y-10188484D01*
X6751484Y-10188484D01*
X7386484Y-9934484D02*
X7386484Y-9828516D01*
X7280516Y-9828516D01*
X7280516Y-9934484D01*
X7386484Y-9934484D01*
X8656484Y-10188484D02*
X8656484Y-10082516D01*
X8550516Y-10082516D01*
X8550516Y-10188484D01*
X8656484Y-10188484D01*
X9291484Y-9934484D02*
X9291484Y-9828516D01*
X9185516Y-9828516D01*
X9185516Y-9934484D01*
X9291484Y-9934484D01*
X21038984Y-12093484D02*
X21038984Y-11987516D01*
X20933016Y-11987516D01*
X20933016Y-12093484D01*
X21038984Y-12093484D01*
X21673984Y-11839484D02*
X21673984Y-11733516D01*
X21568016Y-11733516D01*
X21568016Y-11839484D01*
X21673984Y-11839484D01*
X6751484Y-8283484D02*
X6751484Y-8177516D01*
X6645516Y-8177516D01*
X6645516Y-8283484D01*
X6751484Y-8283484D01*
X7386484Y-8029484D02*
X7386484Y-7923516D01*
X7280516Y-7923516D01*
X7280516Y-8029484D01*
X7386484Y-8029484D01*
X37231484Y-13998484D02*
X37231484Y-13892516D01*
X37125516Y-13892516D01*
X37125516Y-13998484D01*
X37231484Y-13998484D01*
X37866484Y-13744484D02*
X37866484Y-13638516D01*
X37760516Y-13638516D01*
X37760516Y-13744484D01*
X37866484Y-13744484D01*
X15800234Y-13998484D02*
X15800234Y-13892516D01*
X15694266Y-13892516D01*
X15694266Y-13998484D01*
X15800234Y-13998484D01*
X16435234Y-13744484D02*
X16435234Y-13638516D01*
X16329266Y-13638516D01*
X16329266Y-13744484D01*
X16435234Y-13744484D01*
X37231484Y-17808484D02*
X37231484Y-17702516D01*
X37125516Y-17702516D01*
X37125516Y-17808484D01*
X37231484Y-17808484D01*
X37866484Y-17554484D02*
X37866484Y-17448516D01*
X37760516Y-17448516D01*
X37760516Y-17554484D01*
X37866484Y-17554484D01*
X14371484Y-10188484D02*
X14371484Y-10082516D01*
X14265516Y-10082516D01*
X14265516Y-10188484D01*
X14371484Y-10188484D01*
X15006484Y-9934484D02*
X15006484Y-9828516D01*
X14900516Y-9828516D01*
X14900516Y-9934484D01*
X15006484Y-9934484D01*
D12*
X5281428Y-19170714D02*
X5281428Y-18870714D01*
X5352857Y-18870714D01*
X5395714Y-18885000D01*
X5424286Y-18913572D01*
X5438571Y-18942143D01*
X5452857Y-18999286D01*
X5452857Y-19042143D01*
X5438571Y-19099286D01*
X5424286Y-19127857D01*
X5395714Y-19156429D01*
X5352857Y-19170714D01*
X5281428Y-19170714D01*
X5581428Y-19170714D02*
X5581428Y-18970714D01*
X5581428Y-19027857D02*
X5595714Y-18999286D01*
X5610000Y-18985000D01*
X5638571Y-18970714D01*
X5667143Y-18970714D01*
X5767143Y-19170714D02*
X5767143Y-18970714D01*
X5767143Y-18870714D02*
X5752857Y-18885000D01*
X5767143Y-18899286D01*
X5781428Y-18885000D01*
X5767143Y-18870714D01*
X5767143Y-18899286D01*
X5952857Y-19170714D02*
X5924286Y-19156429D01*
X5910000Y-19127857D01*
X5910000Y-18870714D01*
X6110000Y-19170714D02*
X6081428Y-19156429D01*
X6067143Y-19127857D01*
X6067143Y-18870714D01*
X6452857Y-19170714D02*
X6452857Y-18870714D01*
X6552857Y-19085000D01*
X6652857Y-18870714D01*
X6652857Y-19170714D01*
X6924286Y-19170714D02*
X6924286Y-19013572D01*
X6910000Y-18985000D01*
X6881428Y-18970714D01*
X6824286Y-18970714D01*
X6795714Y-18985000D01*
X6924286Y-19156429D02*
X6895714Y-19170714D01*
X6824286Y-19170714D01*
X6795714Y-19156429D01*
X6781428Y-19127857D01*
X6781428Y-19099286D01*
X6795714Y-19070714D01*
X6824286Y-19056429D01*
X6895714Y-19056429D01*
X6924286Y-19042143D01*
X7067143Y-18970714D02*
X7067143Y-19270714D01*
X7067143Y-18985000D02*
X7095714Y-18970714D01*
X7152857Y-18970714D01*
X7181428Y-18985000D01*
X7195714Y-18999286D01*
X7210000Y-19027857D01*
X7210000Y-19113572D01*
X7195714Y-19142143D01*
X7181428Y-19156429D01*
X7152857Y-19170714D01*
X7095714Y-19170714D01*
X7067143Y-19156429D01*
X7338571Y-19142143D02*
X7352857Y-19156429D01*
X7338571Y-19170714D01*
X7324286Y-19156429D01*
X7338571Y-19142143D01*
X7338571Y-19170714D01*
X7338571Y-18985000D02*
X7352857Y-18999286D01*
X7338571Y-19013572D01*
X7324286Y-18999286D01*
X7338571Y-18985000D01*
X7338571Y-19013572D01*
X4955000Y-19645000D02*
X4995000Y-19685000D01*
X4995000Y-19645000D02*
X4955000Y-19685000D01*
X5338571Y-19500714D02*
X5367143Y-19500714D01*
X5395714Y-19515000D01*
X5410000Y-19529286D01*
X5424286Y-19557857D01*
X5438571Y-19615000D01*
X5438571Y-19686429D01*
X5424286Y-19743572D01*
X5410000Y-19772143D01*
X5395714Y-19786429D01*
X5367143Y-19800714D01*
X5338571Y-19800714D01*
X5310000Y-19786429D01*
X5295714Y-19772143D01*
X5281428Y-19743572D01*
X5267143Y-19686429D01*
X5267143Y-19615000D01*
X5281428Y-19557857D01*
X5295714Y-19529286D01*
X5310000Y-19515000D01*
X5338571Y-19500714D01*
X5567143Y-19772143D02*
X5581428Y-19786429D01*
X5567143Y-19800714D01*
X5552857Y-19786429D01*
X5567143Y-19772143D01*
X5567143Y-19800714D01*
X5838571Y-19600714D02*
X5838571Y-19800714D01*
X5767143Y-19486429D02*
X5695714Y-19700714D01*
X5881428Y-19700714D01*
X6052857Y-19500714D02*
X6081428Y-19500714D01*
X6110000Y-19515000D01*
X6124286Y-19529286D01*
X6138571Y-19557857D01*
X6152857Y-19615000D01*
X6152857Y-19686429D01*
X6138571Y-19743572D01*
X6124286Y-19772143D01*
X6110000Y-19786429D01*
X6081428Y-19800714D01*
X6052857Y-19800714D01*
X6024286Y-19786429D01*
X6010000Y-19772143D01*
X5995714Y-19743572D01*
X5981428Y-19686429D01*
X5981428Y-19615000D01*
X5995714Y-19557857D01*
X6010000Y-19529286D01*
X6024286Y-19515000D01*
X6052857Y-19500714D01*
X6281428Y-19800714D02*
X6281428Y-19600714D01*
X6281428Y-19629286D02*
X6295714Y-19615000D01*
X6324286Y-19600714D01*
X6367143Y-19600714D01*
X6395714Y-19615000D01*
X6410000Y-19643572D01*
X6410000Y-19800714D01*
X6410000Y-19643572D02*
X6424286Y-19615000D01*
X6452857Y-19600714D01*
X6495714Y-19600714D01*
X6524286Y-19615000D01*
X6538571Y-19643572D01*
X6538571Y-19800714D01*
X6681428Y-19800714D02*
X6681428Y-19600714D01*
X6681428Y-19629286D02*
X6695714Y-19615000D01*
X6724286Y-19600714D01*
X6767143Y-19600714D01*
X6795714Y-19615000D01*
X6810000Y-19643572D01*
X6810000Y-19800714D01*
X6810000Y-19643572D02*
X6824286Y-19615000D01*
X6852857Y-19600714D01*
X6895714Y-19600714D01*
X6924286Y-19615000D01*
X6938571Y-19643572D01*
X6938571Y-19800714D01*
X7524286Y-19486429D02*
X7267143Y-19872143D01*
X7910000Y-19500714D02*
X7938571Y-19500714D01*
X7967143Y-19515000D01*
X7981428Y-19529286D01*
X7995714Y-19557857D01*
X8010000Y-19615000D01*
X8010000Y-19686429D01*
X7995714Y-19743572D01*
X7981428Y-19772143D01*
X7967143Y-19786429D01*
X7938571Y-19800714D01*
X7910000Y-19800714D01*
X7881428Y-19786429D01*
X7867143Y-19772143D01*
X7852857Y-19743572D01*
X7838571Y-19686429D01*
X7838571Y-19615000D01*
X7852857Y-19557857D01*
X7867143Y-19529286D01*
X7881428Y-19515000D01*
X7910000Y-19500714D01*
X8138571Y-19772143D02*
X8152857Y-19786429D01*
X8138571Y-19800714D01*
X8124286Y-19786429D01*
X8138571Y-19772143D01*
X8138571Y-19800714D01*
X8338571Y-19500714D02*
X8367143Y-19500714D01*
X8395714Y-19515000D01*
X8410000Y-19529286D01*
X8424286Y-19557857D01*
X8438571Y-19615000D01*
X8438571Y-19686429D01*
X8424286Y-19743572D01*
X8410000Y-19772143D01*
X8395714Y-19786429D01*
X8367143Y-19800714D01*
X8338571Y-19800714D01*
X8310000Y-19786429D01*
X8295714Y-19772143D01*
X8281428Y-19743572D01*
X8267143Y-19686429D01*
X8267143Y-19615000D01*
X8281428Y-19557857D01*
X8295714Y-19529286D01*
X8310000Y-19515000D01*
X8338571Y-19500714D01*
X8724286Y-19800714D02*
X8552857Y-19800714D01*
X8638571Y-19800714D02*
X8638571Y-19500714D01*
X8610000Y-19543572D01*
X8581428Y-19572143D01*
X8552857Y-19586429D01*
X8981428Y-19500714D02*
X8924286Y-19500714D01*
X8895714Y-19515000D01*
X8881428Y-19529286D01*
X8852857Y-19572143D01*
X8838571Y-19629286D01*
X8838571Y-19743572D01*
X8852857Y-19772143D01*
X8867143Y-19786429D01*
X8895714Y-19800714D01*
X8952857Y-19800714D01*
X8981428Y-19786429D01*
X8995714Y-19772143D01*
X9010000Y-19743572D01*
X9010000Y-19672143D01*
X8995714Y-19643572D01*
X8981428Y-19629286D01*
X8952857Y-19615000D01*
X8895714Y-19615000D01*
X8867143Y-19629286D01*
X8852857Y-19643572D01*
X8838571Y-19672143D01*
X9124286Y-19500714D02*
X9124286Y-19557857D01*
X9238571Y-19500714D02*
X9238571Y-19557857D01*
X9681428Y-19915000D02*
X9667143Y-19900714D01*
X9638571Y-19857857D01*
X9624286Y-19829286D01*
X9610000Y-19786429D01*
X9595714Y-19715000D01*
X9595714Y-19657857D01*
X9610000Y-19586429D01*
X9624286Y-19543572D01*
X9638571Y-19515000D01*
X9667143Y-19472143D01*
X9681428Y-19457857D01*
X9952857Y-19800714D02*
X9781428Y-19800714D01*
X9867143Y-19800714D02*
X9867143Y-19500714D01*
X9838571Y-19543572D01*
X9810000Y-19572143D01*
X9781428Y-19586429D01*
X10067143Y-19529286D02*
X10081428Y-19515000D01*
X10110000Y-19500714D01*
X10181428Y-19500714D01*
X10210000Y-19515000D01*
X10224286Y-19529286D01*
X10238571Y-19557857D01*
X10238571Y-19586429D01*
X10224286Y-19629286D01*
X10052857Y-19800714D01*
X10238571Y-19800714D01*
X10595714Y-19800714D02*
X10595714Y-19500714D01*
X10724286Y-19800714D02*
X10724286Y-19643572D01*
X10710000Y-19615000D01*
X10681428Y-19600714D01*
X10638571Y-19600714D01*
X10610000Y-19615000D01*
X10595714Y-19629286D01*
X10910000Y-19800714D02*
X10881428Y-19786429D01*
X10867143Y-19772143D01*
X10852857Y-19743572D01*
X10852857Y-19657857D01*
X10867143Y-19629286D01*
X10881428Y-19615000D01*
X10910000Y-19600714D01*
X10952857Y-19600714D01*
X10981428Y-19615000D01*
X10995714Y-19629286D01*
X11010000Y-19657857D01*
X11010000Y-19743572D01*
X10995714Y-19772143D01*
X10981428Y-19786429D01*
X10952857Y-19800714D01*
X10910000Y-19800714D01*
X11181428Y-19800714D02*
X11152857Y-19786429D01*
X11138571Y-19757857D01*
X11138571Y-19500714D01*
X11410000Y-19786429D02*
X11381428Y-19800714D01*
X11324286Y-19800714D01*
X11295714Y-19786429D01*
X11281428Y-19757857D01*
X11281428Y-19643572D01*
X11295714Y-19615000D01*
X11324286Y-19600714D01*
X11381428Y-19600714D01*
X11410000Y-19615000D01*
X11424286Y-19643572D01*
X11424286Y-19672143D01*
X11281428Y-19700714D01*
X11538571Y-19786429D02*
X11567143Y-19800714D01*
X11624286Y-19800714D01*
X11652857Y-19786429D01*
X11667143Y-19757857D01*
X11667143Y-19743572D01*
X11652857Y-19715000D01*
X11624286Y-19700714D01*
X11581428Y-19700714D01*
X11552857Y-19686429D01*
X11538571Y-19657857D01*
X11538571Y-19643572D01*
X11552857Y-19615000D01*
X11581428Y-19600714D01*
X11624286Y-19600714D01*
X11652857Y-19615000D01*
X11767143Y-19915000D02*
X11781428Y-19900714D01*
X11810000Y-19857857D01*
X11824286Y-19829286D01*
X11838571Y-19786429D01*
X11852857Y-19715000D01*
X11852857Y-19657857D01*
X11838571Y-19586429D01*
X11824286Y-19543572D01*
X11810000Y-19515000D01*
X11781428Y-19472143D01*
X11767143Y-19457857D01*
X4995000Y-20061000D02*
G75*
G03X4995000Y-20061000I-45000J0D01*
G01*
X5338571Y-19896714D02*
X5367143Y-19896714D01*
X5395714Y-19911000D01*
X5410000Y-19925286D01*
X5424286Y-19953857D01*
X5438571Y-20011000D01*
X5438571Y-20082429D01*
X5424286Y-20139572D01*
X5410000Y-20168143D01*
X5395714Y-20182429D01*
X5367143Y-20196714D01*
X5338571Y-20196714D01*
X5310000Y-20182429D01*
X5295714Y-20168143D01*
X5281428Y-20139572D01*
X5267143Y-20082429D01*
X5267143Y-20011000D01*
X5281428Y-19953857D01*
X5295714Y-19925286D01*
X5310000Y-19911000D01*
X5338571Y-19896714D01*
X5567143Y-20168143D02*
X5581428Y-20182429D01*
X5567143Y-20196714D01*
X5552857Y-20182429D01*
X5567143Y-20168143D01*
X5567143Y-20196714D01*
X5724286Y-20196714D02*
X5781428Y-20196714D01*
X5810000Y-20182429D01*
X5824286Y-20168143D01*
X5852857Y-20125286D01*
X5867143Y-20068143D01*
X5867143Y-19953857D01*
X5852857Y-19925286D01*
X5838571Y-19911000D01*
X5810000Y-19896714D01*
X5752857Y-19896714D01*
X5724286Y-19911000D01*
X5710000Y-19925286D01*
X5695714Y-19953857D01*
X5695714Y-20025286D01*
X5710000Y-20053857D01*
X5724286Y-20068143D01*
X5752857Y-20082429D01*
X5810000Y-20082429D01*
X5838571Y-20068143D01*
X5852857Y-20053857D01*
X5867143Y-20025286D01*
X6052857Y-19896714D02*
X6081428Y-19896714D01*
X6110000Y-19911000D01*
X6124286Y-19925286D01*
X6138571Y-19953857D01*
X6152857Y-20011000D01*
X6152857Y-20082429D01*
X6138571Y-20139572D01*
X6124286Y-20168143D01*
X6110000Y-20182429D01*
X6081428Y-20196714D01*
X6052857Y-20196714D01*
X6024286Y-20182429D01*
X6010000Y-20168143D01*
X5995714Y-20139572D01*
X5981428Y-20082429D01*
X5981428Y-20011000D01*
X5995714Y-19953857D01*
X6010000Y-19925286D01*
X6024286Y-19911000D01*
X6052857Y-19896714D01*
X6281428Y-20196714D02*
X6281428Y-19996714D01*
X6281428Y-20025286D02*
X6295714Y-20011000D01*
X6324286Y-19996714D01*
X6367143Y-19996714D01*
X6395714Y-20011000D01*
X6410000Y-20039572D01*
X6410000Y-20196714D01*
X6410000Y-20039572D02*
X6424286Y-20011000D01*
X6452857Y-19996714D01*
X6495714Y-19996714D01*
X6524286Y-20011000D01*
X6538571Y-20039572D01*
X6538571Y-20196714D01*
X6681428Y-20196714D02*
X6681428Y-19996714D01*
X6681428Y-20025286D02*
X6695714Y-20011000D01*
X6724286Y-19996714D01*
X6767143Y-19996714D01*
X6795714Y-20011000D01*
X6810000Y-20039572D01*
X6810000Y-20196714D01*
X6810000Y-20039572D02*
X6824286Y-20011000D01*
X6852857Y-19996714D01*
X6895714Y-19996714D01*
X6924286Y-20011000D01*
X6938571Y-20039572D01*
X6938571Y-20196714D01*
X7524286Y-19882429D02*
X7267143Y-20268143D01*
X7910000Y-19896714D02*
X7938571Y-19896714D01*
X7967143Y-19911000D01*
X7981428Y-19925286D01*
X7995714Y-19953857D01*
X8010000Y-20011000D01*
X8010000Y-20082429D01*
X7995714Y-20139572D01*
X7981428Y-20168143D01*
X7967143Y-20182429D01*
X7938571Y-20196714D01*
X7910000Y-20196714D01*
X7881428Y-20182429D01*
X7867143Y-20168143D01*
X7852857Y-20139572D01*
X7838571Y-20082429D01*
X7838571Y-20011000D01*
X7852857Y-19953857D01*
X7867143Y-19925286D01*
X7881428Y-19911000D01*
X7910000Y-19896714D01*
X8138571Y-20168143D02*
X8152857Y-20182429D01*
X8138571Y-20196714D01*
X8124286Y-20182429D01*
X8138571Y-20168143D01*
X8138571Y-20196714D01*
X8338571Y-19896714D02*
X8367143Y-19896714D01*
X8395714Y-19911000D01*
X8410000Y-19925286D01*
X8424286Y-19953857D01*
X8438571Y-20011000D01*
X8438571Y-20082429D01*
X8424286Y-20139572D01*
X8410000Y-20168143D01*
X8395714Y-20182429D01*
X8367143Y-20196714D01*
X8338571Y-20196714D01*
X8310000Y-20182429D01*
X8295714Y-20168143D01*
X8281428Y-20139572D01*
X8267143Y-20082429D01*
X8267143Y-20011000D01*
X8281428Y-19953857D01*
X8295714Y-19925286D01*
X8310000Y-19911000D01*
X8338571Y-19896714D01*
X8538571Y-19896714D02*
X8724286Y-19896714D01*
X8624286Y-20011000D01*
X8667143Y-20011000D01*
X8695714Y-20025286D01*
X8710000Y-20039572D01*
X8724286Y-20068143D01*
X8724286Y-20139572D01*
X8710000Y-20168143D01*
X8695714Y-20182429D01*
X8667143Y-20196714D01*
X8581428Y-20196714D01*
X8552857Y-20182429D01*
X8538571Y-20168143D01*
X8995714Y-19896714D02*
X8852857Y-19896714D01*
X8838571Y-20039572D01*
X8852857Y-20025286D01*
X8881428Y-20011000D01*
X8952857Y-20011000D01*
X8981428Y-20025286D01*
X8995714Y-20039572D01*
X9010000Y-20068143D01*
X9010000Y-20139572D01*
X8995714Y-20168143D01*
X8981428Y-20182429D01*
X8952857Y-20196714D01*
X8881428Y-20196714D01*
X8852857Y-20182429D01*
X8838571Y-20168143D01*
X9124286Y-19896714D02*
X9124286Y-19953857D01*
X9238571Y-19896714D02*
X9238571Y-19953857D01*
X9681428Y-20311000D02*
X9667143Y-20296714D01*
X9638571Y-20253857D01*
X9624286Y-20225286D01*
X9610000Y-20182429D01*
X9595714Y-20111000D01*
X9595714Y-20053857D01*
X9610000Y-19982429D01*
X9624286Y-19939572D01*
X9638571Y-19911000D01*
X9667143Y-19868143D01*
X9681428Y-19853857D01*
X9781428Y-19925286D02*
X9795714Y-19911000D01*
X9824286Y-19896714D01*
X9895714Y-19896714D01*
X9924286Y-19911000D01*
X9938571Y-19925286D01*
X9952857Y-19953857D01*
X9952857Y-19982429D01*
X9938571Y-20025286D01*
X9767143Y-20196714D01*
X9952857Y-20196714D01*
X10052857Y-19896714D02*
X10238571Y-19896714D01*
X10138571Y-20011000D01*
X10181428Y-20011000D01*
X10210000Y-20025286D01*
X10224286Y-20039572D01*
X10238571Y-20068143D01*
X10238571Y-20139572D01*
X10224286Y-20168143D01*
X10210000Y-20182429D01*
X10181428Y-20196714D01*
X10095714Y-20196714D01*
X10067143Y-20182429D01*
X10052857Y-20168143D01*
X10495714Y-19896714D02*
X10438571Y-19896714D01*
X10410000Y-19911000D01*
X10395714Y-19925286D01*
X10367143Y-19968143D01*
X10352857Y-20025286D01*
X10352857Y-20139572D01*
X10367143Y-20168143D01*
X10381428Y-20182429D01*
X10410000Y-20196714D01*
X10467143Y-20196714D01*
X10495714Y-20182429D01*
X10510000Y-20168143D01*
X10524286Y-20139572D01*
X10524286Y-20068143D01*
X10510000Y-20039572D01*
X10495714Y-20025286D01*
X10467143Y-20011000D01*
X10410000Y-20011000D01*
X10381428Y-20025286D01*
X10367143Y-20039572D01*
X10352857Y-20068143D01*
X10881428Y-20196714D02*
X10881428Y-19896714D01*
X11010000Y-20196714D02*
X11010000Y-20039572D01*
X10995714Y-20011000D01*
X10967143Y-19996714D01*
X10924286Y-19996714D01*
X10895714Y-20011000D01*
X10881428Y-20025286D01*
X11195714Y-20196714D02*
X11167143Y-20182429D01*
X11152857Y-20168143D01*
X11138571Y-20139572D01*
X11138571Y-20053857D01*
X11152857Y-20025286D01*
X11167143Y-20011000D01*
X11195714Y-19996714D01*
X11238571Y-19996714D01*
X11267143Y-20011000D01*
X11281428Y-20025286D01*
X11295714Y-20053857D01*
X11295714Y-20139572D01*
X11281428Y-20168143D01*
X11267143Y-20182429D01*
X11238571Y-20196714D01*
X11195714Y-20196714D01*
X11467143Y-20196714D02*
X11438571Y-20182429D01*
X11424286Y-20153857D01*
X11424286Y-19896714D01*
X11695714Y-20182429D02*
X11667143Y-20196714D01*
X11610000Y-20196714D01*
X11581428Y-20182429D01*
X11567143Y-20153857D01*
X11567143Y-20039572D01*
X11581428Y-20011000D01*
X11610000Y-19996714D01*
X11667143Y-19996714D01*
X11695714Y-20011000D01*
X11710000Y-20039572D01*
X11710000Y-20068143D01*
X11567143Y-20096714D01*
X11824286Y-20182429D02*
X11852857Y-20196714D01*
X11910000Y-20196714D01*
X11938571Y-20182429D01*
X11952857Y-20153857D01*
X11952857Y-20139572D01*
X11938571Y-20111000D01*
X11910000Y-20096714D01*
X11867143Y-20096714D01*
X11838571Y-20082429D01*
X11824286Y-20053857D01*
X11824286Y-20039572D01*
X11838571Y-20011000D01*
X11867143Y-19996714D01*
X11910000Y-19996714D01*
X11938571Y-20011000D01*
X12052857Y-20311000D02*
X12067143Y-20296714D01*
X12095714Y-20253857D01*
X12110000Y-20225286D01*
X12124286Y-20182429D01*
X12138571Y-20111000D01*
X12138571Y-20053857D01*
X12124286Y-19982429D01*
X12110000Y-19939572D01*
X12095714Y-19911000D01*
X12067143Y-19868143D01*
X12052857Y-19853857D01*
X4945000Y-20407000D02*
X4945000Y-20507000D01*
X4895000Y-20457000D02*
X4995000Y-20457000D01*
X5438571Y-20592714D02*
X5267143Y-20592714D01*
X5352857Y-20592714D02*
X5352857Y-20292714D01*
X5324286Y-20335572D01*
X5295714Y-20364143D01*
X5267143Y-20378429D01*
X5567143Y-20564143D02*
X5581428Y-20578429D01*
X5567143Y-20592714D01*
X5552857Y-20578429D01*
X5567143Y-20564143D01*
X5567143Y-20592714D01*
X5767143Y-20292714D02*
X5795714Y-20292714D01*
X5824286Y-20307000D01*
X5838571Y-20321286D01*
X5852857Y-20349857D01*
X5867143Y-20407000D01*
X5867143Y-20478429D01*
X5852857Y-20535572D01*
X5838571Y-20564143D01*
X5824286Y-20578429D01*
X5795714Y-20592714D01*
X5767143Y-20592714D01*
X5738571Y-20578429D01*
X5724286Y-20564143D01*
X5710000Y-20535572D01*
X5695714Y-20478429D01*
X5695714Y-20407000D01*
X5710000Y-20349857D01*
X5724286Y-20321286D01*
X5738571Y-20307000D01*
X5767143Y-20292714D01*
X6052857Y-20292714D02*
X6081428Y-20292714D01*
X6110000Y-20307000D01*
X6124286Y-20321286D01*
X6138571Y-20349857D01*
X6152857Y-20407000D01*
X6152857Y-20478429D01*
X6138571Y-20535572D01*
X6124286Y-20564143D01*
X6110000Y-20578429D01*
X6081428Y-20592714D01*
X6052857Y-20592714D01*
X6024286Y-20578429D01*
X6010000Y-20564143D01*
X5995714Y-20535572D01*
X5981428Y-20478429D01*
X5981428Y-20407000D01*
X5995714Y-20349857D01*
X6010000Y-20321286D01*
X6024286Y-20307000D01*
X6052857Y-20292714D01*
X6281428Y-20592714D02*
X6281428Y-20392714D01*
X6281428Y-20421286D02*
X6295714Y-20407000D01*
X6324286Y-20392714D01*
X6367143Y-20392714D01*
X6395714Y-20407000D01*
X6410000Y-20435572D01*
X6410000Y-20592714D01*
X6410000Y-20435572D02*
X6424286Y-20407000D01*
X6452857Y-20392714D01*
X6495714Y-20392714D01*
X6524286Y-20407000D01*
X6538571Y-20435572D01*
X6538571Y-20592714D01*
X6681428Y-20592714D02*
X6681428Y-20392714D01*
X6681428Y-20421286D02*
X6695714Y-20407000D01*
X6724286Y-20392714D01*
X6767143Y-20392714D01*
X6795714Y-20407000D01*
X6810000Y-20435572D01*
X6810000Y-20592714D01*
X6810000Y-20435572D02*
X6824286Y-20407000D01*
X6852857Y-20392714D01*
X6895714Y-20392714D01*
X6924286Y-20407000D01*
X6938571Y-20435572D01*
X6938571Y-20592714D01*
X7524286Y-20278429D02*
X7267143Y-20664143D01*
X7910000Y-20292714D02*
X7938571Y-20292714D01*
X7967143Y-20307000D01*
X7981428Y-20321286D01*
X7995714Y-20349857D01*
X8010000Y-20407000D01*
X8010000Y-20478429D01*
X7995714Y-20535572D01*
X7981428Y-20564143D01*
X7967143Y-20578429D01*
X7938571Y-20592714D01*
X7910000Y-20592714D01*
X7881428Y-20578429D01*
X7867143Y-20564143D01*
X7852857Y-20535572D01*
X7838571Y-20478429D01*
X7838571Y-20407000D01*
X7852857Y-20349857D01*
X7867143Y-20321286D01*
X7881428Y-20307000D01*
X7910000Y-20292714D01*
X8138571Y-20564143D02*
X8152857Y-20578429D01*
X8138571Y-20592714D01*
X8124286Y-20578429D01*
X8138571Y-20564143D01*
X8138571Y-20592714D01*
X8338571Y-20292714D02*
X8367143Y-20292714D01*
X8395714Y-20307000D01*
X8410000Y-20321286D01*
X8424286Y-20349857D01*
X8438571Y-20407000D01*
X8438571Y-20478429D01*
X8424286Y-20535572D01*
X8410000Y-20564143D01*
X8395714Y-20578429D01*
X8367143Y-20592714D01*
X8338571Y-20592714D01*
X8310000Y-20578429D01*
X8295714Y-20564143D01*
X8281428Y-20535572D01*
X8267143Y-20478429D01*
X8267143Y-20407000D01*
X8281428Y-20349857D01*
X8295714Y-20321286D01*
X8310000Y-20307000D01*
X8338571Y-20292714D01*
X8538571Y-20292714D02*
X8724286Y-20292714D01*
X8624286Y-20407000D01*
X8667143Y-20407000D01*
X8695714Y-20421286D01*
X8710000Y-20435572D01*
X8724286Y-20464143D01*
X8724286Y-20535572D01*
X8710000Y-20564143D01*
X8695714Y-20578429D01*
X8667143Y-20592714D01*
X8581428Y-20592714D01*
X8552857Y-20578429D01*
X8538571Y-20564143D01*
X8867143Y-20592714D02*
X8924286Y-20592714D01*
X8952857Y-20578429D01*
X8967143Y-20564143D01*
X8995714Y-20521286D01*
X9010000Y-20464143D01*
X9010000Y-20349857D01*
X8995714Y-20321286D01*
X8981428Y-20307000D01*
X8952857Y-20292714D01*
X8895714Y-20292714D01*
X8867143Y-20307000D01*
X8852857Y-20321286D01*
X8838571Y-20349857D01*
X8838571Y-20421286D01*
X8852857Y-20449857D01*
X8867143Y-20464143D01*
X8895714Y-20478429D01*
X8952857Y-20478429D01*
X8981428Y-20464143D01*
X8995714Y-20449857D01*
X9010000Y-20421286D01*
X9124286Y-20292714D02*
X9124286Y-20349857D01*
X9238571Y-20292714D02*
X9238571Y-20349857D01*
X9681428Y-20707000D02*
X9667143Y-20692714D01*
X9638571Y-20649857D01*
X9624286Y-20621286D01*
X9610000Y-20578429D01*
X9595714Y-20507000D01*
X9595714Y-20449857D01*
X9610000Y-20378429D01*
X9624286Y-20335572D01*
X9638571Y-20307000D01*
X9667143Y-20264143D01*
X9681428Y-20249857D01*
X9767143Y-20292714D02*
X9952857Y-20292714D01*
X9852857Y-20407000D01*
X9895714Y-20407000D01*
X9924286Y-20421286D01*
X9938571Y-20435572D01*
X9952857Y-20464143D01*
X9952857Y-20535572D01*
X9938571Y-20564143D01*
X9924286Y-20578429D01*
X9895714Y-20592714D01*
X9810000Y-20592714D01*
X9781428Y-20578429D01*
X9767143Y-20564143D01*
X10310000Y-20592714D02*
X10310000Y-20292714D01*
X10438571Y-20592714D02*
X10438571Y-20435572D01*
X10424286Y-20407000D01*
X10395714Y-20392714D01*
X10352857Y-20392714D01*
X10324286Y-20407000D01*
X10310000Y-20421286D01*
X10624286Y-20592714D02*
X10595714Y-20578429D01*
X10581428Y-20564143D01*
X10567143Y-20535572D01*
X10567143Y-20449857D01*
X10581428Y-20421286D01*
X10595714Y-20407000D01*
X10624286Y-20392714D01*
X10667143Y-20392714D01*
X10695714Y-20407000D01*
X10710000Y-20421286D01*
X10724286Y-20449857D01*
X10724286Y-20535572D01*
X10710000Y-20564143D01*
X10695714Y-20578429D01*
X10667143Y-20592714D01*
X10624286Y-20592714D01*
X10895714Y-20592714D02*
X10867143Y-20578429D01*
X10852857Y-20549857D01*
X10852857Y-20292714D01*
X11124286Y-20578429D02*
X11095714Y-20592714D01*
X11038571Y-20592714D01*
X11010000Y-20578429D01*
X10995714Y-20549857D01*
X10995714Y-20435572D01*
X11010000Y-20407000D01*
X11038571Y-20392714D01*
X11095714Y-20392714D01*
X11124286Y-20407000D01*
X11138571Y-20435572D01*
X11138571Y-20464143D01*
X10995714Y-20492714D01*
X11252857Y-20578429D02*
X11281428Y-20592714D01*
X11338571Y-20592714D01*
X11367143Y-20578429D01*
X11381428Y-20549857D01*
X11381428Y-20535572D01*
X11367143Y-20507000D01*
X11338571Y-20492714D01*
X11295714Y-20492714D01*
X11267143Y-20478429D01*
X11252857Y-20449857D01*
X11252857Y-20435572D01*
X11267143Y-20407000D01*
X11295714Y-20392714D01*
X11338571Y-20392714D01*
X11367143Y-20407000D01*
X11481428Y-20707000D02*
X11495714Y-20692714D01*
X11524286Y-20649857D01*
X11538571Y-20621286D01*
X11552857Y-20578429D01*
X11567143Y-20507000D01*
X11567143Y-20449857D01*
X11552857Y-20378429D01*
X11538571Y-20335572D01*
X11524286Y-20307000D01*
X11495714Y-20264143D01*
X11481428Y-20249857D01*
X4973054Y-20905984D02*
X4973054Y-20800016D01*
X4867086Y-20800016D01*
X4867086Y-20905984D01*
X4973054Y-20905984D01*
X5438571Y-20988714D02*
X5267143Y-20988714D01*
X5352857Y-20988714D02*
X5352857Y-20688714D01*
X5324286Y-20731572D01*
X5295714Y-20760143D01*
X5267143Y-20774429D01*
X5567143Y-20960143D02*
X5581428Y-20974429D01*
X5567143Y-20988714D01*
X5552857Y-20974429D01*
X5567143Y-20960143D01*
X5567143Y-20988714D01*
X5852857Y-20688714D02*
X5710000Y-20688714D01*
X5695714Y-20831572D01*
X5710000Y-20817286D01*
X5738571Y-20803000D01*
X5810000Y-20803000D01*
X5838571Y-20817286D01*
X5852857Y-20831572D01*
X5867143Y-20860143D01*
X5867143Y-20931572D01*
X5852857Y-20960143D01*
X5838571Y-20974429D01*
X5810000Y-20988714D01*
X5738571Y-20988714D01*
X5710000Y-20974429D01*
X5695714Y-20960143D01*
X6052857Y-20688714D02*
X6081428Y-20688714D01*
X6110000Y-20703000D01*
X6124286Y-20717286D01*
X6138571Y-20745857D01*
X6152857Y-20803000D01*
X6152857Y-20874429D01*
X6138571Y-20931572D01*
X6124286Y-20960143D01*
X6110000Y-20974429D01*
X6081428Y-20988714D01*
X6052857Y-20988714D01*
X6024286Y-20974429D01*
X6010000Y-20960143D01*
X5995714Y-20931572D01*
X5981428Y-20874429D01*
X5981428Y-20803000D01*
X5995714Y-20745857D01*
X6010000Y-20717286D01*
X6024286Y-20703000D01*
X6052857Y-20688714D01*
X6281428Y-20988714D02*
X6281428Y-20788714D01*
X6281428Y-20817286D02*
X6295714Y-20803000D01*
X6324286Y-20788714D01*
X6367143Y-20788714D01*
X6395714Y-20803000D01*
X6410000Y-20831572D01*
X6410000Y-20988714D01*
X6410000Y-20831572D02*
X6424286Y-20803000D01*
X6452857Y-20788714D01*
X6495714Y-20788714D01*
X6524286Y-20803000D01*
X6538571Y-20831572D01*
X6538571Y-20988714D01*
X6681428Y-20988714D02*
X6681428Y-20788714D01*
X6681428Y-20817286D02*
X6695714Y-20803000D01*
X6724286Y-20788714D01*
X6767143Y-20788714D01*
X6795714Y-20803000D01*
X6810000Y-20831572D01*
X6810000Y-20988714D01*
X6810000Y-20831572D02*
X6824286Y-20803000D01*
X6852857Y-20788714D01*
X6895714Y-20788714D01*
X6924286Y-20803000D01*
X6938571Y-20831572D01*
X6938571Y-20988714D01*
X7524286Y-20674429D02*
X7267143Y-21060143D01*
X7910000Y-20688714D02*
X7938571Y-20688714D01*
X7967143Y-20703000D01*
X7981428Y-20717286D01*
X7995714Y-20745857D01*
X8010000Y-20803000D01*
X8010000Y-20874429D01*
X7995714Y-20931572D01*
X7981428Y-20960143D01*
X7967143Y-20974429D01*
X7938571Y-20988714D01*
X7910000Y-20988714D01*
X7881428Y-20974429D01*
X7867143Y-20960143D01*
X7852857Y-20931572D01*
X7838571Y-20874429D01*
X7838571Y-20803000D01*
X7852857Y-20745857D01*
X7867143Y-20717286D01*
X7881428Y-20703000D01*
X7910000Y-20688714D01*
X8138571Y-20960143D02*
X8152857Y-20974429D01*
X8138571Y-20988714D01*
X8124286Y-20974429D01*
X8138571Y-20960143D01*
X8138571Y-20988714D01*
X8338571Y-20688714D02*
X8367143Y-20688714D01*
X8395714Y-20703000D01*
X8410000Y-20717286D01*
X8424286Y-20745857D01*
X8438571Y-20803000D01*
X8438571Y-20874429D01*
X8424286Y-20931572D01*
X8410000Y-20960143D01*
X8395714Y-20974429D01*
X8367143Y-20988714D01*
X8338571Y-20988714D01*
X8310000Y-20974429D01*
X8295714Y-20960143D01*
X8281428Y-20931572D01*
X8267143Y-20874429D01*
X8267143Y-20803000D01*
X8281428Y-20745857D01*
X8295714Y-20717286D01*
X8310000Y-20703000D01*
X8338571Y-20688714D01*
X8710000Y-20688714D02*
X8567143Y-20688714D01*
X8552857Y-20831572D01*
X8567143Y-20817286D01*
X8595714Y-20803000D01*
X8667143Y-20803000D01*
X8695714Y-20817286D01*
X8710000Y-20831572D01*
X8724286Y-20860143D01*
X8724286Y-20931572D01*
X8710000Y-20960143D01*
X8695714Y-20974429D01*
X8667143Y-20988714D01*
X8595714Y-20988714D01*
X8567143Y-20974429D01*
X8552857Y-20960143D01*
X8867143Y-20988714D02*
X8924286Y-20988714D01*
X8952857Y-20974429D01*
X8967143Y-20960143D01*
X8995714Y-20917286D01*
X9010000Y-20860143D01*
X9010000Y-20745857D01*
X8995714Y-20717286D01*
X8981428Y-20703000D01*
X8952857Y-20688714D01*
X8895714Y-20688714D01*
X8867143Y-20703000D01*
X8852857Y-20717286D01*
X8838571Y-20745857D01*
X8838571Y-20817286D01*
X8852857Y-20845857D01*
X8867143Y-20860143D01*
X8895714Y-20874429D01*
X8952857Y-20874429D01*
X8981428Y-20860143D01*
X8995714Y-20845857D01*
X9010000Y-20817286D01*
X9124286Y-20688714D02*
X9124286Y-20745857D01*
X9238571Y-20688714D02*
X9238571Y-20745857D01*
X9681428Y-21103000D02*
X9667143Y-21088714D01*
X9638571Y-21045857D01*
X9624286Y-21017286D01*
X9610000Y-20974429D01*
X9595714Y-20903000D01*
X9595714Y-20845857D01*
X9610000Y-20774429D01*
X9624286Y-20731572D01*
X9638571Y-20703000D01*
X9667143Y-20660143D01*
X9681428Y-20645857D01*
X9952857Y-20988714D02*
X9781428Y-20988714D01*
X9867143Y-20988714D02*
X9867143Y-20688714D01*
X9838571Y-20731572D01*
X9810000Y-20760143D01*
X9781428Y-20774429D01*
X10095714Y-20988714D02*
X10152857Y-20988714D01*
X10181428Y-20974429D01*
X10195714Y-20960143D01*
X10224286Y-20917286D01*
X10238571Y-20860143D01*
X10238571Y-20745857D01*
X10224286Y-20717286D01*
X10210000Y-20703000D01*
X10181428Y-20688714D01*
X10124286Y-20688714D01*
X10095714Y-20703000D01*
X10081428Y-20717286D01*
X10067143Y-20745857D01*
X10067143Y-20817286D01*
X10081428Y-20845857D01*
X10095714Y-20860143D01*
X10124286Y-20874429D01*
X10181428Y-20874429D01*
X10210000Y-20860143D01*
X10224286Y-20845857D01*
X10238571Y-20817286D01*
X10410000Y-20817286D02*
X10381428Y-20803000D01*
X10367143Y-20788714D01*
X10352857Y-20760143D01*
X10352857Y-20745857D01*
X10367143Y-20717286D01*
X10381428Y-20703000D01*
X10410000Y-20688714D01*
X10467143Y-20688714D01*
X10495714Y-20703000D01*
X10510000Y-20717286D01*
X10524286Y-20745857D01*
X10524286Y-20760143D01*
X10510000Y-20788714D01*
X10495714Y-20803000D01*
X10467143Y-20817286D01*
X10410000Y-20817286D01*
X10381428Y-20831572D01*
X10367143Y-20845857D01*
X10352857Y-20874429D01*
X10352857Y-20931572D01*
X10367143Y-20960143D01*
X10381428Y-20974429D01*
X10410000Y-20988714D01*
X10467143Y-20988714D01*
X10495714Y-20974429D01*
X10510000Y-20960143D01*
X10524286Y-20931572D01*
X10524286Y-20874429D01*
X10510000Y-20845857D01*
X10495714Y-20831572D01*
X10467143Y-20817286D01*
X10881428Y-20988714D02*
X10881428Y-20688714D01*
X11010000Y-20988714D02*
X11010000Y-20831572D01*
X10995714Y-20803000D01*
X10967143Y-20788714D01*
X10924286Y-20788714D01*
X10895714Y-20803000D01*
X10881428Y-20817286D01*
X11195714Y-20988714D02*
X11167143Y-20974429D01*
X11152857Y-20960143D01*
X11138571Y-20931572D01*
X11138571Y-20845857D01*
X11152857Y-20817286D01*
X11167143Y-20803000D01*
X11195714Y-20788714D01*
X11238571Y-20788714D01*
X11267143Y-20803000D01*
X11281428Y-20817286D01*
X11295714Y-20845857D01*
X11295714Y-20931572D01*
X11281428Y-20960143D01*
X11267143Y-20974429D01*
X11238571Y-20988714D01*
X11195714Y-20988714D01*
X11467143Y-20988714D02*
X11438571Y-20974429D01*
X11424286Y-20945857D01*
X11424286Y-20688714D01*
X11695714Y-20974429D02*
X11667143Y-20988714D01*
X11610000Y-20988714D01*
X11581428Y-20974429D01*
X11567143Y-20945857D01*
X11567143Y-20831572D01*
X11581428Y-20803000D01*
X11610000Y-20788714D01*
X11667143Y-20788714D01*
X11695714Y-20803000D01*
X11710000Y-20831572D01*
X11710000Y-20860143D01*
X11567143Y-20888714D01*
X11824286Y-20974429D02*
X11852857Y-20988714D01*
X11910000Y-20988714D01*
X11938571Y-20974429D01*
X11952857Y-20945857D01*
X11952857Y-20931572D01*
X11938571Y-20903000D01*
X11910000Y-20888714D01*
X11867143Y-20888714D01*
X11838571Y-20874429D01*
X11824286Y-20845857D01*
X11824286Y-20831572D01*
X11838571Y-20803000D01*
X11867143Y-20788714D01*
X11910000Y-20788714D01*
X11938571Y-20803000D01*
X12052857Y-21103000D02*
X12067143Y-21088714D01*
X12095714Y-21045857D01*
X12110000Y-21017286D01*
X12124286Y-20974429D01*
X12138571Y-20903000D01*
X12138571Y-20845857D01*
X12124286Y-20774429D01*
X12110000Y-20731572D01*
X12095714Y-20703000D01*
X12067143Y-20660143D01*
X12052857Y-20645857D01*
M02*
