M48
;DRILL file {KiCad (5.0.0)} date 11/22/18 23:54:28
;FORMAT={-:-/ absolute / inch / decimal}
FMAT,2
INCH,TZ
T1C0.0157
T2C0.0354
T3C0.0394
T4C0.0590
%
G90
G05
M72
T1
X2.3072Y-7.1304
X2.3185Y-6.3072
X2.3322Y-5.5254
X2.5847Y-2.6129
X2.7397Y-2.7254
X3.0772Y-2.6154
X3.2172Y-2.4104
X3.2372Y-2.6154
X3.2716Y-2.3147
X3.3822Y-2.4104
X3.5872Y-2.2229
X3.8597Y-2.3104
T2
X4.9372Y-3.5904
X5.0372Y-3.5904
X16.1872Y-4.7154
X16.2872Y-4.7154
X3.156Y-5.8404
X3.256Y-5.8404
X7.3747Y-5.8404
X7.4747Y-5.8404
X7.9372Y-2.8404
X8.0372Y-2.8404
X15.4372Y-3.5904
X15.5372Y-3.5904
X8.1247Y-5.8404
X8.2247Y-5.8404
X4.1872Y-3.5904
X4.2872Y-3.5904
X9.4372Y-3.5904
X9.5372Y-3.5904
X13.1872Y-6.5904
X13.2872Y-6.5904
X7.1872Y-2.8404
X7.2872Y-2.8404
X9.9997Y-5.0904
X10.0997Y-5.0904
X15.4372Y-5.8404
X15.5372Y-5.8404
X3.4372Y-2.8404
X3.5372Y-2.8404
X15.4372Y-6.5904
X15.5372Y-6.5904
X4.656Y-6.5904
X4.756Y-6.5904
X12.8122Y-3.5904
X12.9122Y-3.5904
X9.6247Y-5.8404
X9.7247Y-5.8404
X10.1872Y-2.8404
X10.2872Y-2.8404
X9.2497Y-5.0904
X9.3497Y-5.0904
X14.6872Y-3.5904
X14.7872Y-3.5904
X11.3122Y-4.3404
X11.4122Y-4.3404
X14.6872Y-5.8404
X14.7872Y-5.8404
X9.4372Y-2.8404
X9.5372Y-2.8404
X14.6872Y-2.8404
X14.7872Y-2.8404
X5.8747Y-5.8404
X5.9747Y-5.8404
X8.6872Y-2.8404
X8.7872Y-2.8404
X13.9372Y-5.8404
X14.0372Y-5.8404
X2.781Y-6.5904
X2.881Y-6.5904
X7.5622Y-6.5904
X7.6622Y-6.5904
X5.4997Y-5.0904
X5.5997Y-5.0904
X2.6872Y-3.5904
X2.7872Y-3.5904
X3.4372Y-3.5904
X3.5372Y-3.5904
X8.3122Y-4.3404
X8.4122Y-4.3404
X2.6872Y-2.8404
X2.7872Y-2.8404
X14.6872Y-5.0904
X14.7872Y-5.0904
X6.2497Y-5.0904
X6.3497Y-5.0904
X14.6872Y-6.5904
X14.7872Y-6.5904
X5.6872Y-3.5904
X5.7872Y-3.5904
X10.9372Y-2.8404
X11.0372Y-2.8404
X12.4372Y-2.8404
X12.5372Y-2.8404
X6.4657Y-2.4554
X6.7657Y-2.4554
X6.8657Y-2.4554
X6.9657Y-2.4554
X7.0657Y-2.4554
X8.7657Y-2.4554
X12.9997Y-4.3404
X13.0997Y-4.3404
X10.4685Y-6.5904
X10.5685Y-6.5904
X10.3747Y-5.8404
X10.4747Y-5.8404
X7.7497Y-5.0904
X7.8497Y-5.0904
X9.8122Y-4.3404
X9.9122Y-4.3404
X4.3747Y-5.8404
X4.4747Y-5.8404
X4.1872Y-2.8404
X4.2872Y-2.8404
X13.9372Y-4.3404
X14.0372Y-4.3404
X6.4372Y-3.5904
X6.5372Y-3.5904
X15.4372Y-2.8404
X15.5372Y-2.8404
X7.9372Y-3.5904
X8.0372Y-3.5904
X7.1872Y-3.5904
X7.2872Y-3.5904
X2.9685Y-5.0904
X3.0685Y-5.0904
X3.9997Y-5.0904
X4.0997Y-5.0904
X3.7185Y-6.5904
X3.8185Y-6.5904
X13.9372Y-6.5904
X14.0372Y-6.5904
X6.6247Y-5.8404
X6.7247Y-5.8404
X5.3122Y-4.3404
X5.4122Y-4.3404
X6.0622Y-4.3404
X6.1622Y-4.3404
X4.5622Y-4.3404
X4.6622Y-4.3404
X11.4997Y-5.0904
X11.5997Y-5.0904
X13.9372Y-2.8404
X14.0372Y-2.8404
X5.6872Y-2.8404
X5.7872Y-2.8404
X13.1872Y-2.8404
X13.2872Y-2.8404
X6.9997Y-5.0904
X7.0997Y-5.0904
X14.6872Y-4.3404
X14.7872Y-4.3404
X6.4372Y-2.8404
X6.5372Y-2.8404
X13.9372Y-5.0904
X14.0372Y-5.0904
X11.1247Y-5.8404
X11.2247Y-5.8404
X11.406Y-6.5904
X11.506Y-6.5904
X12.156Y-5.8404
X12.256Y-5.8404
X13.1872Y-5.8404
X13.2872Y-5.8404
X10.1872Y-3.5904
X10.2872Y-3.5904
X8.6872Y-3.5904
X8.7872Y-3.5904
X8.8747Y-5.8404
X8.9747Y-5.8404
X6.8122Y-4.3404
X6.9122Y-4.3404
X10.5622Y-4.3404
X10.6622Y-4.3404
X7.5622Y-4.3404
X7.6622Y-4.3404
X10.7497Y-5.0904
X10.8497Y-5.0904
X12.0622Y-4.3404
X12.1622Y-4.3404
X16.1872Y-3.5904
X16.2872Y-3.5904
X11.6872Y-2.8404
X11.7872Y-2.8404
X15.4372Y-5.0904
X15.5372Y-5.0904
X3.5872Y-2.0304
X3.5872Y-2.6304
X3.6872Y-2.0304
X3.6872Y-2.6304
X3.7872Y-2.0304
X3.7872Y-2.6304
X3.8872Y-2.0304
X3.8872Y-2.6304
X3.9872Y-2.0304
X3.9872Y-2.6304
X4.0872Y-2.0304
X4.0872Y-2.6304
X4.1872Y-2.0304
X4.1872Y-2.6304
X4.2872Y-2.0304
X4.2872Y-2.6304
X4.3872Y-2.0304
X4.3872Y-2.6304
X4.4872Y-2.0304
X4.4872Y-2.6304
X4.7872Y-2.0304
X4.7872Y-2.6304
X4.8872Y-2.0304
X4.8872Y-2.6304
X4.9872Y-2.0304
X5.1872Y-2.0304
X5.1872Y-2.6304
X5.2872Y-2.0304
X5.2872Y-2.6304
X5.3872Y-2.0304
X5.3872Y-2.6304
X5.4872Y-2.6304
X4.7497Y-5.0904
X4.8497Y-5.0904
X16.1872Y-6.2154
X16.2872Y-6.2154
X12.7185Y-5.0904
X12.8185Y-5.0904
X2.8747Y-4.3404
X2.9747Y-4.3404
X11.6872Y-3.5904
X11.7872Y-3.5904
X5.1247Y-5.8404
X5.2247Y-5.8404
X9.0622Y-4.3404
X9.1622Y-4.3404
X13.9372Y-3.5904
X14.0372Y-3.5904
X8.4997Y-5.0904
X8.5997Y-5.0904
X16.1872Y-2.8404
X16.2872Y-2.8404
X3.8122Y-4.3404
X3.9122Y-4.3404
X10.9372Y-3.5904
X11.0372Y-3.5904
X12.4372Y-6.5904
X12.5372Y-6.5904
X4.9372Y-2.8404
X5.0372Y-2.8404
X15.4372Y-4.3404
X15.5372Y-4.3404
T3
X2.8122Y-2.4154
X2.7122Y-2.4154
X2.6122Y-2.4154
T4
X10.8872Y-3.2404
X11.1372Y-3.1404
X12.3872Y-3.2404
X12.6372Y-3.1404
X12.9497Y-4.7404
X13.1997Y-4.6404
X10.4185Y-6.9904
X10.6685Y-6.8904
X10.3247Y-6.2404
X10.5747Y-6.1404
X7.6997Y-5.4904
X7.9497Y-5.3904
X9.7622Y-4.7404
X10.0122Y-4.6404
X4.3247Y-6.2404
X4.5747Y-6.1404
X4.1372Y-3.2404
X4.3872Y-3.1404
X13.8872Y-4.7404
X14.1372Y-4.6404
X6.3872Y-3.9904
X6.6372Y-3.8904
X15.3872Y-3.2404
X15.6372Y-3.1404
X7.8872Y-3.9904
X8.1372Y-3.8904
X7.1372Y-3.9904
X7.3872Y-3.8904
X2.9185Y-5.4904
X3.1685Y-5.3904
X3.9497Y-5.4904
X4.1997Y-5.3904
X3.6685Y-6.9904
X3.9185Y-6.8904
X13.8872Y-6.9904
X14.1372Y-6.8904
X6.5747Y-6.2404
X6.8247Y-6.1404
X5.2622Y-4.7404
X5.5122Y-4.6404
X6.0122Y-4.7404
X6.2622Y-4.6404
X4.5122Y-4.7404
X4.7622Y-4.6404
X11.4497Y-5.4904
X11.6997Y-5.3904
X13.8872Y-3.2404
X14.1372Y-3.1404
X5.6372Y-3.2404
X5.8872Y-3.1404
X13.1372Y-3.2404
X13.3872Y-3.1404
X6.9497Y-5.4904
X7.1997Y-5.3904
X14.6372Y-4.7404
X14.8872Y-4.6404
X6.3872Y-3.2404
X6.6372Y-3.1404
X13.8872Y-5.4904
X14.1372Y-5.3904
X11.0747Y-6.2404
X11.3247Y-6.1404
X11.356Y-6.9904
X11.606Y-6.8904
X12.106Y-6.2404
X12.356Y-6.1404
X13.1372Y-6.2404
X13.3872Y-6.1404
X10.1372Y-3.9904
X10.3872Y-3.8904
X8.6372Y-3.9904
X8.8872Y-3.8904
X8.8247Y-6.2404
X9.0747Y-6.1404
X6.7622Y-4.7404
X7.0122Y-4.6404
X10.5122Y-4.7404
X10.7622Y-4.6404
X7.5122Y-4.7404
X7.7622Y-4.6404
X10.6997Y-5.4904
X10.9497Y-5.3904
X12.0122Y-4.7404
X12.2622Y-4.6404
X16.1372Y-3.9904
X16.3872Y-3.8904
X11.6372Y-3.2404
X11.8872Y-3.1404
X15.3872Y-5.4904
X15.6372Y-5.3904
X4.6997Y-5.4904
X4.9497Y-5.3904
X16.1372Y-6.6154
X16.3872Y-6.5154
X12.6685Y-5.4904
X12.9185Y-5.3904
X2.8247Y-4.7404
X3.0747Y-4.6404
X11.6372Y-3.9904
X11.8872Y-3.8904
X5.0747Y-6.2404
X5.3247Y-6.1404
X9.0122Y-4.7404
X9.2622Y-4.6404
X13.8872Y-3.9904
X14.1372Y-3.8904
X8.4497Y-5.4904
X8.6997Y-5.3904
X16.1372Y-3.2404
X16.3872Y-3.1404
X3.7622Y-4.7404
X4.0122Y-4.6404
X10.8872Y-3.9904
X11.1372Y-3.8904
X12.3872Y-6.9904
X12.6372Y-6.8904
X4.8872Y-3.2404
X5.1372Y-3.1404
X15.3872Y-4.7404
X15.6372Y-4.6404
X4.8872Y-3.9904
X5.1372Y-3.8904
X16.1372Y-5.1154
X16.3872Y-5.0154
X3.106Y-6.2404
X3.356Y-6.1404
X7.3247Y-6.2404
X7.5747Y-6.1404
X7.8872Y-3.2404
X8.1372Y-3.1404
X15.3872Y-3.9904
X15.6372Y-3.8904
X8.0747Y-6.2404
X8.3247Y-6.1404
X4.1372Y-3.9904
X4.3872Y-3.8904
X9.3872Y-3.9904
X9.6372Y-3.8904
X13.1372Y-6.9904
X13.3872Y-6.8904
X7.1372Y-3.2404
X7.3872Y-3.1404
X9.9497Y-5.4904
X10.1997Y-5.3904
X15.3872Y-6.2404
X15.6372Y-6.1404
X3.3872Y-3.2404
X3.6372Y-3.1404
X15.3872Y-6.9904
X15.6372Y-6.8904
X4.606Y-6.9904
X4.856Y-6.8904
X12.7622Y-3.9904
X13.0122Y-3.8904
X9.5747Y-6.2404
X9.8247Y-6.1404
X10.1372Y-3.2404
X10.3872Y-3.1404
X9.1997Y-5.4904
X9.4497Y-5.3904
X14.6372Y-3.9904
X14.8872Y-3.8904
X11.2622Y-4.7404
X11.5122Y-4.6404
X14.6372Y-6.2404
X14.8872Y-6.1404
X9.3872Y-3.2404
X9.6372Y-3.1404
X14.6372Y-3.2404
X14.8872Y-3.1404
X5.8247Y-6.2404
X6.0747Y-6.1404
X8.6372Y-3.2404
X8.8872Y-3.1404
X13.8872Y-6.2404
X14.1372Y-6.1404
X2.731Y-6.9904
X2.981Y-6.8904
X7.5122Y-6.9904
X7.7622Y-6.8904
X5.4497Y-5.4904
X5.6997Y-5.3904
X2.6372Y-3.9904
X2.8872Y-3.8904
X3.3872Y-3.9904
X3.6372Y-3.8904
X8.2622Y-4.7404
X8.5122Y-4.6404
X2.6372Y-3.2404
X2.8872Y-3.1404
X14.6372Y-5.4904
X14.8872Y-5.3904
X6.1997Y-5.4904
X6.4497Y-5.3904
X14.6372Y-6.9904
X14.8872Y-6.8904
X5.6372Y-3.9904
X5.8872Y-3.8904
T0
M30
