M48
;DRILL file {KiCad (5.0.0)} date 11/22/18 23:54:28
;FORMAT={-:-/ absolute / inch / decimal}
FMAT,2
INCH,TZ
T1C0.0394
T2C0.1181
T3C0.1200
T4C0.1570
%
G90
G05
M72
T2
X9.8425Y-2.0472
X2.1654Y-7.1654
X2.1654Y-2.0472
X16.7323Y-7.1654
X12.9921Y-4.9213
X9.0551Y-7.1654
X16.7323Y-2.0472
X5.9055Y-4.9213
T3
X12.2985Y-5.5654
X13.2385Y-5.5654
X2.736Y-6.3154
X3.676Y-6.3154
X12.3922Y-4.0654
X13.3322Y-4.0654
X5.6422Y-6.5154
X9.5822Y-6.5154
T4
X7.2372Y-3.7904
X3.0185Y-5.2904
X4.0497Y-5.2904
X3.7685Y-6.7904
X13.9872Y-6.7904
X6.6747Y-6.0404
X5.3622Y-4.5404
X6.1122Y-4.5404
X4.6122Y-4.5404
X11.5497Y-5.2904
X13.9872Y-3.0404
X5.7372Y-3.0404
X13.2372Y-3.0404
X7.0497Y-5.2904
X14.7372Y-4.5404
X6.4872Y-3.0404
X13.9872Y-5.2904
X11.1747Y-6.0404
X11.456Y-6.7904
X12.206Y-6.0404
X13.2372Y-6.0404
X10.2372Y-3.7904
X8.7372Y-3.7904
X8.9247Y-6.0404
X6.8622Y-4.5404
X10.6122Y-4.5404
X7.6122Y-4.5404
X10.7997Y-5.2904
X12.1122Y-4.5404
X16.2372Y-3.7904
X11.7372Y-3.0404
X15.4872Y-5.2904
X4.7997Y-5.2904
X16.2372Y-6.4154
X12.2985Y-4.9654
X12.7685Y-5.2904
X13.2385Y-4.9654
X2.9247Y-4.5404
X11.7372Y-3.7904
X5.1747Y-6.0404
X9.1122Y-4.5404
X13.9872Y-3.7904
X8.5497Y-5.2904
X16.2372Y-3.0404
X3.8622Y-4.5404
X10.9872Y-3.7904
X12.4872Y-6.7904
X4.9872Y-3.0404
X15.4872Y-4.5404
X4.9872Y-3.7904
X16.2372Y-4.9154
X2.736Y-5.7154
X3.206Y-6.0404
X3.676Y-5.7154
X7.4247Y-6.0404
X7.9872Y-3.0404
X15.4872Y-3.7904
X8.1747Y-6.0404
X4.2372Y-3.7904
X9.4872Y-3.7904
X13.2372Y-6.7904
X7.2372Y-3.0404
X10.0497Y-5.2904
X15.4872Y-6.0404
X3.4872Y-3.0404
X15.4872Y-6.7904
X4.706Y-6.7904
X12.3922Y-3.4654
X12.8622Y-3.7904
X13.3322Y-3.4654
X9.6747Y-6.0404
X10.2372Y-3.0404
X9.2997Y-5.2904
X14.7372Y-3.7904
X11.3622Y-4.5404
X14.7372Y-6.0404
X9.4872Y-3.0404
X14.7372Y-3.0404
X5.9247Y-6.0404
X8.7372Y-3.0404
X13.9872Y-6.0404
X2.831Y-6.7904
X5.6422Y-7.1154
X7.6122Y-6.7904
X9.5822Y-7.1154
X5.5497Y-5.2904
X2.7372Y-3.7904
X3.4872Y-3.7904
X8.3622Y-4.5404
X2.7372Y-3.0404
X14.7372Y-5.2904
X6.2997Y-5.2904
X14.7372Y-6.7904
X5.7372Y-3.7904
X10.9872Y-3.0404
X12.4872Y-3.0404
X13.0497Y-4.5404
X10.5185Y-6.7904
X10.4247Y-6.0404
X7.7997Y-5.2904
X9.8622Y-4.5404
X4.4247Y-6.0404
X4.2372Y-3.0404
X13.9872Y-4.5404
X6.4872Y-3.7904
X15.4872Y-3.0404
X7.9872Y-3.7904
T1
X7.6764Y-2.4554G85X7.7551Y-2.4554
G05
T0
M30
