G04 #@! TF.GenerationSoftware,KiCad,Pcbnew,(5.0.0)*
G04 #@! TF.CreationDate,2018-11-22T23:53:18+07:00*
G04 #@! TF.ProjectId,main_board4,6D61696E5F626F617264342E6B696361,1.4*
G04 #@! TF.SameCoordinates,Original*
G04 #@! TF.FileFunction,Paste,Top*
G04 #@! TF.FilePolarity,Positive*
%FSLAX46Y46*%
G04 Gerber Fmt 4.6, Leading zero omitted, Abs format (unit mm)*
G04 Created by KiCad (PCBNEW (5.0.0)) date 11/22/18 23:53:18*
%MOMM*%
%LPD*%
G01*
G04 APERTURE LIST*
%ADD10R,1.700000X1.300000*%
G04 APERTURE END LIST*
D10*
G04 #@! TO.C,D16*
X113340000Y-142955000D03*
X113340000Y-139455000D03*
G04 #@! TD*
G04 #@! TO.C,D17*
X122865000Y-162005000D03*
X122865000Y-158505000D03*
G04 #@! TD*
G04 #@! TO.C,D18*
X108895000Y-181055000D03*
X108895000Y-177555000D03*
G04 #@! TD*
G04 #@! TO.C,D19*
X118420000Y-85805000D03*
X118420000Y-82305000D03*
G04 #@! TD*
G04 #@! TO.C,D20*
X118420000Y-104855000D03*
X118420000Y-101355000D03*
G04 #@! TD*
G04 #@! TO.C,D21*
X127945000Y-123905000D03*
X127945000Y-120405000D03*
G04 #@! TD*
G04 #@! TO.C,D22*
X132390000Y-142955000D03*
X132390000Y-139455000D03*
G04 #@! TD*
G04 #@! TO.C,D23*
X141915000Y-162005000D03*
X141915000Y-158505000D03*
G04 #@! TD*
G04 #@! TO.C,D24*
X181920000Y-181055000D03*
X181920000Y-177555000D03*
G04 #@! TD*
G04 #@! TO.C,D25*
X156520000Y-85805000D03*
X156520000Y-82305000D03*
G04 #@! TD*
G04 #@! TO.C,D26*
X137470000Y-85805000D03*
X137470000Y-82305000D03*
G04 #@! TD*
G04 #@! TO.C,D27*
X137470000Y-104855000D03*
X137470000Y-101355000D03*
G04 #@! TD*
G04 #@! TO.C,D28*
X144488000Y-123905000D03*
X144488000Y-120405000D03*
G04 #@! TD*
G04 #@! TO.C,D29*
X151440000Y-142955000D03*
X151440000Y-139455000D03*
G04 #@! TD*
G04 #@! TO.C,D30*
X160965000Y-162005000D03*
X160965000Y-158505000D03*
G04 #@! TD*
G04 #@! TO.C,D31*
X175570000Y-85805000D03*
X175570000Y-82305000D03*
G04 #@! TD*
G04 #@! TO.C,D32*
X175570000Y-104855000D03*
X175570000Y-101355000D03*
G04 #@! TD*
G04 #@! TO.C,D33*
X156520000Y-104855000D03*
X156520000Y-101355000D03*
G04 #@! TD*
G04 #@! TO.C,D34*
X166045000Y-123905000D03*
X166045000Y-120405000D03*
G04 #@! TD*
G04 #@! TO.C,D35*
X185095000Y-123905000D03*
X185095000Y-120405000D03*
G04 #@! TD*
G04 #@! TO.C,D36*
X170490000Y-142955000D03*
X170490000Y-139455000D03*
G04 #@! TD*
G04 #@! TO.C,D37*
X194620000Y-85805000D03*
X194620000Y-82305000D03*
G04 #@! TD*
G04 #@! TO.C,D38*
X194620000Y-104855000D03*
X194620000Y-101355000D03*
G04 #@! TD*
G04 #@! TO.C,D39*
X213670000Y-104855000D03*
X213670000Y-101355000D03*
G04 #@! TD*
G04 #@! TO.C,D40*
X204145000Y-123905000D03*
X204145000Y-120405000D03*
G04 #@! TD*
G04 #@! TO.C,D41*
X189540000Y-142955000D03*
X189540000Y-139455000D03*
G04 #@! TD*
G04 #@! TO.C,D42*
X180015000Y-162005000D03*
X180015000Y-158505000D03*
G04 #@! TD*
G04 #@! TO.C,D43*
X213670000Y-85805000D03*
X213670000Y-82305000D03*
G04 #@! TD*
G04 #@! TO.C,D44*
X232720000Y-85805000D03*
X232720000Y-82305000D03*
G04 #@! TD*
G04 #@! TO.C,D45*
X232720000Y-104855000D03*
X232720000Y-101355000D03*
G04 #@! TD*
G04 #@! TO.C,D46*
X223195000Y-123905000D03*
X223195000Y-120405000D03*
G04 #@! TD*
G04 #@! TO.C,D47*
X208590000Y-142955000D03*
X208590000Y-139455000D03*
G04 #@! TD*
G04 #@! TO.C,D48*
X199065000Y-162005000D03*
X199065000Y-158505000D03*
G04 #@! TD*
G04 #@! TO.C,D49*
X251770000Y-85805000D03*
X251770000Y-82305000D03*
G04 #@! TD*
G04 #@! TO.C,D50*
X251770000Y-104855000D03*
X251770000Y-101355000D03*
G04 #@! TD*
G04 #@! TO.C,D51*
X242245000Y-123905000D03*
X242245000Y-120405000D03*
G04 #@! TD*
G04 #@! TO.C,D52*
X227640000Y-142955000D03*
X227640000Y-139455000D03*
G04 #@! TD*
G04 #@! TO.C,D53*
X237165000Y-162005000D03*
X237165000Y-158505000D03*
G04 #@! TD*
G04 #@! TO.C,D54*
X218115000Y-162005000D03*
X218115000Y-158505000D03*
G04 #@! TD*
G04 #@! TO.C,D55*
X270820000Y-85805000D03*
X270820000Y-82305000D03*
G04 #@! TD*
G04 #@! TO.C,D56*
X270820000Y-104855000D03*
X270820000Y-101355000D03*
G04 #@! TD*
G04 #@! TO.C,D57*
X261295000Y-123905000D03*
X261295000Y-120405000D03*
G04 #@! TD*
G04 #@! TO.C,D58*
X246690000Y-142955000D03*
X246690000Y-139455000D03*
G04 #@! TD*
G04 #@! TO.C,D59*
X256215000Y-162005000D03*
X256215000Y-158505000D03*
G04 #@! TD*
G04 #@! TO.C,D60*
X256342000Y-181055000D03*
X256342000Y-177555000D03*
G04 #@! TD*
G04 #@! TO.C,D61*
X289870000Y-85805000D03*
X289870000Y-82305000D03*
G04 #@! TD*
G04 #@! TO.C,D62*
X289870000Y-104855000D03*
X289870000Y-101355000D03*
G04 #@! TD*
G04 #@! TO.C,D63*
X280345000Y-123905000D03*
X280345000Y-120405000D03*
G04 #@! TD*
G04 #@! TO.C,D64*
X265740000Y-142955000D03*
X265740000Y-139455000D03*
G04 #@! TD*
G04 #@! TO.C,D65*
X275265000Y-162005000D03*
X275265000Y-158505000D03*
G04 #@! TD*
G04 #@! TO.C,D66*
X280218000Y-181055000D03*
X280218000Y-177555000D03*
G04 #@! TD*
G04 #@! TO.C,D67*
X308920000Y-85805000D03*
X308920000Y-82305000D03*
G04 #@! TD*
G04 #@! TO.C,D68*
X299395000Y-123905000D03*
X299395000Y-120405000D03*
G04 #@! TD*
G04 #@! TO.C,D69*
X284790000Y-142955000D03*
X284790000Y-139455000D03*
G04 #@! TD*
G04 #@! TO.C,D70*
X301300000Y-162005000D03*
X301300000Y-158505000D03*
G04 #@! TD*
G04 #@! TO.C,D71*
X308920000Y-181210000D03*
X308920000Y-177710000D03*
G04 #@! TD*
G04 #@! TO.C,D72*
X327843000Y-181055000D03*
X327843000Y-177555000D03*
G04 #@! TD*
G04 #@! TO.C,D73*
X327970000Y-85805000D03*
X327970000Y-82305000D03*
G04 #@! TD*
G04 #@! TO.C,D74*
X308920000Y-104855000D03*
X308920000Y-101355000D03*
G04 #@! TD*
G04 #@! TO.C,D75*
X318445000Y-123905000D03*
X318445000Y-120405000D03*
G04 #@! TD*
G04 #@! TO.C,D76*
X303840000Y-142955000D03*
X303840000Y-139455000D03*
G04 #@! TD*
G04 #@! TO.C,D77*
X327970000Y-162005000D03*
X327970000Y-158505000D03*
G04 #@! TD*
G04 #@! TO.C,D78*
X346893000Y-181055000D03*
X346893000Y-177555000D03*
G04 #@! TD*
G04 #@! TO.C,D79*
X347020000Y-85805000D03*
X347020000Y-82305000D03*
G04 #@! TD*
G04 #@! TO.C,D80*
X347020000Y-104855000D03*
X347020000Y-101355000D03*
G04 #@! TD*
G04 #@! TO.C,D81*
X346766000Y-123905000D03*
X346766000Y-120405000D03*
G04 #@! TD*
G04 #@! TO.C,D82*
X347020000Y-142955000D03*
X347020000Y-139455000D03*
G04 #@! TD*
G04 #@! TO.C,D83*
X347020000Y-162005000D03*
X347020000Y-158505000D03*
G04 #@! TD*
G04 #@! TO.C,D84*
X365816000Y-181055000D03*
X365816000Y-177555000D03*
G04 #@! TD*
G04 #@! TO.C,D9*
X89845000Y-123905000D03*
X89845000Y-120405000D03*
G04 #@! TD*
G04 #@! TO.C,D10*
X89845000Y-142955000D03*
X89845000Y-139455000D03*
G04 #@! TD*
G04 #@! TO.C,D11*
X103815000Y-162005000D03*
X103815000Y-158505000D03*
G04 #@! TD*
G04 #@! TO.C,D12*
X87305000Y-181055000D03*
X87305000Y-177555000D03*
G04 #@! TD*
G04 #@! TO.C,D13*
X99370000Y-85805000D03*
X99370000Y-82305000D03*
G04 #@! TD*
G04 #@! TO.C,D14*
X99370000Y-104855000D03*
X99370000Y-101355000D03*
G04 #@! TD*
G04 #@! TO.C,D15*
X108895000Y-123905000D03*
X108895000Y-120405000D03*
G04 #@! TD*
G04 #@! TO.C,D1*
X61270000Y-85805000D03*
X61270000Y-82305000D03*
G04 #@! TD*
G04 #@! TO.C,D2*
X61270000Y-104855000D03*
X61270000Y-101355000D03*
G04 #@! TD*
G04 #@! TO.C,D3*
X61270000Y-123905000D03*
X61270000Y-120405000D03*
G04 #@! TD*
G04 #@! TO.C,D4*
X61333500Y-142094000D03*
X61333500Y-138594000D03*
G04 #@! TD*
G04 #@! TO.C,D5*
X61270000Y-162005000D03*
X61270000Y-158505000D03*
G04 #@! TD*
G04 #@! TO.C,D6*
X61270000Y-181055000D03*
X61270000Y-177555000D03*
G04 #@! TD*
G04 #@! TO.C,D7*
X80320000Y-85805000D03*
X80320000Y-82305000D03*
G04 #@! TD*
G04 #@! TO.C,D8*
X80320000Y-104855000D03*
X80320000Y-101355000D03*
G04 #@! TD*
G04 #@! TO.C,D85*
X366070000Y-85805000D03*
X366070000Y-82305000D03*
G04 #@! TD*
G04 #@! TO.C,D86*
X365816000Y-101355000D03*
X365816000Y-104855000D03*
G04 #@! TD*
G04 #@! TO.C,D87*
X365943000Y-123933000D03*
X365943000Y-120433000D03*
G04 #@! TD*
G04 #@! TO.C,D88*
X365816000Y-139455000D03*
X365816000Y-142955000D03*
G04 #@! TD*
G04 #@! TO.C,D89*
X365943000Y-162005000D03*
X365943000Y-158505000D03*
G04 #@! TD*
G04 #@! TO.C,D90*
X384993000Y-177555000D03*
X384993000Y-181055000D03*
G04 #@! TD*
G04 #@! TO.C,D91*
X384866000Y-82305000D03*
X384866000Y-85805000D03*
G04 #@! TD*
G04 #@! TO.C,D92*
X384993000Y-104855000D03*
X384993000Y-101355000D03*
G04 #@! TD*
G04 #@! TO.C,D93*
X384866000Y-120405000D03*
X384866000Y-123905000D03*
G04 #@! TD*
G04 #@! TO.C,D94*
X385120000Y-142955000D03*
X385120000Y-139455000D03*
G04 #@! TD*
G04 #@! TO.C,D95*
X385120000Y-158505000D03*
X385120000Y-162005000D03*
G04 #@! TD*
G04 #@! TO.C,D96*
X403916000Y-171530000D03*
X403916000Y-168030000D03*
G04 #@! TD*
G04 #@! TO.C,D97*
X404043000Y-85805000D03*
X404043000Y-82305000D03*
G04 #@! TD*
G04 #@! TO.C,D98*
X403916000Y-101355000D03*
X403916000Y-104855000D03*
G04 #@! TD*
G04 #@! TO.C,D99*
X404043000Y-129930000D03*
X404043000Y-133430000D03*
G04 #@! TD*
M02*
