<?xml version="1.0" standalone="no"?>
 <!DOCTYPE svg PUBLIC "-//W3C//DTD SVG 1.1//EN" 
 "http://www.w3.org/Graphics/SVG/1.1/DTD/svg11.dtd"> 
<svg xmlns="http://www.w3.org/2000/svg" version="1.1" 
    width="59.4004cm" height="41.9989cm" viewBox="0 0 233860 165350 ">
<title>SVG Picture created as main_board4-Eco2.User.svg date 2018/11/23 00:03:02 </title>
  <desc>Picture generated by PCBNEW </desc>
<g style="fill:#000000; fill-opacity:1;stroke:#000000; stroke-opacity:1;
stroke-linecap:round; stroke-linejoin:round; "
 transform="translate(0 0) scale(1 1)">
</g>
<g style="fill:#000000; fill-opacity:0.0; 
stroke:#000000; stroke-width:-0.000393701; stroke-opacity:1; 
stroke-linecap:round; stroke-linejoin:round;">
</g>
<g style="fill:#000000; fill-opacity:0.0; 
stroke:#000000; stroke-width:60; stroke-opacity:1; 
stroke-linecap:round; stroke-linejoin:round;">
<path d="M165122 61403
L165122 66903
" />
<path d="M165122 66903
L164292 66903
" />
<path d="M164292 66903
L164292 67543
" />
<path d="M164292 67543
L164612 67543
" />
<path d="M164612 67543
L164612 70163
" />
<path d="M164612 70163
L163272 70163
" />
<path d="M163272 70163
L163272 70503
" />
<path d="M163272 70503
L162172 70503
" />
<path d="M162172 70503
L162172 70163
" />
<path d="M162172 70163
L159772 70163
" />
<path d="M159772 70163
L159772 69753
" />
<path d="M159772 69753
L159312 69753
" />
<path d="M159312 69753
L159312 67953
" />
<path d="M159312 67953
L159772 67953
" />
<path d="M159772 67953
L159772 67543
" />
<path d="M159772 67543
L160082 67543
" />
<path d="M160082 67543
L160082 66903
" />
<path d="M160082 66903
L159622 66903
" />
<path d="M159622 66903
L159622 61403
" />
<path d="M159622 61403
L160082 61403
" />
<path d="M160082 61403
L160082 60763
" />
<path d="M160082 60763
L159772 60763
" />
<path d="M159772 60763
L159772 60353
" />
<path d="M159772 60353
L159312 60353
" />
<path d="M159312 60353
L159312 58553
" />
<path d="M159312 58553
L159772 58553
" />
<path d="M159772 58553
L159772 58143
" />
<path d="M159772 58143
L162172 58143
" />
<path d="M162172 58143
L162172 57803
" />
<path d="M162172 57803
L163272 57803
" />
<path d="M163272 57803
L163272 58143
" />
<path d="M163272 58143
L164612 58143
" />
<path d="M164612 58143
L164612 60763
" />
<path d="M164612 60763
L164292 60763
" />
<path d="M164292 60763
L164292 61403
" />
<path d="M164292 61403
L165122 61403
" />
<path d="M165122 46403
L165122 51903
" />
<path d="M165122 51903
L164292 51903
" />
<path d="M164292 51903
L164292 52543
" />
<path d="M164292 52543
L164612 52543
" />
<path d="M164612 52543
L164612 55163
" />
<path d="M164612 55163
L163272 55163
" />
<path d="M163272 55163
L163272 55503
" />
<path d="M163272 55503
L162172 55503
" />
<path d="M162172 55503
L162172 55163
" />
<path d="M162172 55163
L159772 55163
" />
<path d="M159772 55163
L159772 54753
" />
<path d="M159772 54753
L159312 54753
" />
<path d="M159312 54753
L159312 52953
" />
<path d="M159312 52953
L159772 52953
" />
<path d="M159772 52953
L159772 52543
" />
<path d="M159772 52543
L160082 52543
" />
<path d="M160082 52543
L160082 51903
" />
<path d="M160082 51903
L159622 51903
" />
<path d="M159622 51903
L159622 46403
" />
<path d="M159622 46403
L160082 46403
" />
<path d="M160082 46403
L160082 45763
" />
<path d="M160082 45763
L159772 45763
" />
<path d="M159772 45763
L159772 45353
" />
<path d="M159772 45353
L159312 45353
" />
<path d="M159312 45353
L159312 43553
" />
<path d="M159312 43553
L159772 43553
" />
<path d="M159772 43553
L159772 43143
" />
<path d="M159772 43143
L162172 43143
" />
<path d="M162172 43143
L162172 42803
" />
<path d="M162172 42803
L163272 42803
" />
<path d="M163272 42803
L163272 43143
" />
<path d="M163272 43143
L164612 43143
" />
<path d="M164612 43143
L164612 45763
" />
<path d="M164612 45763
L164292 45763
" />
<path d="M164292 45763
L164292 46403
" />
<path d="M164292 46403
L165122 46403
" />
<path d="M130434 55653
L124934 55653
" />
<path d="M124934 55653
L124934 54823
" />
<path d="M124934 54823
L124294 54823
" />
<path d="M124294 54823
L124294 55143
" />
<path d="M124294 55143
L121674 55143
" />
<path d="M121674 55143
L121674 53803
" />
<path d="M121674 53803
L121334 53803
" />
<path d="M121334 53803
L121334 52703
" />
<path d="M121334 52703
L121674 52703
" />
<path d="M121674 52703
L121674 50303
" />
<path d="M121674 50303
L122084 50303
" />
<path d="M122084 50303
L122084 49843
" />
<path d="M122084 49843
L123884 49843
" />
<path d="M123884 49843
L123884 50303
" />
<path d="M123884 50303
L124294 50303
" />
<path d="M124294 50303
L124294 50613
" />
<path d="M124294 50613
L124934 50613
" />
<path d="M124934 50613
L124934 50153
" />
<path d="M124934 50153
L130434 50153
" />
<path d="M130434 50153
L130434 50613
" />
<path d="M130434 50613
L131074 50613
" />
<path d="M131074 50613
L131074 50303
" />
<path d="M131074 50303
L131484 50303
" />
<path d="M131484 50303
L131484 49843
" />
<path d="M131484 49843
L133284 49843
" />
<path d="M133284 49843
L133284 50303
" />
<path d="M133284 50303
L133694 50303
" />
<path d="M133694 50303
L133694 52703
" />
<path d="M133694 52703
L134034 52703
" />
<path d="M134034 52703
L134034 53803
" />
<path d="M134034 53803
L133694 53803
" />
<path d="M133694 53803
L133694 55143
" />
<path d="M133694 55143
L131074 55143
" />
<path d="M131074 55143
L131074 54823
" />
<path d="M131074 54823
L130434 54823
" />
<path d="M130434 54823
L130434 55653
" />
<path d="M34809 63153
L29309 63153
" />
<path d="M29309 63153
L29309 62323
" />
<path d="M29309 62323
L28669 62323
" />
<path d="M28669 62323
L28669 62643
" />
<path d="M28669 62643
L26049 62643
" />
<path d="M26049 62643
L26049 61303
" />
<path d="M26049 61303
L25709 61303
" />
<path d="M25709 61303
L25709 60203
" />
<path d="M25709 60203
L26049 60203
" />
<path d="M26049 60203
L26049 57803
" />
<path d="M26049 57803
L26459 57803
" />
<path d="M26459 57803
L26459 57343
" />
<path d="M26459 57343
L28259 57343
" />
<path d="M28259 57343
L28259 57803
" />
<path d="M28259 57803
L28669 57803
" />
<path d="M28669 57803
L28669 58113
" />
<path d="M28669 58113
L29309 58113
" />
<path d="M29309 58113
L29309 57653
" />
<path d="M29309 57653
L34809 57653
" />
<path d="M34809 57653
L34809 58113
" />
<path d="M34809 58113
L35449 58113
" />
<path d="M35449 58113
L35449 57803
" />
<path d="M35449 57803
L35859 57803
" />
<path d="M35859 57803
L35859 57343
" />
<path d="M35859 57343
L37659 57343
" />
<path d="M37659 57343
L37659 57803
" />
<path d="M37659 57803
L38069 57803
" />
<path d="M38069 57803
L38069 60203
" />
<path d="M38069 60203
L38409 60203
" />
<path d="M38409 60203
L38409 61303
" />
<path d="M38409 61303
L38069 61303
" />
<path d="M38069 61303
L38069 62643
" />
<path d="M38069 62643
L35449 62643
" />
<path d="M35449 62643
L35449 62323
" />
<path d="M35449 62323
L34809 62323
" />
<path d="M34809 62323
L34809 63153
" />
<path d="M131372 40653
L125872 40653
" />
<path d="M125872 40653
L125872 39823
" />
<path d="M125872 39823
L125232 39823
" />
<path d="M125232 39823
L125232 40143
" />
<path d="M125232 40143
L122612 40143
" />
<path d="M122612 40143
L122612 38803
" />
<path d="M122612 38803
L122272 38803
" />
<path d="M122272 38803
L122272 37703
" />
<path d="M122272 37703
L122612 37703
" />
<path d="M122612 37703
L122612 35303
" />
<path d="M122612 35303
L123022 35303
" />
<path d="M123022 35303
L123022 34843
" />
<path d="M123022 34843
L124822 34843
" />
<path d="M124822 34843
L124822 35303
" />
<path d="M124822 35303
L125232 35303
" />
<path d="M125232 35303
L125232 35613
" />
<path d="M125232 35613
L125872 35613
" />
<path d="M125872 35613
L125872 35153
" />
<path d="M125872 35153
L131372 35153
" />
<path d="M131372 35153
L131372 35613
" />
<path d="M131372 35613
L132012 35613
" />
<path d="M132012 35613
L132012 35303
" />
<path d="M132012 35303
L132422 35303
" />
<path d="M132422 35303
L132422 34843
" />
<path d="M132422 34843
L134222 34843
" />
<path d="M134222 34843
L134222 35303
" />
<path d="M134222 35303
L134632 35303
" />
<path d="M134632 35303
L134632 37703
" />
<path d="M134632 37703
L134972 37703
" />
<path d="M134972 37703
L134972 38803
" />
<path d="M134972 38803
L134632 38803
" />
<path d="M134632 38803
L134632 40143
" />
<path d="M134632 40143
L132012 40143
" />
<path d="M132012 40143
L132012 39823
" />
<path d="M132012 39823
L131372 39823
" />
<path d="M131372 39823
L131372 40653
" />
<path d="M78872 68803
L78872 70653
" />
<path d="M94512 68803
L78872 68803
" />
<path d="M94512 70143
L94512 68803
" />
<path d="M97132 70143
L94512 70143
" />
<path d="M97132 68803
L97132 70143
" />
<path d="M97472 68803
L97132 68803
" />
<path d="M97472 67703
L97472 68803
" />
<path d="M97132 67703
L97472 67703
" />
<path d="M97132 65303
L97132 67703
" />
<path d="M96722 65303
L97132 65303
" />
<path d="M96722 64843
L96722 65303
" />
<path d="M94922 64843
L96722 64843
" />
<path d="M94922 65303
L94922 64843
" />
<path d="M94512 65303
L94922 65303
" />
<path d="M94512 67003
L94512 65303
" />
<path d="M78872 67003
L94512 67003
" />
<path d="M78872 65153
L78872 67003
" />
<path d="M73372 65153
L78872 65153
" />
<path d="M73372 67003
L73372 65153
" />
<path d="M57732 67003
L73372 67003
" />
<path d="M57732 65303
L57732 67003
" />
<path d="M57322 65303
L57732 65303
" />
<path d="M57322 64843
L57322 65303
" />
<path d="M55522 64843
L57322 64843
" />
<path d="M55522 65303
L55522 64843
" />
<path d="M55112 65303
L55522 65303
" />
<path d="M55112 67703
L55112 65303
" />
<path d="M54772 67703
L55112 67703
" />
<path d="M54772 68803
L54772 67703
" />
<path d="M55112 68803
L54772 68803
" />
<path d="M55112 70143
L55112 68803
" />
<path d="M57732 70143
L55112 70143
" />
<path d="M57732 68803
L57732 70143
" />
<path d="M73372 68803
L57732 68803
" />
<path d="M73372 70653
L73372 68803
" />
<path d="M78872 70653
L73372 70653
" />
<path d="M117309 70653
L111809 70653
" />
<path d="M111809 70653
L111809 65153
" />
<path d="M111809 65153
L117309 65153
" />
<path d="M117309 65153
L117309 70653
" />
<path d="M107934 70653
L102434 70653
" />
<path d="M102434 70653
L102434 65153
" />
<path d="M102434 65153
L107934 65153
" />
<path d="M107934 65153
L107934 70653
" />
<path d="M40434 70653
L34934 70653
" />
<path d="M34934 70653
L34934 65153
" />
<path d="M34934 65153
L40434 65153
" />
<path d="M40434 65153
L40434 70653
" />
<path d="M49809 70653
L44309 70653
" />
<path d="M44309 70653
L44309 65153
" />
<path d="M44309 65153
L49809 65153
" />
<path d="M49809 65153
L49809 70653
" />
<path d="M31059 70653
L25559 70653
" />
<path d="M25559 70653
L25559 65153
" />
<path d="M25559 65153
L31059 65153
" />
<path d="M31059 65153
L31059 70653
" />
<path d="M32934 55653
L27434 55653
" />
<path d="M27434 55653
L27434 50153
" />
<path d="M27434 50153
L32934 50153
" />
<path d="M32934 50153
L32934 55653
" />
<path d="M124809 63153
L119309 63153
" />
<path d="M119309 63153
L119309 57653
" />
<path d="M119309 57653
L124809 57653
" />
<path d="M124809 57653
L124809 63153
" />
<path d="M133247 48153
L127747 48153
" />
<path d="M127747 48153
L127747 42653
" />
<path d="M127747 42653
L133247 42653
" />
<path d="M133247 42653
L133247 48153
" />
<path d="M31997 48153
L26497 48153
" />
<path d="M26497 48153
L26497 42653
" />
<path d="M26497 42653
L31997 42653
" />
<path d="M31997 42653
L31997 48153
" />
<path d="M43247 55653
L37747 55653
" />
<path d="M37747 55653
L37747 50153
" />
<path d="M37747 50153
L43247 50153
" />
<path d="M43247 50153
L43247 55653
" />
<path d="M76997 63153
L71497 63153
" />
<path d="M71497 63153
L71497 57653
" />
<path d="M71497 57653
L76997 57653
" />
<path d="M76997 57653
L76997 63153
" />
<path d="M61997 63153
L56497 63153
" />
<path d="M56497 63153
L56497 57653
" />
<path d="M56497 57653
L61997 57653
" />
<path d="M61997 57653
L61997 63153
" />
<path d="M99497 63153
L93997 63153
" />
<path d="M93997 63153
L93997 57653
" />
<path d="M93997 57653
L99497 57653
" />
<path d="M99497 57653
L99497 63153
" />
<path d="M58247 55653
L52747 55653
" />
<path d="M52747 55653
L52747 50153
" />
<path d="M52747 50153
L58247 50153
" />
<path d="M58247 50153
L58247 55653
" />
<path d="M106997 63153
L101497 63153
" />
<path d="M101497 63153
L101497 57653
" />
<path d="M101497 57653
L106997 57653
" />
<path d="M106997 57653
L106997 63153
" />
<path d="M56372 48153
L50872 48153
" />
<path d="M50872 48153
L50872 42653
" />
<path d="M50872 42653
L56372 42653
" />
<path d="M56372 42653
L56372 48153
" />
<path d="M90122 40653
L84622 40653
" />
<path d="M84622 40653
L84622 35153
" />
<path d="M84622 35153
L90122 35153
" />
<path d="M90122 35153
L90122 40653
" />
<path d="M120122 40653
L114622 40653
" />
<path d="M114622 40653
L114622 35153
" />
<path d="M114622 35153
L120122 35153
" />
<path d="M120122 35153
L120122 40653
" />
<path d="M30122 33153
L24622 33153
" />
<path d="M24622 33153
L24622 27653
" />
<path d="M24622 27653
L30122 27653
" />
<path d="M30122 27653
L30122 33153
" />
<path d="M37622 33153
L32122 33153
" />
<path d="M32122 33153
L32122 27653
" />
<path d="M32122 27653
L37622 27653
" />
<path d="M37622 27653
L37622 33153
" />
<path d="M45122 33153
L39622 33153
" />
<path d="M39622 33153
L39622 27653
" />
<path d="M39622 27653
L45122 27653
" />
<path d="M45122 27653
L45122 33153
" />
<path d="M52622 33153
L47122 33153
" />
<path d="M47122 33153
L47122 27653
" />
<path d="M47122 27653
L52622 27653
" />
<path d="M52622 27653
L52622 33153
" />
<path d="M60122 33153
L54622 33153
" />
<path d="M54622 33153
L54622 27653
" />
<path d="M54622 27653
L60122 27653
" />
<path d="M60122 27653
L60122 33153
" />
<path d="M67622 33153
L62122 33153
" />
<path d="M62122 33153
L62122 27653
" />
<path d="M62122 27653
L67622 27653
" />
<path d="M67622 27653
L67622 33153
" />
<path d="M75122 33153
L69622 33153
" />
<path d="M69622 33153
L69622 27653
" />
<path d="M69622 27653
L75122 27653
" />
<path d="M75122 27653
L75122 33153
" />
<path d="M82622 33153
L77122 33153
" />
<path d="M77122 33153
L77122 27653
" />
<path d="M77122 27653
L82622 27653
" />
<path d="M82622 27653
L82622 33153
" />
<path d="M90122 33153
L84622 33153
" />
<path d="M84622 33153
L84622 27653
" />
<path d="M84622 27653
L90122 27653
" />
<path d="M90122 27653
L90122 33153
" />
<path d="M97622 33153
L92122 33153
" />
<path d="M92122 33153
L92122 27653
" />
<path d="M92122 27653
L97622 27653
" />
<path d="M97622 27653
L97622 33153
" />
<path d="M105122 33153
L99622 33153
" />
<path d="M99622 33153
L99622 27653
" />
<path d="M99622 27653
L105122 27653
" />
<path d="M105122 27653
L105122 33153
" />
<path d="M112622 33153
L107122 33153
" />
<path d="M107122 33153
L107122 27653
" />
<path d="M107122 27653
L112622 27653
" />
<path d="M112622 27653
L112622 33153
" />
<path d="M120122 33153
L114622 33153
" />
<path d="M114622 33153
L114622 27653
" />
<path d="M114622 27653
L120122 27653
" />
<path d="M120122 27653
L120122 33153
" />
<path d="M65747 55653
L60247 55653
" />
<path d="M60247 55653
L60247 50153
" />
<path d="M60247 50153
L65747 50153
" />
<path d="M65747 50153
L65747 55653
" />
<path d="M67622 40653
L62122 40653
" />
<path d="M62122 40653
L62122 35153
" />
<path d="M62122 35153
L67622 35153
" />
<path d="M67622 35153
L67622 40653
" />
<path d="M60122 40653
L54622 40653
" />
<path d="M54622 40653
L54622 35153
" />
<path d="M54622 35153
L60122 35153
" />
<path d="M60122 35153
L60122 40653
" />
<path d="M73247 55653
L67747 55653
" />
<path d="M67747 55653
L67747 50153
" />
<path d="M67747 50153
L73247 50153
" />
<path d="M73247 50153
L73247 55653
" />
<path d="M30122 40653
L24622 40653
" />
<path d="M24622 40653
L24622 35153
" />
<path d="M24622 35153
L30122 35153
" />
<path d="M30122 35153
L30122 40653
" />
<path d="M80747 55653
L75247 55653
" />
<path d="M75247 55653
L75247 50153
" />
<path d="M75247 50153
L80747 50153
" />
<path d="M80747 50153
L80747 55653
" />
<path d="M93872 48153
L88372 48153
" />
<path d="M88372 48153
L88372 42653
" />
<path d="M88372 42653
L93872 42653
" />
<path d="M93872 42653
L93872 48153
" />
<path d="M88247 55653
L82747 55653
" />
<path d="M82747 55653
L82747 50153
" />
<path d="M82747 50153
L88247 50153
" />
<path d="M88247 50153
L88247 55653
" />
<path d="M95747 55653
L90247 55653
" />
<path d="M90247 55653
L90247 50153
" />
<path d="M90247 50153
L95747 50153
" />
<path d="M95747 50153
L95747 55653
" />
<path d="M116372 48153
L110872 48153
" />
<path d="M110872 48153
L110872 42653
" />
<path d="M110872 42653
L116372 42653
" />
<path d="M116372 42653
L116372 48153
" />
<path d="M103247 55653
L97747 55653
" />
<path d="M97747 55653
L97747 50153
" />
<path d="M97747 50153
L103247 50153
" />
<path d="M103247 50153
L103247 55653
" />
<path d="M112622 40653
L107122 40653
" />
<path d="M107122 40653
L107122 35153
" />
<path d="M107122 35153
L112622 35153
" />
<path d="M112622 35153
L112622 40653
" />
<path d="M91997 63153
L86497 63153
" />
<path d="M86497 63153
L86497 57653
" />
<path d="M86497 57653
L91997 57653
" />
<path d="M91997 57653
L91997 63153
" />
<path d="M97622 40653
L92122 40653
" />
<path d="M92122 40653
L92122 35153
" />
<path d="M92122 35153
L97622 35153
" />
<path d="M97622 35153
L97622 40653
" />
<path d="M84497 63153
L78997 63153
" />
<path d="M78997 63153
L78997 57653
" />
<path d="M78997 57653
L84497 57653
" />
<path d="M84497 57653
L84497 63153
" />
<path d="M37622 40653
L32122 40653
" />
<path d="M32122 40653
L32122 35153
" />
<path d="M32122 35153
L37622 35153
" />
<path d="M37622 35153
L37622 40653
" />
<path d="M101372 48153
L95872 48153
" />
<path d="M95872 48153
L95872 42653
" />
<path d="M95872 42653
L101372 42653
" />
<path d="M101372 42653
L101372 48153
" />
<path d="M108872 48153
L103372 48153
" />
<path d="M103372 48153
L103372 42653
" />
<path d="M103372 42653
L108872 42653
" />
<path d="M108872 42653
L108872 48153
" />
<path d="M41372 48153
L35872 48153
" />
<path d="M35872 48153
L35872 42653
" />
<path d="M35872 42653
L41372 42653
" />
<path d="M41372 42653
L41372 48153
" />
<path d="M118247 55653
L112747 55653
" />
<path d="M112747 55653
L112747 50153
" />
<path d="M112747 50153
L118247 50153
" />
<path d="M118247 50153
L118247 55653
" />
<path d="M123872 48153
L118372 48153
" />
<path d="M118372 48153
L118372 42653
" />
<path d="M118372 42653
L123872 42653
" />
<path d="M123872 42653
L123872 48153
" />
<path d="M63872 48153
L58372 48153
" />
<path d="M58372 48153
L58372 42653
" />
<path d="M58372 42653
L63872 42653
" />
<path d="M63872 42653
L63872 48153
" />
<path d="M110747 55653
L105247 55653
" />
<path d="M105247 55653
L105247 50153
" />
<path d="M105247 50153
L110747 50153
" />
<path d="M110747 50153
L110747 55653
" />
<path d="M82622 40653
L77122 40653
" />
<path d="M77122 40653
L77122 35153
" />
<path d="M77122 35153
L82622 35153
" />
<path d="M82622 35153
L82622 40653
" />
<path d="M75122 40653
L69622 40653
" />
<path d="M69622 40653
L69622 35153
" />
<path d="M69622 35153
L75122 35153
" />
<path d="M75122 35153
L75122 40653
" />
<path d="M114497 63153
L108997 63153
" />
<path d="M108997 63153
L108997 57653
" />
<path d="M108997 57653
L114497 57653
" />
<path d="M114497 57653
L114497 63153
" />
<path d="M50747 55653
L45247 55653
" />
<path d="M45247 55653
L45247 50153
" />
<path d="M45247 50153
L50747 50153
" />
<path d="M50747 50153
L50747 55653
" />
<path d="M52622 40653
L47122 40653
" />
<path d="M47122 40653
L47122 35153
" />
<path d="M47122 35153
L52622 35153
" />
<path d="M52622 35153
L52622 40653
" />
<path d="M71372 48153
L65872 48153
" />
<path d="M65872 48153
L65872 42653
" />
<path d="M65872 42653
L71372 42653
" />
<path d="M71372 42653
L71372 48153
" />
<path d="M45122 40653
L39622 40653
" />
<path d="M39622 40653
L39622 35153
" />
<path d="M39622 35153
L45122 35153
" />
<path d="M45122 35153
L45122 40653
" />
<path d="M86372 48153
L80872 48153
" />
<path d="M80872 48153
L80872 42653
" />
<path d="M80872 42653
L86372 42653
" />
<path d="M86372 42653
L86372 48153
" />
<path d="M69497 63153
L63997 63153
" />
<path d="M63997 63153
L63997 57653
" />
<path d="M63997 57653
L69497 57653
" />
<path d="M69497 57653
L69497 63153
" />
<path d="M48872 48153
L43372 48153
" />
<path d="M43372 48153
L43372 42653
" />
<path d="M43372 42653
L48872 42653
" />
<path d="M48872 42653
L48872 48153
" />
<path d="M54497 63153
L48997 63153
" />
<path d="M48997 63153
L48997 57653
" />
<path d="M48997 57653
L54497 57653
" />
<path d="M54497 57653
L54497 63153
" />
<path d="M78872 48153
L73372 48153
" />
<path d="M73372 48153
L73372 42653
" />
<path d="M73372 42653
L78872 42653
" />
<path d="M78872 42653
L78872 48153
" />
<path d="M105122 40653
L99622 40653
" />
<path d="M99622 40653
L99622 35153
" />
<path d="M99622 35153
L105122 35153
" />
<path d="M105122 35153
L105122 40653
" />
<path d="M46997 63153
L41497 63153
" />
<path d="M41497 63153
L41497 57653
" />
<path d="M41497 57653
L46997 57653
" />
<path d="M46997 57653
L46997 63153
" />
<path d="M157622 70653
L152122 70653
" />
<path d="M152122 70653
L152122 65153
" />
<path d="M152122 65153
L157622 65153
" />
<path d="M157622 65153
L157622 70653
" />
<path d="M165122 33153
L159622 33153
" />
<path d="M159622 33153
L159622 27653
" />
<path d="M159622 27653
L165122 27653
" />
<path d="M165122 27653
L165122 33153
" />
<path d="M150122 40653
L144622 40653
" />
<path d="M144622 40653
L144622 35153
" />
<path d="M144622 35153
L150122 35153
" />
<path d="M150122 35153
L150122 40653
" />
<path d="M135122 70653
L129622 70653
" />
<path d="M129622 70653
L129622 65153
" />
<path d="M129622 65153
L135122 65153
" />
<path d="M135122 65153
L135122 70653
" />
<path d="M150122 33153
L144622 33153
" />
<path d="M144622 33153
L144622 27653
" />
<path d="M144622 27653
L150122 27653
" />
<path d="M150122 27653
L150122 33153
" />
<path d="M142622 33153
L137122 33153
" />
<path d="M137122 33153
L137122 27653
" />
<path d="M137122 27653
L142622 27653
" />
<path d="M142622 27653
L142622 33153
" />
<path d="M157622 33153
L152122 33153
" />
<path d="M152122 33153
L152122 27653
" />
<path d="M152122 27653
L157622 27653
" />
<path d="M157622 27653
L157622 33153
" />
<path d="M127622 70653
L122122 70653
" />
<path d="M122122 70653
L122122 65153
" />
<path d="M122122 65153
L127622 65153
" />
<path d="M127622 65153
L127622 70653
" />
<path d="M157622 40653
L152122 40653
" />
<path d="M152122 40653
L152122 35153
" />
<path d="M152122 35153
L157622 35153
" />
<path d="M157622 35153
L157622 40653
" />
<path d="M150122 70653
L144622 70653
" />
<path d="M144622 70653
L144622 65153
" />
<path d="M144622 65153
L150122 65153
" />
<path d="M150122 65153
L150122 70653
" />
<path d="M142622 63153
L137122 63153
" />
<path d="M137122 63153
L137122 57653
" />
<path d="M137122 57653
L142622 57653
" />
<path d="M142622 57653
L142622 63153
" />
<path d="M150122 63153
L144622 63153
" />
<path d="M144622 63153
L144622 57653
" />
<path d="M144622 57653
L150122 57653
" />
<path d="M150122 57653
L150122 63153
" />
<path d="M157622 63153
L152122 63153
" />
<path d="M152122 63153
L152122 57653
" />
<path d="M152122 57653
L157622 57653
" />
<path d="M157622 57653
L157622 63153
" />
<path d="M142622 55653
L137122 55653
" />
<path d="M137122 55653
L137122 50153
" />
<path d="M137122 50153
L142622 50153
" />
<path d="M142622 50153
L142622 55653
" />
<path d="M150122 55653
L144622 55653
" />
<path d="M144622 55653
L144622 50153
" />
<path d="M144622 50153
L150122 50153
" />
<path d="M150122 50153
L150122 55653
" />
<path d="M157622 55653
L152122 55653
" />
<path d="M152122 55653
L152122 50153
" />
<path d="M152122 50153
L157622 50153
" />
<path d="M157622 50153
L157622 55653
" />
<path d="M142622 48153
L137122 48153
" />
<path d="M137122 48153
L137122 42653
" />
<path d="M137122 42653
L142622 42653
" />
<path d="M142622 42653
L142622 48153
" />
<path d="M150122 48153
L144622 48153
" />
<path d="M144622 48153
L144622 42653
" />
<path d="M144622 42653
L150122 42653
" />
<path d="M150122 42653
L150122 48153
" />
<path d="M157622 48153
L152122 48153
" />
<path d="M152122 48153
L152122 42653
" />
<path d="M152122 42653
L157622 42653
" />
<path d="M157622 42653
L157622 48153
" />
<path d="M142622 40653
L137122 40653
" />
<path d="M137122 40653
L137122 35153
" />
<path d="M137122 35153
L142622 35153
" />
<path d="M142622 35153
L142622 40653
" />
<path d="M127622 33153
L122122 33153
" />
<path d="M122122 33153
L122122 27653
" />
<path d="M122122 27653
L127622 27653
" />
<path d="M127622 27653
L127622 33153
" />
<path d="M135122 33153
L129622 33153
" />
<path d="M129622 33153
L129622 27653
" />
<path d="M129622 27653
L135122 27653
" />
<path d="M135122 27653
L135122 33153
" />
<path d="M165122 40653
L159622 40653
" />
<path d="M159622 40653
L159622 35153
" />
<path d="M159622 35153
L165122 35153
" />
<path d="M165122 35153
L165122 40653
" />
<path d="M142622 70653
L137122 70653
" />
<path d="M137122 70653
L137122 65153
" />
<path d="M137122 65153
L142622 65153
" />
<path d="M142622 65153
L142622 70653
" />
<path d="M135122 63153
L129622 63153
" />
<path d="M129622 63153
L129622 57653
" />
<path d="M129622 57653
L135122 57653
" />
<path d="M135122 57653
L135122 63153
" />
</g> 
</svg>
